<?xml version="1.0" standalone="no"?>
<!DOCTYPE svg PUBLIC "-//W3C//DTD SVG 1.1//EN" "http://www.w3.org/Graphics/SVG/1.1/DTD/svg11.dtd" >
<svg xmlns="http://www.w3.org/2000/svg" xmlns:xlink="http://www.w3.org/1999/xlink" version="1.1">
<metadata>
Created by FontForge 20170731 at Mon Jan 16 19:14:16 2023
 By Aleksey,,,
Copyright (c) 2019 by Roger Gaillard. All rights reserved.
</metadata>
<defs>
<font id="ESRebondGrotesque-BoldItalic" horiz-adv-x="0" >
  <font-face 
    font-family="ES Rebond Grotesque"
    font-weight="700"
    font-style="italic"
    font-stretch="normal"
    units-per-em="2048"
    panose-1="0 0 8 0 0 0 0 0 0 0"
    ascent="1638"
    descent="-410"
    x-height="1024"
    cap-height="1434"
    bbox="-1026 -492 2710 2116.08"
    underline-thickness="102"
    underline-position="-307"
    slope="-10"
    unicode-range="U+0020-1F169"
  />
<missing-glyph horiz-adv-x="983" 
d="M319 1434l-253 -1434h669l254 1434h-670zM686 61h-547l230 1311h546z" />
    <glyph glyph-name="fi" unicode="fi" horiz-adv-x="1273" 
d="M1284 1024l-180 -1024h-279l140 788h-418l-139 -788h-279l139 788h-219l39 236h221l6 37q32 182 171 292.5t335 110.5q206 0 305 -107.5t43 -256.5h-288q27 65 -1.5 96t-91.5 31q-82 0 -132.5 -54.5t-65.5 -138.5l-2 -10h696z" />
    <glyph glyph-name="fl" unicode="fl" horiz-adv-x="1300" 
d="M88 1024h221l17 94q31 166 135 256t260 90q89 0 149 -26t86.5 -72.5t25.5 -108.5t-30 -137h-241q26 64 20 93.5t-39 29.5q-36 0 -56.5 -37t-33.5 -108l-14 -74h338l-41 -236h-338l-139 -788h-279l139 788h-219zM1104 0h-279l254 1434h279z" />
    <glyph glyph-name="f_f" unicode="ff" horiz-adv-x="1593" 
d="M408 0h-279l139 788h-219l39 236h221l17 94q31 166 135 256t260 90q89 0 149 -26t86.5 -72.5t25.5 -108.5t-30 -137h-241q26 64 20 93.5t-39 29.5q-36 0 -56.5 -37t-33.5 -108l-14 -74h418l16 94q33 169 134 257.5t267 88.5q180 0 248 -96.5t8 -247.5h-241
q47 123 -31 123q-87 0 -111 -145l-12 -74h373l-41 -236h-375l-137 -788h-279l138 788h-416z" />
    <glyph glyph-name="f_f_i" unicode="ffi" horiz-adv-x="1968" 
d="M1976 1024l-180 -1024h-278l139 788h-418l-139 -788h-279l140 788h-416l-139 -788h-279l139 788h-217l39 236h221l17 94q29 166 132.5 256t260.5 90q89 0 149.5 -26t87 -72.5t25.5 -108.5t-31 -137h-241q26 64 20 93.5t-39 29.5q-66 0 -90 -145l-12 -74h413l7 37
q32 182 170.5 292.5t334.5 110.5q206 0 305.5 -107.5t43.5 -256.5h-289q29 64 0.5 95.5t-90.5 31.5q-83 0 -134.5 -54.5t-66.5 -138.5l-2 -10h696z" />
    <glyph glyph-name="f_f_l" unicode="ffl" horiz-adv-x="1996" 
d="M408 0h-279l139 788h-219l39 236h221l17 94q31 166 135 256t260 90q89 0 149 -26t86.5 -72.5t25.5 -108.5t-30 -137h-241q26 64 20 93.5t-39 29.5q-68 0 -92 -145l-12 -74h418l16 94q32 167 133.5 256.5t257.5 89.5q89 0 149.5 -26t87.5 -72.5t26 -108.5t-31 -137h-240
q17 42 19 70t-8 40.5t-30 12.5q-37 0 -57.5 -37t-32.5 -108l-12 -74h334l-39 -236h-338l-137 -788h-279l138 788h-416zM1800 0h-278l254 1434h278z" />
    <glyph glyph-name="f_t.liga" unicode="ft" horiz-adv-x="1533" 
d="M408 0h-279l139 788h-219l39 236h221l19 94q31 166 134 256t259 90q89 0 149.5 -26t87 -72.5t25.5 -108.5t-31 -137h-241q26 64 20 93.5t-39 29.5q-36 0 -56.5 -37t-33.5 -108l-14 -74h418l49 281h278l-49 -281h295l-41 -236h-297l-82 -466q-5 -15 -3 -35t7.5 -38t28 -30
t59.5 -12q69 0 162 57l-27 -248q-70 -45 -196 -45q-72 0 -127.5 16.5t-89 42t-55 62.5t-30 71t-10 74.5t1 67t7.5 53.5l76 430h-416z" />
    <glyph glyph-name="t_t.liga" unicode="tt" horiz-adv-x="1546" 
d="M1550 788h-297l-82 -466q-17 -115 93 -115q68 0 161 57l-26 -248q-70 -45 -197 -45q-72 0 -127.5 16.5t-89 42t-55 62.5t-30 71t-10 74.5t1 67t7.5 53.5l76 430h-416l-82 -466q-22 -115 92 -115q69 0 162 57l-29 -248q-70 -45 -194 -45q-72 0 -127.5 16.5t-89 42
t-55 62.5t-30 71t-10 74.5t1 67t7.5 53.5l76 430h-205l41 236h205l49 281h278l-49 -281h418l49 281h279l-50 -281h295z" />
    <glyph glyph-name=".notdef" horiz-adv-x="983" 
d="M319 1434l-253 -1434h669l254 1434h-670zM686 61h-547l230 1311h546z" />
    <glyph glyph-name=".null" 
 />
    <glyph glyph-name="nonmarkingreturn" horiz-adv-x="682" 
 />
    <glyph glyph-name="space" unicode=" " horiz-adv-x="485" 
 />
    <glyph glyph-name="exclam" unicode="!" horiz-adv-x="573" 
d="M379 461h-201l117 973h309zM211 -23q-69 0 -114.5 46.5t-45.5 115.5q0 78 54.5 128t130.5 50q70 0 112.5 -44.5t42.5 -114.5q0 -77 -53.5 -129t-126.5 -52z" />
    <glyph glyph-name="quotedbl" unicode="&#x22;" horiz-adv-x="962" 
d="M459 958h-183l50 476h252zM842 958h-183l50 476h252z" />
    <glyph glyph-name="numbersign" unicode="#" horiz-adv-x="1263" 
d="M1348 1096l-41 -236h-260l-84 -272h225l-43 -238h-258l-109 -350h-256l111 350h-193l-108 -350h-256l108 350h-194l41 238h229l84 272h-209l41 236h242l106 338h256l-106 -338h192l107 338h254l-107 -338h228zM516 588h191l86 272h-193z" />
    <glyph glyph-name="dollar" unicode="$" horiz-adv-x="1445" 
d="M1356 954h-295q33 120 -11 187.5t-161 81.5l-68 -392q182 -41 258 -73q181 -76 215 -233q9 -39 9 -85q0 -146 -85 -253.5t-226 -161t-322 -56.5l-35 -194h-107l35 198q-258 20 -377 156t-65 348h295q-26 -118 24 -184t166 -80l70 397q-58 13 -93 21.5t-88.5 26t-86.5 35
t-71.5 46.5t-60 62.5t-36.5 81t-15 104.5q0 206 168.5 337t431.5 140l21 115h106l-20 -117q256 -19 372 -156.5t52 -351.5zM528 1028q0 -67 49.5 -105.5t141.5 -64.5l63 365q-115 -11 -184.5 -63.5t-69.5 -131.5zM999 412q0 70 -56.5 108.5t-164.5 65.5l-67 -377
q132 7 210 63t78 140z" />
    <glyph glyph-name="percent" unicode="%" horiz-adv-x="1992" 
d="M553 -66h-203l1149 1524h205zM530 668q-152 0 -244.5 91t-92.5 242q0 175 124 293.5t310 118.5q158 0 248 -87.5t90 -233.5q0 -179 -127 -301.5t-308 -122.5zM549 846q93 0 151 68.5t58 162.5q0 72 -39.5 115t-108.5 43q-93 0 -151 -70.5t-58 -163.5q0 -73 39.5 -114
t108.5 -41zM1432 -20q-152 0 -245 91t-93 242q0 175 124.5 293.5t311.5 118.5q157 0 247.5 -88t90.5 -234q0 -179 -127.5 -301t-308.5 -122zM1450 158q93 0 151 68.5t58 162.5q0 72 -39.5 115t-108.5 43q-92 0 -149 -70.5t-57 -163.5q0 -74 38 -114.5t107 -40.5z" />
    <glyph glyph-name="ampersand" unicode="&#x26;" horiz-adv-x="1398" 
d="M1305 0h-320q-13 11 -26.5 24t-30 28.5t-25.5 23.5q-199 -105 -422 -105q-210 0 -330 100t-120 255q0 71 27 134t78 114.5t107 91.5t132 82q-66 147 -66 266q0 124 69.5 225.5t181.5 156t241 54.5q160 0 255 -84.5t95 -222.5q0 -49 -13.5 -94.5t-35 -82t-57 -72.5
t-69.5 -62.5t-83.5 -56.5t-88 -50t-93.5 -47q81 -125 225 -291q72 79 104 181.5t17 213.5h235q40 -339 -196 -569q90 -97 209 -213zM578 1012q0 -68 30 -144q65 33 109.5 60t85.5 60t61.5 68.5t20.5 73.5q0 45 -27.5 73t-81.5 28q-85 0 -141.5 -61t-56.5 -158zM311 344
q0 -137 209 -137q110 0 213 39q-162 173 -252 313q-170 -100 -170 -215z" />
    <glyph glyph-name="quotesingle" unicode="'" horiz-adv-x="579" 
d="M459 958h-183l50 476h252z" />
    <glyph glyph-name="parenleft" unicode="(" horiz-adv-x="720" 
d="M463 -270h-268q-64 134 -102 276t-48.5 301t18.5 314q38 218 151 441.5t278 412.5h286q-165 -213 -279.5 -443.5t-152.5 -449.5q-36 -224 -3.5 -448.5t120.5 -403.5z" />
    <glyph glyph-name="parenright" unicode=")" horiz-adv-x="720" 
d="M256 1475h270q64 -134 102 -276t48 -300.5t-19 -314.5q-38 -219 -150.5 -442t-277.5 -412h-286q163 211 277.5 442.5t154.5 450.5q36 225 3 448.5t-122 403.5z" />
    <glyph glyph-name="asterisk" unicode="*" horiz-adv-x="854" 
d="M854 1296l45 -145q-96 -43 -229 -64q25 -78 94 -163l-131 -107q-82 110 -115 209q-69 -106 -188 -209l-115 107q101 88 158 168q-125 26 -191 61l66 135q77 -38 201 -51q31 77 57 219h164q0 -4 -2 -6q-21 -144 -21 -209q109 15 207 55z" />
    <glyph glyph-name="plus" unicode="+" horiz-adv-x="1406" 
d="M745 106h-227l76 433h-426l37 211h426l74 415h229l-76 -415h426l-37 -211h-426z" />
    <glyph glyph-name="comma" unicode="," horiz-adv-x="516" 
d="M373 98q1 -147 -114.5 -266.5t-283.5 -148.5l27 145q69 17 126.5 63t88.5 109q-30 -10 -57 -10q-69 0 -111.5 43.5t-42.5 111.5q0 73 51 120.5t125 47.5q84 0 136.5 -60t54.5 -155z" />
    <glyph glyph-name="hyphen" unicode="-" horiz-adv-x="649" 
d="M569 416h-524l43 246h526z" />
    <glyph glyph-name="period" unicode="." horiz-adv-x="475" 
d="M162 -23q-69 0 -114.5 46.5t-45.5 115.5q0 78 54 128t130 50q70 0 113 -44.5t43 -114.5q0 -77 -53.5 -129t-126.5 -52z" />
    <glyph glyph-name="slash" unicode="/" horiz-adv-x="927" 
d="M285 -37h-312l750 1532h311z" />
    <glyph glyph-name="zero" unicode="0" horiz-adv-x="1466" 
d="M678 -31q-250 0 -398.5 163.5t-148.5 457.5q0 134 31.5 262t94 238.5t149 194t205 131.5t253.5 48q251 0 398 -162t147 -458q0 -169 -50.5 -326t-142 -279.5t-231.5 -196t-307 -73.5zM686 215q79 0 148.5 39.5t119 105t85.5 150t53.5 175.5t17.5 179q0 170 -66 262.5
t-190 92.5q-98 0 -181 -60.5t-134.5 -156.5t-80 -209t-28.5 -224q0 -170 66.5 -262t189.5 -92z" />
    <glyph glyph-name="one" unicode="1" horiz-adv-x="931" 
d="M631 1434h307l-254 -1434h-295l186 1059q-107 -113 -237 -179t-270 -75l45 254q162 10 305 122.5t213 252.5z" />
    <glyph glyph-name="two" unicode="2" horiz-adv-x="1302" 
d="M1284 1018q0 -84 -22.5 -161.5t-60.5 -140.5t-96.5 -122.5t-121.5 -106.5t-145.5 -94t-158.5 -82.5t-169 -74.5h649l-41 -236h-1104l43 233q343 150 485 228q287 159 383 328q56 98 56 210q0 107 -53 163.5t-150 56.5q-131 0 -215 -95.5t-84 -244.5q0 -107 39 -193h-295
q-41 121 -41 219q0 160 81.5 288.5t223.5 199.5t316 71q221 0 351 -115.5t130 -330.5z" />
    <glyph glyph-name="three" unicode="3" horiz-adv-x="1323" 
d="M1014 750q190 -96 190 -306q0 -141 -86 -251t-226 -167t-306 -57q-137 0 -247 41t-174 113t-83 170.5t24 214.5h306q-47 -128 10.5 -210.5t191.5 -82.5q122 0 203.5 68t81.5 172q0 87 -63 138.5t-174 51.5h-111l37 211h94q120 0 196 62.5t76 152.5q0 68 -47 108t-131 40
q-114 0 -177.5 -70t-55.5 -164h-299q-9 141 63.5 251.5t200.5 169t287 58.5q204 0 333 -101.5t129 -264.5q0 -119 -64.5 -207t-178.5 -141z" />
    <glyph glyph-name="four" unicode="4" horiz-adv-x="1359" 
d="M1102 578h227l-41 -236h-227l-60 -342h-296l61 342h-750l37 246q547 397 819 846h383zM807 578l90 505q-186 -261 -483 -505h393z" />
    <glyph glyph-name="five" unicode="5" horiz-adv-x="1316" 
d="M1300 1434l-40 -236h-652q-43 -157 -86 -270q106 59 246 59q215 0 329.5 -124.5t114.5 -323.5q0 -171 -84 -302t-227 -199.5t-321 -68.5q-107 0 -198 26.5t-154.5 73.5t-103 112t-42 143t26.5 165h305q-41 -120 13 -197t179 -77q136 0 219.5 91.5t83.5 219.5
q0 107 -60.5 169.5t-172.5 62.5q-157 0 -252 -113l-277 109q78 151 142.5 335.5t93.5 344.5h917z" />
    <glyph glyph-name="six" unicode="6" horiz-adv-x="1370" 
d="M1317 1010h-307q40 95 4.5 152t-133.5 57q-141 0 -252 -120.5t-164 -328.5q140 150 369 150q199 0 312.5 -114.5t113.5 -299.5q0 -157 -79.5 -281t-212.5 -190t-294 -66q-256 0 -400.5 167.5t-144.5 449.5q0 141 35 272.5t104 241t163.5 191.5t220.5 127.5t268 45.5
q124 0 219 -35t145.5 -96.5t62.5 -144.5t-30 -178zM745 674q-118 0 -199 -76.5t-81 -185.5q0 -91 58.5 -144t150.5 -53q117 0 199.5 77.5t82.5 186.5q0 90 -58 142.5t-153 52.5z" />
    <glyph glyph-name="seven" unicode="7" horiz-adv-x="1169" 
d="M158 1198l43 236h1067l-33 -217q-484 -453 -676 -1217h-321q199 732 647 1198h-727z" />
    <glyph glyph-name="eight" unicode="8" horiz-adv-x="1296" 
d="M1001 770q85 -54 132 -135.5t47 -183.5q0 -141 -83 -252.5t-220 -170.5t-299 -59q-224 0 -360 111t-136 291q0 143 82 253t219 169q-133 88 -133 245q0 175 148 300.5t386 125.5q205 0 332 -97t127 -261q0 -111 -63 -199t-179 -137zM768 1219q-95 0 -156 -51.5
t-61 -129.5q0 -68 47.5 -107.5t126.5 -39.5q94 0 154.5 53t60.5 131q0 67 -46.5 105.5t-125.5 38.5zM606 215q122 0 200.5 74.5t78.5 181.5q0 91 -58.5 145t-156.5 54q-122 0 -202.5 -77.5t-80.5 -182.5q0 -88 59 -141.5t160 -53.5z" />
    <glyph glyph-name="nine" unicode="9" horiz-adv-x="1361" 
d="M782 1464q251 0 389 -160.5t138 -439.5q0 -174 -55 -335t-154.5 -286t-250.5 -199.5t-331 -74.5q-124 0 -219 35.5t-145.5 97t-62.5 144.5t30 178h307q-41 -95 -3 -152t136 -57q140 0 250 119.5t162 333.5q-144 -154 -379 -154q-196 0 -306 106.5t-110 288.5
q0 114 46 216.5t125 177t192 118t241 43.5zM692 760q118 0 199.5 76.5t81.5 185.5q0 88 -57.5 142.5t-153.5 54.5q-114 0 -197.5 -76t-83.5 -187q0 -90 57.5 -143t153.5 -53z" />
    <glyph glyph-name="colon" unicode=":" horiz-adv-x="477" 
d="M313 1036q69 0 113.5 -46.5t44.5 -117.5q0 -76 -53.5 -126t-128.5 -50q-70 0 -114 45t-44 113q0 78 53.5 130t128.5 52zM164 -23q-70 0 -115 46t-45 116q0 77 54 127.5t128 50.5q71 0 114.5 -44.5t43.5 -114.5q0 -77 -53.5 -129t-126.5 -52z" />
    <glyph glyph-name="semicolon" unicode=";" horiz-adv-x="518" 
d="M313 1036q69 0 113.5 -46.5t44.5 -117.5q0 -76 -53.5 -126t-128.5 -50q-70 0 -114 45t-44 113q0 78 53.5 130t128.5 52zM184 313q84 0 136.5 -60t54.5 -155q1 -147 -114.5 -266.5t-283.5 -148.5l25 145q70 17 128 63t89 109q-30 -10 -59 -10q-67 0 -110.5 43.5
t-43.5 111.5q0 73 51 120.5t127 47.5z" />
    <glyph glyph-name="less" unicode="&#x3c;" horiz-adv-x="1406" 
d="M164 596l1155 414l-41 -246l-815 -277l719 -264l-41 -246l-1014 404z" />
    <glyph glyph-name="equal" unicode="=" horiz-adv-x="1406" 
d="M1280 727h-1079l43 244h1079zM1204 297h-1079l43 244h1079z" />
    <glyph glyph-name="greater" unicode="&#x3e;" horiz-adv-x="1406" 
d="M217 766l43 244l1014 -404l-39 -213l-1153 -416l41 248l813 277z" />
    <glyph glyph-name="question" unicode="?" horiz-adv-x="1067" 
d="M547 365q-174 0 -275.5 69t-101.5 191q0 69 34.5 123.5t90 89t122 62.5t133.5 50.5t122.5 46t90 56.5t34.5 75q0 43 -32 71t-93 28q-79 0 -136 -47.5t-57 -126.5q0 -34 8 -58h-278q-12 47 -12 95q0 157 133.5 265.5t349.5 108.5q188 0 295.5 -88t107.5 -231
q0 -75 -33 -136t-85 -101.5t-115.5 -73t-127 -56t-115.5 -44.5t-85 -45.5t-33 -51.5q0 -47 80 -47q71 0 160.5 27.5t151.5 62.5l-31 -254q-47 -26 -129.5 -43.5t-173.5 -17.5zM459 -23q-61 0 -99 41t-38 103q0 69 46.5 112t112.5 43q61 0 99 -39t38 -100q0 -66 -46 -113
t-113 -47z" />
    <glyph glyph-name="at" unicode="@" horiz-adv-x="1765" 
d="M1053 1464q301 0 489.5 -169.5t188.5 -456.5q0 -169 -54 -287h-129q54 150 54 266q0 230 -157.5 375t-408.5 145q-162 0 -309.5 -66t-252 -174t-166.5 -251.5t-62 -294.5q0 -241 151 -388t408 -147q142 0 265 43.5t199.5 124.5t76.5 181q0 37 -13 69
q-78 -138 -214.5 -220.5t-301.5 -82.5q-171 0 -276 86t-105 227q0 114 73 195.5t189 119.5t260 38q107 0 199 -25v6q0 105 -46 158t-130 53q-76 0 -123 -40.5t-45 -100.5h-262q-9 84 22.5 156t92 120.5t143 75.5t174.5 27q202 0 320 -123t118 -336q0 -74 -16 -152
q72 -93 72 -225q0 -150 -96 -267t-250 -177t-336 -60q-312 0 -493 181.5t-181 478.5q0 122 32.5 239.5t91 218t144 186t187 145.5t224.5 94t253 34zM842 358q96 0 167 63t111 163q-44 10 -104 10q-119 0 -206 -40.5t-87 -109.5q0 -38 30.5 -62t88.5 -24z" />
    <glyph glyph-name="A" unicode="A" horiz-adv-x="1505" 
d="M1397 0h-295l-58 283h-641l-155 -283h-320l809 1434h355zM874 1137l-339 -617h462z" />
    <glyph glyph-name="B" unicode="B" horiz-adv-x="1454" 
d="M1126 770q222 -76 222 -315q0 -113 -48 -200.5t-135.5 -142.5t-205 -83.5t-259.5 -28.5h-634l253 1434h619q213 0 325.5 -86.5t112.5 -249.5q0 -249 -250 -328zM1067 1067q0 137 -154 137h-342l-57 -342h324q108 0 168.5 56.5t60.5 148.5zM406 233h319q149 0 236.5 61
t87.5 173q0 88 -57.5 131t-176.5 43h-340z" />
    <glyph glyph-name="C" unicode="C" horiz-adv-x="1609" 
d="M774 -31q-199 0 -345.5 84t-221 231t-74.5 339q0 177 66 333.5t179 267.5t269 175.5t330 64.5q104 0 195.5 -23t162 -64t121 -99.5t76 -128t24.5 -152t-32 -168.5h-303q59 176 -24.5 283t-252.5 107q-91 0 -172.5 -33.5t-142 -91t-105 -132.5t-67.5 -161t-23 -174
q0 -189 104 -300.5t269 -111.5q152 0 260.5 90.5t153.5 222.5h311q-81 -261 -285 -410t-473 -149z" />
    <glyph glyph-name="D" unicode="D" horiz-adv-x="1521" 
d="M319 1434h564q276 0 438 -168.5t162 -450.5q0 -171 -62.5 -321.5t-172 -259t-266 -171.5t-335.5 -63h-581zM408 244h276q144 0 259.5 77t177 203t61.5 275q0 176 -90.5 283.5t-249.5 107.5h-271z" />
    <glyph glyph-name="E" unicode="E" horiz-adv-x="1288" 
d="M1339 1434l-41 -236h-727l-55 -324h617l-43 -237h-615l-69 -401h743l-43 -236h-1040l253 1434h1020z" />
    <glyph glyph-name="F" unicode="F" horiz-adv-x="1226" 
d="M1339 1434l-43 -236h-727l-63 -375h616l-41 -235h-616l-103 -588h-296l253 1434h1020z" />
    <glyph glyph-name="G" unicode="G" horiz-adv-x="1595" 
d="M846 768h743l-43 -238h-303q127 -68 127 -204q0 -107 -82 -189.5t-213.5 -125t-286.5 -42.5q-308 0 -482.5 172.5t-174.5 466.5q0 174 63 330.5t173.5 272.5t269.5 184.5t342 68.5q140 0 250.5 -38.5t179 -110t92 -174.5t-9.5 -232h-303q41 152 -27.5 230t-214.5 78
q-117 0 -216 -51t-163 -136t-99.5 -192t-35.5 -222q0 -191 95.5 -296t269.5 -105q123 0 201.5 50.5t78.5 125.5q0 67 -70.5 102t-203.5 37z" />
    <glyph glyph-name="H" unicode="H" horiz-adv-x="1568" 
d="M1178 866l100 568h295l-254 -1434h-295l113 631h-662l-113 -631h-296l253 1434h297l-100 -568h662z" />
    <glyph glyph-name="I" unicode="I" horiz-adv-x="610" 
d="M362 0h-296l253 1434h297z" />
    <glyph glyph-name="J" unicode="J" horiz-adv-x="1038" 
d="M395 -31q-126 0 -217.5 39.5t-137 108.5t-43 167t59.5 210h273q-62 -142 -41 -212.5t117 -70.5q97 0 143.5 63.5t66.5 176.5l175 983h294l-170 -961q-14 -82 -34 -147t-59.5 -135t-93 -116t-139 -76t-194.5 -30z" />
    <glyph glyph-name="K" unicode="K" horiz-adv-x="1554" 
d="M1272 1434h364l-678 -562l488 -872h-350l-367 682l-289 -240l-78 -442h-296l253 1434h297l-114 -650z" />
    <glyph glyph-name="L" unicode="L" horiz-adv-x="1247" 
d="M616 1434l-208 -1198h741l-43 -236h-1040l253 1434h297z" />
    <glyph glyph-name="M" unicode="M" horiz-adv-x="1982" 
d="M952 322l533 1112h504l-254 -1434h-295l211 1198l-600 -1198h-295l-181 1210l-213 -1210h-296l253 1434h496z" />
    <glyph glyph-name="N" unicode="N" horiz-adv-x="1564" 
d="M1081 350l193 1084h295l-254 -1434h-406l-350 1118l-197 -1118h-296l253 1434h424z" />
    <glyph glyph-name="O" unicode="O" horiz-adv-x="1656" 
d="M760 -31q-286 0 -458.5 174t-172.5 461q0 172 65 330t176 274.5t268 186t333 69.5q285 0 456.5 -172.5t171.5 -462.5q0 -170 -64 -327.5t-174 -275t-267 -187.5t-334 -70zM780 215q113 0 211.5 52.5t164.5 138.5t104 195.5t38 223.5q0 184 -94 289t-256 105
q-150 0 -270.5 -89.5t-184 -228.5t-63.5 -293q0 -186 94 -289.5t256 -103.5z" />
    <glyph glyph-name="P" unicode="P" horiz-adv-x="1378" 
d="M319 1434h639q216 0 333.5 -107.5t117.5 -304.5q0 -235 -162 -369.5t-434 -134.5h-360l-91 -518h-296zM494 754h348q125 0 195.5 72.5t70.5 187.5q0 184 -190 184h-349z" />
    <glyph glyph-name="Q" unicode="Q" horiz-adv-x="1654" 
d="M1597 834q0 -150 -49.5 -286.5t-137 -243.5t-206.5 -192.5t-258.5 -141t-292.5 -81.5q349 -11 668 -69l-41 -234q-495 99 -1137 99l37 237q367 11 615 105q-54 -4 -78 -4q-167 0 -299 69t-209.5 204.5t-77.5 317.5q0 166 62 321t169.5 271.5t261.5 187t328 70.5
q184 0 329.5 -74.5t230.5 -219t85 -336.5zM774 223q149 0 270.5 89t186.5 228t65 294q0 182 -92 283.5t-252 101.5q-149 0 -270.5 -89t-186.5 -228t-65 -294q0 -181 93 -283t251 -102z" />
    <glyph glyph-name="R" unicode="R" horiz-adv-x="1486" 
d="M1452 1063q0 -162 -86.5 -278t-239.5 -171q124 -66 164 -217t6 -397h-290q40 306 -2.5 424.5t-204.5 118.5h-342l-95 -543h-296l253 1434h682q219 0 335 -94t116 -277zM494 762h360q134 0 214.5 75.5t80.5 190.5q0 170 -188 170h-392z" />
    <glyph glyph-name="S" unicode="S" horiz-adv-x="1445" 
d="M651 -31q-300 0 -444.5 139.5t-85.5 368.5h295q-29 -134 39.5 -201t220.5 -67q147 0 235 57t88 146q0 46 -26.5 79.5t-71.5 53.5t-103 35.5t-122 29.5t-128 31t-122 44.5t-103 65t-71.5 98t-26.5 138.5q0 142 82.5 251t226.5 167.5t326 58.5q192 0 320.5 -63.5
t174.5 -179.5t1 -267h-295q36 134 -22.5 202.5t-204.5 68.5q-135 0 -220.5 -54.5t-85.5 -142.5q0 -47 26.5 -81t71.5 -55t103 -36.5t122.5 -30t128.5 -32t122 -45.5t103 -66.5t71.5 -100t26.5 -141.5q0 -112 -50 -202t-138.5 -148.5t-207 -89.5t-256.5 -31z" />
    <glyph glyph-name="T" unicode="T" horiz-adv-x="1355" 
d="M203 1434h1278l-43 -236h-490l-213 -1198h-295l213 1198h-493z" />
    <glyph glyph-name="U" unicode="U" horiz-adv-x="1509" 
d="M686 -29q-303 0 -445 180.5t-87 495.5l139 787h295l-137 -783q-37 -212 32 -321t228 -109q319 0 399 451l135 762h295l-143 -807q-56 -315 -240 -485.5t-471 -170.5z" />
    <glyph glyph-name="V" unicode="V" horiz-adv-x="1441" 
d="M676 317l592 1117h319l-790 -1434h-322l-295 1434h299z" />
    <glyph glyph-name="W" unicode="W" horiz-adv-x="2091" 
d="M1423 319l500 1115h313l-675 -1434h-347l-61 1174l-471 -1174h-336l-166 1434h295l105 -1115l442 1115h354z" />
    <glyph glyph-name="X" unicode="X" horiz-adv-x="1515" 
d="M1278 1434h336l-608 -699l401 -735h-322l-307 590l-516 -590h-334l676 754l-354 680h323l263 -506z" />
    <glyph glyph-name="Y" unicode="Y" horiz-adv-x="1458" 
d="M1272 1434h332l-717 -875l-101 -559h-294l102 580l-414 854h322l268 -613z" />
    <glyph glyph-name="Z" unicode="Z" horiz-adv-x="1308" 
d="M274 1434h1106l-34 -211l-967 -987h811l-43 -236h-1165l36 211l967 987h-754z" />
    <glyph glyph-name="bracketleft" unicode="[" horiz-adv-x="917" 
d="M580 -270h-549l307 1745h549l-41 -234h-236l-227 -1278h235z" />
    <glyph glyph-name="backslash" unicode="\" horiz-adv-x="921" 
d="M756 -37h-303l-209 1532h303z" />
    <glyph glyph-name="bracketright" unicode="]" horiz-adv-x="917" 
d="M344 1473h547l-307 -1745h-547l39 233h237l226 1280h-236z" />
    <glyph glyph-name="asciicircum" unicode="^" horiz-adv-x="872" 
d="M715 1434l137 -543h-246l-53 237l-139 -237h-258l329 543h230z" />
    <glyph glyph-name="underscore" unicode="_" horiz-adv-x="1177" 
d="M956 -457h-1075l37 213h1075z" />
    <glyph glyph-name="grave" unicode="`" horiz-adv-x="600" 
d="M633 1159h-203l-186 275h291z" />
    <glyph glyph-name="a" unicode="a" horiz-adv-x="1120" 
d="M606 1055q242 0 359.5 -137.5t76.5 -368.5l-98 -549h-244l31 172q-149 -203 -395 -203q-154 0 -241 74.5t-87 200.5q0 114 72.5 198t191 125t267.5 41q119 0 229 -28l2 6q3 28 5 59t-8 62.5t-27.5 56.5t-54.5 41t-87 16q-83 0 -126 -40.5t-38 -104.5h-274
q-13 118 44.5 205.5t162 130.5t239.5 43zM412 176q102 0 191.5 60t144.5 161q-79 27 -181 27q-126 0 -204 -40t-78 -114q0 -94 127 -94z" />
    <glyph glyph-name="b" unicode="b" horiz-adv-x="1257" 
d="M805 1055q184 0 294.5 -124t110.5 -331q0 -126 -41 -241t-112.5 -201.5t-175 -137.5t-222.5 -51q-126 0 -213.5 57.5t-130.5 163.5l-32 -190h-279l254 1434h279l-95 -551q149 172 363 172zM596 207q96 0 173 53t117 136t40 177q0 113 -63.5 178.5t-168.5 65.5
q-97 0 -173.5 -53t-116 -135.5t-39.5 -175.5q0 -114 62 -180t169 -66z" />
    <glyph glyph-name="c" unicode="c" horiz-adv-x="1183" 
d="M520 -31q-218 0 -345.5 122t-127.5 339q0 128 46 242.5t127.5 199t200.5 134t257 49.5q125 0 225 -40t156.5 -112t66.5 -171t-45 -216h-274q57 134 16.5 217.5t-166.5 83.5q-76 0 -139 -33t-102 -86.5t-60.5 -119t-21.5 -134.5q0 -114 55 -175.5t150 -61.5q82 0 148.5 43
t109.5 115h305q-74 -185 -226.5 -290.5t-355.5 -105.5z" />
    <glyph glyph-name="d" unicode="d" horiz-adv-x="1243" 
d="M932 862l100 572h279l-254 -1434h-279l21 123q-144 -154 -348 -154q-183 0 -294.5 125t-111.5 332q0 125 42.5 240.5t116 201t178 136.5t222.5 51q116 0 199.5 -50t128.5 -143zM565 207q142 0 235 110t93 256q0 114 -61.5 179t-167.5 65q-144 0 -238 -109t-94 -253
q0 -114 63 -181t170 -67z" />
    <glyph glyph-name="e" unicode="e" horiz-adv-x="1175" 
d="M551 207q80 0 140.5 34t96.5 91h306q-75 -171 -223 -267t-339 -96q-226 0 -355.5 128t-129.5 345q0 171 78.5 310.5t221 221t321.5 81.5q113 0 205.5 -33.5t151 -93t87 -136t17.5 -169t-62 -185.5h-735q5 -111 61.5 -171t157.5 -60zM649 834q-109 0 -185 -63.5
t-110 -166.5h467q33 100 -13.5 165t-158.5 65z" />
    <glyph glyph-name="f" unicode="f" horiz-adv-x="897" 
d="M983 1120h-242q47 123 -30 123q-87 0 -111 -145l-12 -74h373l-41 -236h-375l-139 -788h-279l139 788h-217l39 236h221l17 94q29 168 131.5 257t269.5 89q180 0 248 -96.5t8 -247.5z" />
    <glyph glyph-name="g" unicode="g" horiz-adv-x="1128" 
d="M1008 1151h188q3 -98 -43.5 -198t-122.5 -160q12 -47 12 -95q0 -148 -97.5 -270.5t-264.5 -208.5q126 -27 198 -101.5t72 -185.5q0 -108 -69.5 -193.5t-189 -132t-267.5 -46.5q-220 0 -346 104t-123 273h281q0 -70 53.5 -105t144.5 -35q108 0 173 41t65 107
q0 59 -57.5 92t-172.5 33q-130 0 -288 -43l26 170q239 28 402 131q-68 -11 -113 -11q-175 0 -280 89t-105 239q0 123 72.5 218t190 143.5t259.5 48.5q240 0 357 -133q59 95 45 229zM369 647q0 -61 45 -94t123 -33q98 0 159.5 48t61.5 118q0 61 -47 96t-125 35
q-97 0 -157 -49.5t-60 -120.5z" />
    <glyph glyph-name="h" unicode="h" horiz-adv-x="1132" 
d="M788 1055q173 0 243.5 -118.5t31.5 -330.5l-107 -606h-278l110 627q19 98 -9.5 149t-100.5 51q-107 0 -194 -94.5t-113 -240.5l-88 -492h-279l254 1434h279l-101 -582q57 97 148 150t204 53z" />
    <glyph glyph-name="i" unicode="i" horiz-adv-x="489" 
d="M377 1153q-66 0 -109 42.5t-43 107.5q0 73 50.5 123.5t125.5 50.5q65 0 106.5 -42t41.5 -106q0 -74 -50 -125t-122 -51zM293 0h-279l181 1024h278z" />
    <glyph glyph-name="j" unicode="j" horiz-adv-x="616" 
d="M502 1153q-66 0 -109 42.5t-43 107.5q0 73 51 123.5t125 50.5q65 0 106.5 -42t41.5 -106q0 -74 -50 -125t-122 -51zM31 -440q-114 0 -197 51l39 221q53 -35 123 -35q36 0 62.5 14.5t41.5 41t22.5 50.5t12.5 56l187 1065h278l-190 -1083q-21 -118 -50 -181
q-92 -200 -329 -200z" />
    <glyph glyph-name="k" unicode="k" horiz-adv-x="1185" 
d="M844 393q98 -65 154 -169.5t53 -223.5h-320q-2 126 -64.5 211t-174.5 108l24 166q121 0 210 62.5t89 154.5q0 55 -36.5 85t-100.5 30q-114 0 -197.5 -89t-109.5 -236l-88 -492h-279l254 1434h279l-101 -584q58 98 152 151.5t211 53.5q148 0 229.5 -79.5t81.5 -213.5
q0 -125 -71.5 -220.5t-194.5 -148.5z" />
    <glyph glyph-name="l" unicode="l" horiz-adv-x="491" 
d="M293 0h-279l254 1434h279z" />
    <glyph glyph-name="m" unicode="m" horiz-adv-x="1763" 
d="M1425 1055q166 0 237 -120t34 -329l-107 -606h-278l110 627q15 92 -13.5 142t-98.5 50q-98 0 -177 -90.5t-104 -228.5l-88 -500h-278l110 627q17 97 -10.5 148.5t-97.5 51.5q-99 0 -183 -93t-110 -238l-88 -496h-279l180 1024h279l-31 -184q56 98 151.5 156.5t204.5 58.5
q110 0 185.5 -58.5t97.5 -154.5q56 101 148 157t206 56z" />
    <glyph glyph-name="n" unicode="n" horiz-adv-x="1132" 
d="M795 1055q62 0 110.5 -16.5t79.5 -43.5t51.5 -65.5t29.5 -79t10.5 -88t-2 -88.5t-11.5 -84l-107 -590h-278l108 608q8 46 8.5 82t-9 68.5t-37 50.5t-72.5 18q-107 0 -193 -94t-112 -241l-88 -492h-279l180 1024h279l-29 -180q56 100 150 155.5t211 55.5z" />
    <glyph glyph-name="o" unicode="o" horiz-adv-x="1196" 
d="M518 -31q-220 0 -346.5 123t-126.5 338q0 172 81.5 315t227.5 226.5t326 83.5q216 0 342.5 -122t126.5 -337q0 -171 -79.5 -314t-225 -228t-326.5 -85zM545 207q93 0 167 55t112 140t38 180q0 112 -56 173.5t-155 61.5q-139 0 -229 -112.5t-90 -260.5q0 -112 56.5 -174.5
t156.5 -62.5z" />
    <glyph glyph-name="p" unicode="p" horiz-adv-x="1257" 
d="M805 1055q184 0 294.5 -124t110.5 -331q0 -126 -41 -241t-112.5 -201.5t-175 -137.5t-222.5 -51q-126 0 -214.5 58.5t-131.5 165.5l-102 -603h-279l252 1434h279l-23 -143q148 174 365 174zM596 207q94 0 171 53t118 136.5t41 176.5q0 113 -63.5 178.5t-168.5 65.5
q-97 0 -173.5 -53t-116 -135.5t-39.5 -175.5q0 -114 62 -180t169 -66z" />
    <glyph glyph-name="q" unicode="q" horiz-adv-x="1257" 
d="M944 838l29 186h278l-252 -1434h-278l96 553q-151 -174 -366 -174q-183 0 -294.5 125t-111.5 332q0 125 42.5 240.5t116 201t178 136.5t222.5 51q124 0 211 -57t129 -160zM565 207q142 0 235 110t93 256q0 114 -61.5 179t-167.5 65q-144 0 -238 -109t-94 -253
q0 -114 63 -181t170 -67z" />
    <glyph glyph-name="r" unicode="r" horiz-adv-x="993" 
d="M750 1055q118 0 186 -74.5t68 -198.5q0 -82 -29 -160t-78 -137h-287q32 51 50.5 84t36.5 79.5t18 80.5q0 43 -23.5 65.5t-66.5 22.5q-88 0 -158.5 -90t-95.5 -231l-88 -496h-279l180 1024h279l-29 -168q54 95 136.5 147t179.5 52z" />
    <glyph glyph-name="s" unicode="s" horiz-adv-x="1069" 
d="M457 -31q-230 0 -347 107t-83 274h266q-17 -81 33.5 -122.5t150.5 -41.5q93 0 151 34t58 83q0 29 -25 50t-66 32.5t-93.5 23.5t-107.5 23t-107.5 32t-93.5 49.5t-66 77t-25 111.5q0 111 68.5 192.5t179 121t246.5 39.5q146 0 250.5 -47t147 -136.5t3.5 -205.5h-270
q29 81 -13.5 125.5t-138.5 44.5q-87 0 -136.5 -32t-49.5 -79q0 -34 32.5 -57t84.5 -36t114.5 -25t125 -31t114.5 -46.5t84.5 -79t32.5 -122.5q0 -112 -74.5 -195.5t-191 -123.5t-254.5 -40z" />
    <glyph glyph-name="t" unicode="t" horiz-adv-x="851" 
d="M856 788h-297l-82 -466q-22 -115 92 -115q69 0 162 57l-29 -248q-70 -45 -194 -45q-72 0 -127.5 16.5t-89 42t-55 62.5t-30 71t-10 74.5t1 67t7.5 53.5l76 430h-205l41 236h205l49 281h278l-49 -281h295z" />
    <glyph glyph-name="u" unicode="u" horiz-adv-x="1124" 
d="M756 528l86 496h278l-180 -1024h-278l26 160q-66 -88 -156.5 -135.5t-193.5 -47.5q-77 0 -132.5 27t-86 71.5t-44.5 108t-12.5 131t15.5 144.5l96 565h279l-101 -588q-7 -38 -9 -68t2 -62t16.5 -53.5t38 -35.5t63.5 -14q101 0 184 89.5t109 235.5z" />
    <glyph glyph-name="v" unicode="v" horiz-adv-x="1085" 
d="M483 236l381 788h305l-540 -1024h-353l-180 1024h293z" />
    <glyph glyph-name="w" unicode="w" horiz-adv-x="1671" 
d="M1112 242l334 782h299l-481 -1024h-351l-47 698l-291 -698h-350l-119 1024h293l52 -803l325 803h295z" />
    <glyph glyph-name="x" unicode="x" horiz-adv-x="1122" 
d="M838 1024h321l-424 -494l277 -530h-310l-165 346l-287 -346h-320l476 541l-244 483h295l139 -301z" />
    <glyph glyph-name="y" unicode="y" horiz-adv-x="1081" 
d="M512 276l354 748h297l-581 -1135q-81 -159 -197 -244t-283 -85q-90 0 -180 32l23 230q77 -27 133 -27q148 0 256 152l-234 1077h291z" />
    <glyph glyph-name="z" unicode="z" horiz-adv-x="1040" 
d="M207 1024h850l-21 -133l-680 -688h578l-37 -203h-903l33 203l600 602h-459z" />
    <glyph glyph-name="braceleft" unicode="{" horiz-adv-x="864" 
d="M356 -293q-147 0 -205.5 69t-31.5 218q8 45 40.5 158t41.5 170q14 88 -9 127.5t-106 39.5l41 224q138 0 178 200q7 38 16.5 157t18.5 177q26 133 95.5 191.5t217.5 58.5q113 0 199 -22l-25 -240q-52 16 -102 16q-107 0 -127 -129q-5 -28 -12 -130.5t-17 -155.5
q-10 -60 -30.5 -104t-51 -70.5t-54.5 -40t-60 -27.5q14 -6 24 -12t25 -17.5t25 -25t20 -35t14.5 -47t4 -61t-8.5 -77.5q-8 -49 -36 -148t-35 -134q-8 -45 4 -64.5t63 -19.5q65 0 115 22l-27 -249q-101 -19 -205 -19z" />
    <glyph glyph-name="bar" unicode="|" horiz-adv-x="716" 
d="M293 -492h-221l389 2212h221z" />
    <glyph glyph-name="braceright" unicode="}" horiz-adv-x="864" 
d="M526 1497q147 0 206 -69t32 -218q-8 -45 -40.5 -157.5t-41.5 -169.5q-15 -88 8.5 -128t106.5 -40l-41 -223q-138 0 -178 -201q-6 -35 -16 -154.5t-21 -179.5q-24 -133 -93.5 -191.5t-218.5 -58.5q-108 0 -198 23l24 239q52 -16 101 -16q109 0 129 129q4 24 11 128t17 159
q10 60 31 104t51.5 70.5t54.5 39.5t60 27q-14 6 -24 12t-25 17.5t-25.5 25t-21 35t-15 47t-4 61t7.5 77.5q8 48 37.5 146t36.5 136q8 45 -4 64.5t-63 19.5q-66 0 -115 -22l27 250q95 18 204 18z" />
    <glyph glyph-name="asciitilde" unicode="~" horiz-adv-x="1406" 
d="M354 350h-204q-5 150 90.5 248t251.5 98q61 0 119 -18.5t96 -40.5t90.5 -40.5t103.5 -18.5q71 0 115 32t45 84h207q-14 -163 -93 -246t-235 -83q-69 0 -133 18.5t-104.5 40.5t-92 40.5t-98.5 18.5q-77 0 -120 -41t-38 -92z" />
    <glyph glyph-name="exclamdown" unicode="&#xa1;" horiz-adv-x="573" 
d="M362 1047q69 0 113.5 -46.5t44.5 -115.5q0 -78 -53.5 -128t-128.5 -50q-70 0 -114 45t-44 114q0 77 53.5 129t128.5 52zM195 563h200l-116 -973h-310z" />
    <glyph glyph-name="cent" unicode="&#xa2;" horiz-adv-x="1177" 
d="M735 985l-106 -600q125 26 198 150h306q-73 -176 -214.5 -280t-330.5 -114l-66 -366h-106l65 370q-188 19 -295.5 138.5t-107.5 318.5q0 165 73.5 304t209.5 224.5t309 94.5l63 354h107l-64 -358q148 -14 247 -85.5t125 -185.5t-38 -262h-272q50 120 22.5 201t-125.5 96z
M362 616q0 -99 42.5 -159t117.5 -74l107 600q-124 -24 -195.5 -130.5t-71.5 -236.5z" />
    <glyph glyph-name="sterling" unicode="&#xa3;" horiz-adv-x="1282" 
d="M721 295q64 -45 122.5 -69.5t133.5 -24.5q86 0 160 28l-25 -233q-67 -25 -160 -25q-201 0 -348 125q-128 -125 -325 -125q-140 0 -219.5 64.5t-79.5 169.5q0 120 101 195t247 75q85 0 166 -31q-3 67 -29 138h-272l20 114h203q-29 57 -45 94.5t-30.5 98t-14.5 119.5
q0 202 143 329t365 127q178 0 280.5 -85.5t102.5 -225.5q0 -80 -32 -162t-85 -145h-277q117 159 117 264q0 109 -115 109q-89 0 -144.5 -68t-55.5 -174q0 -23 3.5 -49t6.5 -43.5t12.5 -49.5t13.5 -43.5t17 -49.5t16 -46h361l-21 -114h-307q14 -72 14 -133q0 -87 -20 -154z
M283 158q96 0 157 88q-56 43 -114 43q-46 0 -79.5 -23.5t-33.5 -58.5q0 -49 70 -49z" />
    <glyph glyph-name="currency" unicode="&#xa4;" horiz-adv-x="1171" 
d="M1038 737q0 -140 -90 -268l123 -141l-188 -168l-129 147q-95 -45 -197 -45q-107 0 -192 51l-181 -155l-149 172l182 159q-24 65 -24 140q0 140 90 268l-123 143l190 168l131 -149q92 45 193 45q105 0 192 -49l181 155l149 -172l-182 -159q24 -65 24 -142zM397 647
q0 -76 51 -126t130 -50q100 0 178 77t78 173q0 75 -52.5 124.5t-130.5 49.5q-100 0 -177 -75.5t-77 -172.5z" />
    <glyph glyph-name="yen" unicode="&#xa5;" horiz-adv-x="1390" 
d="M1212 1366h316l-590 -717h256l-18 -108h-326l-6 -6l-23 -132h332l-20 -106h-332l-51 -297h-281l51 297h-338l21 106h338l22 138h-338l21 108h272l-346 717h305l256 -586z" />
    <glyph glyph-name="brokenbar" unicode="&#xa6;" horiz-adv-x="716" 
d="M514 760h-223l170 960h221zM293 -492h-221l168 961h223z" />
    <glyph glyph-name="section" unicode="&#xa7;" horiz-adv-x="1150" 
d="M559 1124q0 -35 29.5 -58.5t76.5 -36.5t104 -25t114.5 -30t104.5 -44.5t76.5 -75t29.5 -115.5q0 -90 -50 -158t-139 -102q51 -61 51 -149q0 -108 -66 -191t-175.5 -125.5t-243.5 -42.5q-145 0 -243.5 53t-136 138.5t-15.5 189.5h256q-16 -74 28 -112.5t127 -38.5
q77 0 130 30t53 76q0 32 -29.5 55t-77 37.5t-104.5 28.5t-114.5 35t-105 50t-77 79.5t-29.5 118.5q0 89 48 155.5t132 102.5q-41 57 -41 137q0 105 63.5 188t166.5 126.5t225 43.5q134 0 229 -52t130 -141.5t1 -195.5h-256q28 84 -4.5 123t-105.5 39t-117.5 -33t-44.5 -80z
M424 735q0 -19 7.5 -34.5t23.5 -27.5t33.5 -21t45.5 -17.5t50.5 -14.5t57.5 -14.5t58 -15.5q46 16 74.5 44t28.5 64q0 22 -12 39.5t-30 29t-49 23t-57 18.5t-67 18.5t-68 19.5q-45 -17 -70.5 -47t-25.5 -64z" />
    <glyph glyph-name="dieresis" unicode="&#xa8;" horiz-adv-x="858" 
d="M356 1153q-60 0 -97.5 38t-37.5 97q0 65 45 110.5t111 45.5q60 0 97.5 -38.5t37.5 -98.5q0 -67 -45.5 -110.5t-110.5 -43.5zM758 1153q-60 0 -97.5 38t-37.5 97q0 65 45.5 110.5t111.5 45.5q60 0 96.5 -38.5t36.5 -98.5q0 -67 -44.5 -110.5t-110.5 -43.5z" />
    <glyph glyph-name="copyright" unicode="&#xa9;" horiz-adv-x="1794" 
d="M809 -102q-203 0 -359 86.5t-240.5 239t-84.5 345.5q0 177 73.5 342t197 286.5t293 194t353.5 72.5q201 0 358 -85.5t243 -237t86 -344.5q0 -178 -74 -344t-198 -287.5t-294 -194.5t-354 -73zM817 59q153 0 291 59.5t236.5 159.5t156.5 234t58 279q0 233 -142.5 372.5
t-384.5 139.5q-154 0 -292 -60t-235 -159.5t-153.5 -233.5t-56.5 -277q0 -231 141 -372.5t381 -141.5zM887 197q-192 0 -312 119t-120 311q0 112 43 213.5t117 175.5t178 118t221 44q140 0 238.5 -58t134.5 -158t-1 -219h-215q33 128 -15 194.5t-161 66.5q-154 0 -245 -110
t-91 -263q0 -124 63 -193t177 -69q105 0 180.5 58.5t106.5 162.5h194q-39 -180 -174.5 -286.5t-318.5 -106.5z" />
    <glyph glyph-name="ordfeminine" unicode="&#xaa;" horiz-adv-x="860" 
d="M573 1464q178 0 259 -98.5t51 -269.5l-76 -432h-203l23 124q-114 -151 -297 -151q-113 0 -174.5 56t-61.5 149q0 87 56.5 151.5t146.5 95.5t201 31q84 0 159 -16q27 170 -104 170q-53 0 -88.5 -25.5t-36.5 -74.5h-221q-4 89 45 156t132.5 100.5t188.5 33.5zM406 807
q68 0 129.5 38t101.5 105q-61 19 -137 19q-78 0 -128 -25t-50 -76q0 -61 84 -61z" />
    <glyph glyph-name="guillemotleft" unicode="&#xab;" horiz-adv-x="1214" 
d="M569 162h-284q-51 169 -199 407q182 179 330 375h301q-118 -177 -348 -407q55 -79 111.5 -186t88.5 -189zM1067 162h-285q-54 170 -198 407q184 181 327 375h301q-115 -172 -346 -407q56 -80 112.5 -186.5t88.5 -188.5z" />
    <glyph glyph-name="logicalnot" unicode="&#xac;" horiz-adv-x="1406" 
d="M1155 342h-254l51 289h-708l39 227h962z" />
    <glyph glyph-name="uni00AD" unicode="&#xad;" horiz-adv-x="854" 
d="M672 410h-525l46 264h526z" />
    <glyph glyph-name="registered" unicode="&#xae;" horiz-adv-x="1185" 
d="M735 1456q194 0 315 -117t121 -301q0 -148 -76.5 -275.5t-206 -202.5t-278.5 -75q-191 0 -311.5 119.5t-120.5 304.5q0 111 44 212t118.5 174.5t177.5 117t217 43.5zM616 586q125 0 229 63t162 166.5t58 220.5q0 147 -92.5 232.5t-239.5 85.5q-127 0 -231 -62
t-161.5 -164t-57.5 -219q0 -147 91.5 -235t241.5 -88zM506 1251h231q36 0 67 -6.5t59 -21t44.5 -43t16.5 -68.5q0 -124 -144 -154q61 -23 82.5 -82t7.5 -167h-116q15 123 -1 162.5t-75 39.5h-111l-37 -202h-118zM584 1001h108q49 0 81 23t32 68q0 63 -84 63h-111z" />
    <glyph glyph-name="macron" unicode="&#xaf;" horiz-adv-x="843" 
d="M879 1178h-680l34 198h682z" />
    <glyph glyph-name="degree" unicode="&#xb0;" horiz-adv-x="772" 
d="M465 846q-125 0 -202 78t-77 200q0 145 103.5 244.5t249.5 99.5q123 0 198.5 -76.5t75.5 -197.5q0 -145 -101.5 -246.5t-246.5 -101.5zM477 1030q65 0 109.5 43.5t44.5 106.5q0 48 -28.5 75t-80.5 27q-65 0 -109 -42t-44 -103q0 -51 29 -79t79 -28z" />
    <glyph glyph-name="plusminus" unicode="&#xb1;" horiz-adv-x="1406" 
d="M950 1257l-43 -264h420l-37 -211h-426l-49 -303h-229l51 303h-422l37 211h426l45 264h227zM1163 100h-1073l39 211h1071z" />
    <glyph glyph-name="uni00B2" unicode="&#xb2;" horiz-adv-x="800" 
d="M879 1325q0 -244 -344 -369h299l-31 -178h-684l31 170q49 15 77.5 24t75.5 25.5t76 29t69 31t64.5 36t52 40.5t43 46.5t25.5 52t10 59.5q0 101 -88 101q-59 0 -93 -47.5t-34 -110.5q0 -30 16 -80h-206q-15 37 -15 92q0 102 52 179t136.5 115t186.5 38q133 0 207 -69
t74 -185z" />
    <glyph glyph-name="uni00B3" unicode="&#xb3;" horiz-adv-x="761" 
d="M694 1178q109 -56 109 -170q0 -118 -110.5 -189t-264.5 -71q-174 0 -254 94.5t-37 236.5h211q-26 -65 1 -104t97 -39q60 0 99 29t39 75q0 34 -24.5 55t-72.5 21h-71l26 135h56q45 0 80.5 23.5t35.5 62.5q0 29 -23.5 46.5t-64.5 17.5q-56 0 -84.5 -28.5t-25.5 -67.5h-209
q12 133 106 203.5t246 70.5q135 0 212 -53.5t77 -157.5q0 -139 -154 -190z" />
    <glyph glyph-name="acute" unicode="&#xb4;" horiz-adv-x="614" 
d="M414 1159h-217l194 275h303z" />
    <glyph glyph-name="uni00B5" unicode="&#xb5;" horiz-adv-x="1128" 
d="M758 528l86 496h278l-180 -1024h-278l26 160q-67 -87 -158.5 -135t-185.5 -48q-17 0 -67 5l-68 -392h-279l252 1434h279l-109 -627q-17 -94 15 -144t102 -50q98 0 179.5 89.5t107.5 235.5z" />
    <glyph glyph-name="paragraph" unicode="&#xb6;" horiz-adv-x="1435" 
d="M702 -252h-274l143 764q-169 0 -281 118.5t-112 291.5q0 141 78.5 259.5t208.5 185.5t278 67h697l-297 -1686h-277l254 1432h-164z" />
    <glyph glyph-name="periodcentered" unicode="&#xb7;" horiz-adv-x="475" 
d="M229 356q-69 0 -113 46.5t-44 117.5q0 76 54 126t128 50q70 0 114 -44t44 -113q0 -78 -54 -130.5t-129 -52.5z" />
    <glyph glyph-name="cedilla" unicode="&#xb8;" horiz-adv-x="714" 
d="M295 -72q93 -7 148 -54t55 -118q0 -92 -87.5 -144t-209.5 -52q-144 0 -209 68.5t-35 154.5h176q-13 -46 9 -70t69 -24q48 0 78 23.5t30 62.5q0 67 -102 67q-54 0 -102 -20l-45 100q66 20 107 56.5t50 80.5l135 -2q-14 -82 -67 -129z" />
    <glyph glyph-name="uni00B9" unicode="&#xb9;" horiz-adv-x="653" 
d="M483 1550h238l-137 -772h-230l86 486q-130 -137 -313 -148l41 223q89 7 184 74t131 137z" />
    <glyph glyph-name="ordmasculine" unicode="&#xba;" horiz-adv-x="892" 
d="M479 637q-164 0 -260 94t-96 254q0 201 136.5 340t340.5 139q165 0 261.5 -95t96.5 -255q0 -200 -136 -338.5t-343 -138.5zM502 829q96 0 158.5 83.5t62.5 189.5q0 78 -37.5 123t-105.5 45q-65 0 -117 -41.5t-78.5 -103t-26.5 -128.5q0 -78 38.5 -123t105.5 -45z" />
    <glyph glyph-name="guillemotright" unicode="&#xbb;" horiz-adv-x="1202" 
d="M150 944h284q53 -166 199 -407q-188 -185 -328 -375h-301q115 172 346 407q-55 79 -111.5 186t-88.5 189zM647 944h285q50 -167 196 -407q-184 -181 -327 -375h-301q118 177 348 407q-56 80 -112.5 186.5t-88.5 188.5z" />
    <glyph glyph-name="onequarter" unicode="&#xbc;" horiz-adv-x="1730" 
d="M322 594l86 485q-129 -136 -314 -147l41 223q89 7 184.5 74t131.5 137h237l-137 -772h-229zM313 0l832 1366h233l-829 -1366h-236zM1610 772l-74 -420h152l-33 -178h-152l-30 -174h-230l33 174h-412l23 166q140 92 248.5 194.5t205.5 237.5h269zM1137 352h170l34 201
q-94 -119 -204 -201z" />
    <glyph glyph-name="onehalf" unicode="&#xbd;" horiz-adv-x="1759" 
d="M322 594l86 485q-129 -136 -314 -147l41 223q89 7 184.5 74t131.5 137h237l-137 -772h-229zM313 0l832 1366h233l-829 -1366h-236zM1700 547q0 -244 -344 -369h299l-31 -178h-684l31 170q49 15 77.5 24t75.5 25.5t76 29t69 31t64.5 36t52 40.5t43 46.5t25.5 52t10 59.5
q0 100 -88 100q-60 0 -93.5 -47t-33.5 -110q0 -27 17 -80h-207q-15 37 -15 92q0 102 52 179t136.5 115t186.5 38q133 0 207 -69t74 -185z" />
    <glyph glyph-name="threequarters" unicode="&#xbe;" horiz-adv-x="1814" 
d="M770 823q0 -118 -110.5 -189t-264.5 -71q-174 0 -254 95t-37 237h211q-26 -65 1.5 -104t97.5 -39q60 0 98.5 29t38.5 75q0 34 -24.5 55t-71.5 21h-72l27 135h55q45 0 81 23.5t36 62.5q0 29 -23.5 46.5t-64.5 17.5q-56 0 -85 -29t-26 -68h-209q12 134 106.5 204.5
t245.5 70.5q135 0 212 -53.5t77 -157.5q0 -141 -153 -191q108 -56 108 -170zM397 0l832 1366h233l-829 -1366h-236zM1694 772l-74 -420h152l-33 -178h-152l-31 -174h-229l33 174h-412l23 166q140 92 248.5 194.5t205.5 237.5h269zM1221 352h170l34 201q-94 -119 -204 -201z
" />
    <glyph glyph-name="questiondown" unicode="&#xbf;" horiz-adv-x="1067" 
d="M608 1047q61 0 100.5 -41t39.5 -103q0 -68 -47.5 -111.5t-112.5 -43.5q-62 0 -100.5 39t-38.5 100q0 66 46 113t113 47zM520 659q176 0 277.5 -69t101.5 -191q0 -69 -34.5 -123.5t-90 -89t-122 -62.5t-133.5 -50.5t-122.5 -46t-90 -56.5t-34.5 -75q0 -43 31 -71t92 -28
q80 0 137.5 47.5t57.5 126.5q0 22 -8 58h276q14 -54 14 -95q0 -157 -134.5 -265.5t-348.5 -108.5q-189 0 -297 88t-108 231q0 75 33 136t85 101.5t115.5 73t127 56t115.5 44.5t85 45.5t33 51.5q0 47 -78 47q-72 0 -162 -27.5t-152 -62.5l31 254q46 26 129.5 43.5t173.5 17.5
z" />
    <glyph glyph-name="Agrave" unicode="&#xc0;" horiz-adv-x="1505" 
d="M975 1749l102 -242h-205l-188 242h291zM1397 0h-295l-58 283h-641l-155 -283h-320l809 1434h355zM874 1137l-339 -617h462z" />
    <glyph glyph-name="Aacute" unicode="&#xc1;" horiz-adv-x="1505" 
d="M973 1749h301l-275 -242h-217zM1397 0h-295l-58 283h-641l-155 -283h-320l809 1434h355zM874 1137l-339 -617h462z" />
    <glyph glyph-name="Acircumflex" unicode="&#xc2;" horiz-adv-x="1505" 
d="M1057 1507l-103 125l-147 -125h-262l274 242h295l191 -242h-248zM1397 0h-295l-58 283h-641l-155 -283h-320l809 1434h355zM874 1137l-339 -617h462z" />
    <glyph glyph-name="Atilde" unicode="&#xc3;" horiz-adv-x="1505" 
d="M770 1524h-166q-21 118 35 180.5t158 62.5q57 0 108 -21.5t91 -43t69 -21.5q34 0 52.5 22t12.5 58h166q13 -115 -42.5 -181.5t-163.5 -66.5q-58 0 -107 21.5t-87 43t-69 21.5q-34 0 -49.5 -22t-7.5 -53zM1397 0h-295l-58 283h-641l-155 -283h-320l809 1434h355zM874 1137
l-339 -617h462z" />
    <glyph glyph-name="Adieresis" unicode="&#xc4;" horiz-adv-x="1505" 
d="M702 1511q-60 0 -97.5 37.5t-37.5 96.5q0 66 46 110.5t112 44.5q60 0 96.5 -38.5t36.5 -98.5q0 -66 -45 -109t-111 -43zM1155 1511q-60 0 -97.5 37.5t-37.5 96.5q0 66 45 110.5t111 44.5q60 0 97.5 -38.5t37.5 -98.5q0 -66 -45 -109t-111 -43zM1397 0h-295l-58 283h-641
l-155 -283h-320l809 1434h355zM874 1137l-339 -617h462z" />
    <glyph glyph-name="Aring" unicode="&#xc5;" horiz-adv-x="1505" 
d="M942 1466q-85 0 -141.5 48t-57.5 128q-1 89 63.5 149t160.5 60q86 0 145 -51t59 -131q0 -91 -67.5 -147t-161.5 -56zM963 1716q-33 0 -51.5 -19t-18.5 -46q0 -52 57 -52q32 0 51 19t19 47q0 51 -57 51zM1397 0h-295l-58 283h-641l-155 -283h-320l809 1434h355zM874 1137
l-339 -617h462z" />
    <glyph glyph-name="AE" unicode="&#xc6;" horiz-adv-x="2191" 
d="M2243 1434l-41 -236h-727l-56 -324h617l-43 -237h-615l-69 -401h743l-43 -236h-1040l49 283h-522l-209 -283h-359l1078 1434h215l2 -4v4h1020zM1184 1217l-508 -691h387z" />
    <glyph glyph-name="Ccedilla" unicode="&#xc7;" horiz-adv-x="1609" 
d="M807 215q152 0 260.5 90.5t153.5 222.5h311q-79 -257 -279 -405.5t-465 -153.5q-16 -26 -34 -41q93 -7 147.5 -54t54.5 -118q0 -92 -87.5 -144t-209.5 -52q-144 0 -208.5 68.5t-34.5 154.5h176q-13 -46 9 -70t69 -24q48 0 78 23.5t30 62.5q0 67 -102 67q-55 0 -103 -20
l-45 100q64 20 109 58q-239 41 -371.5 213.5t-132.5 429.5q0 177 66 333.5t179 267.5t269 175.5t330 64.5q104 0 195.5 -23t162 -64t121 -99.5t76 -128t24.5 -152t-32 -168.5h-303q59 176 -24.5 283t-252.5 107q-91 0 -172.5 -33.5t-142 -91t-105 -132.5t-67.5 -161
t-23 -174q0 -189 104 -300.5t269 -111.5z" />
    <glyph glyph-name="Egrave" unicode="&#xc8;" horiz-adv-x="1288" 
d="M901 1749l103 -242h-205l-189 242h291zM1339 1434l-41 -236h-727l-55 -324h617l-43 -237h-615l-69 -401h743l-43 -236h-1040l253 1434h1020z" />
    <glyph glyph-name="Eacute" unicode="&#xc9;" horiz-adv-x="1288" 
d="M899 1749h301l-274 -242h-217zM1339 1434l-41 -236h-727l-55 -324h617l-43 -237h-615l-69 -401h743l-43 -236h-1040l253 1434h1020z" />
    <glyph glyph-name="Ecircumflex" unicode="&#xca;" horiz-adv-x="1288" 
d="M983 1507l-102 125l-148 -125h-262l274 242h295l191 -242h-248zM1339 1434l-41 -236h-727l-55 -324h617l-43 -237h-615l-69 -401h743l-43 -236h-1040l253 1434h1020z" />
    <glyph glyph-name="Edieresis" unicode="&#xcb;" horiz-adv-x="1288" 
d="M629 1511q-60 0 -97.5 37.5t-37.5 96.5q0 66 45.5 110.5t111.5 44.5q60 0 96.5 -38.5t36.5 -98.5q0 -67 -44.5 -109.5t-110.5 -42.5zM1081 1511q-60 0 -97.5 37.5t-37.5 96.5q0 66 45 110.5t111 44.5q60 0 97.5 -38.5t37.5 -98.5q0 -66 -45 -109t-111 -43zM1339 1434
l-41 -236h-727l-55 -324h617l-43 -237h-615l-69 -401h743l-43 -236h-1040l253 1434h1020z" />
    <glyph glyph-name="Igrave" unicode="&#xcc;" horiz-adv-x="610" 
d="M629 1507h-205l-188 242h290zM362 0h-296l253 1434h297z" />
    <glyph glyph-name="Iacute" unicode="&#xcd;" horiz-adv-x="610" 
d="M553 1507h-217l190 242h301zM362 0h-296l253 1434h297z" />
    <glyph glyph-name="Icircumflex" unicode="&#xce;" horiz-adv-x="610" 
d="M610 1507l-102 125l-148 -125h-262l275 242h295l190 -242h-248zM362 0h-296l253 1434h297z" />
    <glyph glyph-name="Idieresis" unicode="&#xcf;" horiz-adv-x="610" 
d="M303 1511q-60 0 -97.5 37.5t-37.5 96.5q0 66 46 110.5t112 44.5q60 0 96.5 -38.5t36.5 -98.5q0 -66 -45 -109t-111 -43zM659 1511q-60 0 -98.5 37.5t-38.5 96.5q0 66 46 110.5t112 44.5q60 0 96.5 -38.5t36.5 -98.5q0 -67 -44.5 -109.5t-109.5 -42.5zM362 0h-296
l253 1434h297z" />
    <glyph glyph-name="Eth" unicode="&#xd0;" horiz-adv-x="1562" 
d="M360 1434h564q276 0 438 -168.5t162 -450.5q0 -171 -62.5 -321.5t-172 -259t-266 -171.5t-335.5 -63h-582l107 606h-137l39 219h137zM449 244h276q144 0 259.5 77t177 203t61.5 275q0 176 -90.5 283.5t-249.5 107.5h-271l-63 -365h305l-39 -219h-303z" />
    <glyph glyph-name="Ntilde" unicode="&#xd1;" horiz-adv-x="1564" 
d="M801 1524h-166q-21 118 34.5 180.5t157.5 62.5q57 0 108.5 -21.5t91.5 -43t69 -21.5q34 0 52.5 22t12.5 58h166q13 -115 -43 -181.5t-164 -66.5q-46 0 -87 13.5t-65.5 29.5t-54.5 29.5t-55 13.5q-34 0 -49.5 -22t-7.5 -53zM1081 350l193 1084h295l-254 -1434h-406
l-350 1118l-197 -1118h-296l253 1434h424z" />
    <glyph glyph-name="Ograve" unicode="&#xd2;" horiz-adv-x="1656" 
d="M1153 1507h-205l-188 242h291zM760 -31q-286 0 -458.5 174t-172.5 461q0 172 65 330t176 274.5t268 186t333 69.5q285 0 456.5 -172.5t171.5 -462.5q0 -170 -64 -327.5t-174 -275t-267 -187.5t-334 -70zM780 215q113 0 211.5 52.5t164.5 138.5t104 195.5t38 223.5
q0 184 -94 289t-256 105q-150 0 -270.5 -89.5t-184 -228.5t-63.5 -293q0 -186 94 -289.5t256 -103.5z" />
    <glyph glyph-name="Oacute" unicode="&#xd3;" horiz-adv-x="1656" 
d="M1077 1507h-217l191 242h301zM760 -31q-286 0 -458.5 174t-172.5 461q0 172 65 330t176 274.5t268 186t333 69.5q285 0 456.5 -172.5t171.5 -462.5q0 -170 -64 -327.5t-174 -275t-267 -187.5t-334 -70zM780 215q113 0 211.5 52.5t164.5 138.5t104 195.5t38 223.5
q0 184 -94 289t-256 105q-150 0 -270.5 -89.5t-184 -228.5t-63.5 -293q0 -186 94 -289.5t256 -103.5z" />
    <glyph glyph-name="Ocircumflex" unicode="&#xd4;" horiz-adv-x="1656" 
d="M1135 1507l-103 125l-147 -125h-262l274 242h295l190 -242h-247zM971 1464q285 0 456.5 -172.5t171.5 -462.5q0 -170 -64 -327.5t-174 -275t-267 -187.5t-334 -70q-286 0 -458.5 174t-172.5 461q0 172 65 330t176 274.5t268 186t333 69.5zM780 215q113 0 211.5 52.5
t164.5 138.5t104 195.5t38 223.5q0 184 -94 289t-256 105q-150 0 -270.5 -89.5t-184 -228.5t-63.5 -293q0 -186 94 -289.5t256 -103.5z" />
    <glyph glyph-name="Otilde" unicode="&#xd5;" horiz-adv-x="1656" 
d="M846 1524h-166q-21 118 34.5 180.5t157.5 62.5q57 0 108.5 -21.5t91.5 -43t69 -21.5q34 0 52.5 22t12.5 58h166q13 -115 -43 -181.5t-164 -66.5q-46 0 -87 13.5t-65.5 29.5t-54.5 29.5t-55 13.5q-34 0 -49.5 -22t-7.5 -53zM760 -31q-286 0 -458.5 174t-172.5 461
q0 172 65 330t176 274.5t268 186t333 69.5q285 0 456.5 -172.5t171.5 -462.5q0 -170 -64 -327.5t-174 -275t-267 -187.5t-334 -70zM780 215q113 0 211.5 52.5t164.5 138.5t104 195.5t38 223.5q0 184 -94 289t-256 105q-150 0 -270.5 -89.5t-184 -228.5t-63.5 -293
q0 -186 94 -289.5t256 -103.5z" />
    <glyph glyph-name="Odieresis" unicode="&#xd6;" horiz-adv-x="1656" 
d="M780 1511q-60 0 -97.5 37.5t-37.5 96.5q0 66 46 110.5t112 44.5q60 0 96.5 -38.5t36.5 -98.5q0 -66 -45 -109t-111 -43zM1233 1511q-60 0 -97.5 37.5t-37.5 96.5q0 66 44.5 110.5t110.5 44.5q60 0 98 -38.5t38 -98.5q0 -66 -45 -109t-111 -43zM760 -31q-286 0 -458.5 174
t-172.5 461q0 172 65 330t176 274.5t268 186t333 69.5q285 0 456.5 -172.5t171.5 -462.5q0 -170 -64 -327.5t-174 -275t-267 -187.5t-334 -70zM780 215q113 0 211.5 52.5t164.5 138.5t104 195.5t38 223.5q0 184 -94 289t-256 105q-150 0 -270.5 -89.5t-184 -228.5
t-63.5 -293q0 -186 94 -289.5t256 -103.5z" />
    <glyph glyph-name="multiply" unicode="&#xd7;" horiz-adv-x="1406" 
d="M1161 1159l146 -170l-410 -350l293 -354l-197 -170l-295 354l-413 -354l-148 170l418 356l-289 348l199 170l289 -348z" />
    <glyph glyph-name="Oslash" unicode="&#xd8;" horiz-adv-x="1656" 
d="M1556 1399l-116 -121q159 -170 159 -449q0 -170 -64 -327.5t-174 -275t-267 -187.5t-334 -70q-262 0 -432 150l-133 -139l-66 57l137 143q-137 170 -137 424q0 172 65 330t176 274.5t268 186t333 69.5q241 0 403 -125l113 117zM430 608q0 -126 43 -211l709 740
q-91 82 -234 82q-150 0 -270.5 -89.5t-184 -228.5t-63.5 -293zM780 215q113 0 211.5 52.5t164.5 138.5t104 195.5t38 223.5q0 147 -59 242l-717 -745q93 -107 258 -107z" />
    <glyph glyph-name="Ugrave" unicode="&#xd9;" horiz-adv-x="1509" 
d="M1079 1507h-205l-188 242h291zM686 -29q-303 0 -445 180.5t-87 495.5l139 787h295l-137 -783q-37 -212 32 -321t228 -109q319 0 399 451l135 762h295l-143 -807q-56 -315 -240 -485.5t-471 -170.5z" />
    <glyph glyph-name="Uacute" unicode="&#xda;" horiz-adv-x="1509" 
d="M1004 1507h-218l191 242h301zM686 -29q-303 0 -445 180.5t-87 495.5l139 787h295l-137 -783q-37 -212 32 -321t228 -109q319 0 399 451l135 762h295l-143 -807q-56 -315 -240 -485.5t-471 -170.5z" />
    <glyph glyph-name="Ucircumflex" unicode="&#xdb;" horiz-adv-x="1509" 
d="M1061 1507l-103 125l-147 -125h-262l274 242h295l191 -242h-248zM1110 672l135 762h295l-143 -807q-56 -315 -240 -485.5t-471 -170.5q-303 0 -445 180.5t-87 495.5l139 787h295l-137 -783q-37 -212 32 -321t228 -109q319 0 399 451z" />
    <glyph glyph-name="Udieresis" unicode="&#xdc;" horiz-adv-x="1509" 
d="M705 1511q-60 0 -98 37.5t-38 96.5q0 66 46 110.5t112 44.5q60 0 96.5 -38.5t36.5 -98.5q0 -67 -44.5 -109.5t-110.5 -42.5zM1157 1511q-60 0 -97.5 37.5t-37.5 96.5q0 66 45 110.5t111 44.5q60 0 97.5 -38.5t37.5 -98.5q0 -66 -45 -109t-111 -43zM686 -29
q-303 0 -445 180.5t-87 495.5l139 787h295l-137 -783q-37 -212 32 -321t228 -109q319 0 399 451l135 762h295l-143 -807q-56 -315 -240 -485.5t-471 -170.5z" />
    <glyph glyph-name="Yacute" unicode="&#xdd;" horiz-adv-x="1458" 
d="M946 1749h301l-274 -242h-217zM1272 1434h332l-717 -875l-101 -559h-294l102 580l-414 854h322l268 -613z" />
    <glyph glyph-name="Thorn" unicode="&#xde;" horiz-adv-x="1447" 
d="M571 1182h361q215 0 333.5 -108.5t118.5 -303.5q0 -232 -162.5 -364t-433.5 -132h-376l-50 -274h-296l253 1434h297zM455 518h368q121 0 189.5 66t68.5 174q0 87 -48 133.5t-144 46.5h-361z" />
    <glyph glyph-name="germandbls" unicode="&#xdf;" horiz-adv-x="1341" 
d="M952 770q147 -46 231.5 -143t84.5 -238q0 -183 -136 -301.5t-339 -118.5q-196 0 -287 114.5t-25 297.5h209q-28 -96 5 -144.5t112 -48.5q94 0 148.5 63.5t54.5 154.5q0 118 -104.5 172.5t-321.5 54.5l43 227q146 0 233.5 51t87.5 158q0 150 -186 150q-53 0 -97.5 -13.5
t-75.5 -34t-56.5 -53.5t-41 -63t-28.5 -73t-19.5 -72.5t-13.5 -71.5l-139 -838h-279l144 858q11 62 24.5 116t38.5 117t57 114t81 100.5t108.5 82.5t141.5 53.5t179 20.5q216 0 333.5 -93.5t117.5 -254.5q0 -129 -76 -216t-209 -128z" />
    <glyph glyph-name="agrave" unicode="&#xe0;" horiz-adv-x="1120" 
d="M770 1434l98 -275h-202l-187 275h291zM606 1055q242 0 359.5 -137.5t76.5 -368.5l-98 -549h-244l31 172q-149 -203 -395 -203q-154 0 -241 74.5t-87 200.5q0 114 72.5 198t191 125t267.5 41q119 0 229 -28l2 6q3 28 5 59t-8 62.5t-27.5 56.5t-54.5 41t-87 16
q-83 0 -126 -40.5t-38 -104.5h-274q-13 118 44.5 205.5t162 130.5t239.5 43zM412 176q102 0 191.5 60t144.5 161q-79 27 -181 27q-126 0 -204 -40t-78 -114q0 -94 127 -94z" />
    <glyph glyph-name="aacute" unicode="&#xe1;" horiz-adv-x="1120" 
d="M717 1434h303l-281 -275h-217zM606 1055q242 0 359.5 -137.5t76.5 -368.5l-98 -549h-244l31 172q-149 -203 -395 -203q-154 0 -241 74.5t-87 200.5q0 114 72.5 198t191 125t267.5 41q119 0 229 -28l2 6q3 28 5 59t-8 62.5t-27.5 56.5t-54.5 41t-87 16q-83 0 -126 -40.5
t-38 -104.5h-274q-13 118 44.5 205.5t162 130.5t239.5 43zM412 176q102 0 191.5 60t144.5 161q-79 27 -181 27q-126 0 -204 -40t-78 -114q0 -94 127 -94z" />
    <glyph glyph-name="acircumflex" unicode="&#xe2;" horiz-adv-x="1120" 
d="M784 1159l-73 125l-119 -125h-264l264 275h274l168 -275h-250zM606 1055q242 0 359.5 -137.5t76.5 -368.5l-98 -549h-244l31 172q-149 -203 -395 -203q-154 0 -241 74.5t-87 200.5q0 114 72.5 198t191 125t267.5 41q119 0 229 -28l2 6q3 28 5 59t-8 62.5t-27.5 56.5
t-54.5 41t-87 16q-83 0 -126 -40.5t-38 -104.5h-274q-13 118 44.5 205.5t162 130.5t239.5 43zM412 176q102 0 191.5 60t144.5 161q-79 27 -181 27q-126 0 -204 -40t-78 -114q0 -94 127 -94z" />
    <glyph glyph-name="atilde" unicode="&#xe3;" horiz-adv-x="1120" 
d="M537 1161h-177q-15 120 43 191t164 71q54 0 102.5 -21t85.5 -42t64 -21q35 0 53 25.5t13 58.5h180q17 -120 -46 -192t-177 -72q-43 0 -81 12.5t-60 27.5t-49 27.5t-50 12.5q-37 0 -54.5 -25t-10.5 -53zM606 1055q242 0 359.5 -137.5t76.5 -368.5l-98 -549h-244l31 172
q-149 -203 -395 -203q-154 0 -241 74.5t-87 200.5q0 114 72.5 198t191 125t267.5 41q119 0 229 -28l2 6q3 28 5 59t-8 62.5t-27.5 56.5t-54.5 41t-87 16q-83 0 -126 -40.5t-38 -104.5h-274q-13 118 44.5 205.5t162 130.5t239.5 43zM412 176q102 0 191.5 60t144.5 161
q-79 27 -181 27q-126 0 -204 -40t-78 -114q0 -94 127 -94z" />
    <glyph glyph-name="adieresis" unicode="&#xe4;" horiz-adv-x="1120" 
d="M498 1153q-60 0 -98 38t-38 97q0 65 45 110.5t111 45.5q60 0 97.5 -38.5t37.5 -98.5q0 -67 -45 -110.5t-110 -43.5zM899 1153q-60 0 -97.5 38t-37.5 97q0 65 46 110.5t112 45.5q60 0 96.5 -38.5t36.5 -98.5q0 -67 -44.5 -110.5t-111.5 -43.5zM606 1055
q242 0 359.5 -137.5t76.5 -368.5l-98 -549h-244l31 172q-149 -203 -395 -203q-154 0 -241 74.5t-87 200.5q0 114 72.5 198t191 125t267.5 41q119 0 229 -28l2 6q3 28 5 59t-8 62.5t-27.5 56.5t-54.5 41t-87 16q-83 0 -126 -40.5t-38 -104.5h-274q-13 118 44.5 205.5
t162 130.5t239.5 43zM412 176q102 0 191.5 60t144.5 161q-79 27 -181 27q-126 0 -204 -40t-78 -114q0 -94 127 -94z" />
    <glyph glyph-name="aring" unicode="&#xe5;" horiz-adv-x="1120" 
d="M705 1139q-88 0 -145.5 52.5t-57.5 133.5q0 88 66.5 146.5t160.5 58.5q87 0 144 -53.5t57 -133.5q0 -88 -65.5 -146t-159.5 -58zM723 1395q-29 0 -49.5 -19.5t-20.5 -48.5q0 -25 15 -39t43 -14q31 0 51 18t20 47q0 26 -16 41t-43 15zM606 1055q242 0 359.5 -137.5
t76.5 -368.5l-98 -549h-244l31 172q-149 -203 -395 -203q-154 0 -241 74.5t-87 200.5q0 114 72.5 198t191 125t267.5 41q119 0 229 -28l2 6q3 28 5 59t-8 62.5t-27.5 56.5t-54.5 41t-87 16q-83 0 -126 -40.5t-38 -104.5h-274q-13 118 44.5 205.5t162 130.5t239.5 43z
M412 176q102 0 191.5 60t144.5 161q-79 27 -181 27q-126 0 -204 -40t-78 -114q0 -94 127 -94z" />
    <glyph glyph-name="ae" unicode="&#xe6;" horiz-adv-x="1855" 
d="M1241 207q79 0 138.5 34t93.5 91h301q-74 -171 -218.5 -267t-332.5 -96q-149 0 -256.5 59.5t-163.5 168.5q-174 -228 -457 -228q-163 0 -250.5 74t-87.5 201q0 114 72.5 198t191 125t267.5 41q109 0 217 -24v2q3 28 5 59t-8.5 62.5t-28.5 56.5t-55 41t-87 16
q-82 0 -125.5 -40.5t-38.5 -104.5h-275q-13 112 43 199.5t159.5 133.5t234.5 46q248 0 356 -160q170 160 420 160q111 0 202 -33.5t148.5 -93t85.5 -136t17 -169t-60 -185.5h-723q5 -111 60.5 -171t154.5 -60zM1337 834q-107 0 -181 -63.5t-107 -166.5h458q31 100 -14.5 165
t-155.5 65zM412 176q102 0 191.5 60t144.5 161q-79 27 -181 27q-126 0 -204 -40t-78 -114q0 -94 127 -94z" />
    <glyph glyph-name="ccedilla" unicode="&#xe7;" horiz-adv-x="1183" 
d="M539 207q82 0 148.5 43t109.5 115h305q-71 -177 -214 -282t-333 -114q-13 -20 -37 -41q93 -7 148 -54t55 -118q0 -92 -87.5 -144t-209.5 -52q-144 0 -209 68.5t-35 154.5h176q-13 -46 9 -70t69 -24q48 0 78.5 23.5t30.5 62.5q0 67 -103 67q-54 0 -102 -20l-45 100
q68 21 108 58q-166 31 -260 148t-94 302q0 128 46 242.5t127.5 199t200.5 134t257 49.5q125 0 225 -40t156.5 -112t66.5 -171t-45 -216h-274q57 134 16.5 217.5t-166.5 83.5q-76 0 -139 -33t-102 -86.5t-60.5 -119t-21.5 -134.5q0 -114 55 -175.5t150 -61.5z" />
    <glyph glyph-name="egrave" unicode="&#xe8;" horiz-adv-x="1175" 
d="M793 1434l98 -275h-203l-186 275h291zM551 207q80 0 140.5 34t96.5 91h306q-75 -171 -223 -267t-339 -96q-226 0 -355.5 128t-129.5 345q0 171 78.5 310.5t221 221t321.5 81.5q113 0 205.5 -33.5t151 -93t87 -136t17.5 -169t-62 -185.5h-735q5 -111 61.5 -171t157.5 -60z
M649 834q-109 0 -185 -63.5t-110 -166.5h467q33 100 -13.5 165t-158.5 65z" />
    <glyph glyph-name="eacute" unicode="&#xe9;" horiz-adv-x="1175" 
d="M741 1434h303l-280 -275h-217zM551 207q80 0 140.5 34t96.5 91h306q-75 -171 -223 -267t-339 -96q-226 0 -355.5 128t-129.5 345q0 171 78.5 310.5t221 221t321.5 81.5q113 0 205.5 -33.5t151 -93t87 -136t17.5 -169t-62 -185.5h-735q5 -111 61.5 -171t157.5 -60z
M649 834q-109 0 -185 -63.5t-110 -166.5h467q33 100 -13.5 165t-158.5 65z" />
    <glyph glyph-name="ecircumflex" unicode="&#xea;" horiz-adv-x="1175" 
d="M809 1159l-74 125l-119 -125h-264l264 275h275l168 -275h-250zM551 207q80 0 140.5 34t96.5 91h306q-75 -171 -223 -267t-339 -96q-226 0 -355.5 128t-129.5 345q0 171 78.5 310.5t221 221t321.5 81.5q113 0 205.5 -33.5t151 -93t87 -136t17.5 -169t-62 -185.5h-735
q5 -111 61.5 -171t157.5 -60zM649 834q-109 0 -185 -63.5t-110 -166.5h467q33 100 -13.5 165t-158.5 65z" />
    <glyph glyph-name="edieresis" unicode="&#xeb;" horiz-adv-x="1175" 
d="M522 1153q-60 0 -97.5 38t-37.5 97q0 65 45 110.5t111 45.5q60 0 97.5 -38.5t37.5 -98.5q0 -67 -45.5 -110.5t-110.5 -43.5zM924 1153q-60 0 -98 38t-38 97q0 65 46 110.5t112 45.5q60 0 96.5 -38.5t36.5 -98.5q0 -67 -44.5 -110.5t-110.5 -43.5zM551 207q80 0 140.5 34
t96.5 91h306q-75 -171 -223 -267t-339 -96q-226 0 -355.5 128t-129.5 345q0 171 78.5 310.5t221 221t321.5 81.5q113 0 205.5 -33.5t151 -93t87 -136t17.5 -169t-62 -185.5h-735q5 -111 61.5 -171t157.5 -60zM649 834q-109 0 -185 -63.5t-110 -166.5h467q33 100 -13.5 165
t-158.5 65z" />
    <glyph glyph-name="igrave" unicode="&#xec;" horiz-adv-x="489" 
d="M543 1159h-203l-186 275h290zM293 0h-279l181 1024h278z" />
    <glyph glyph-name="iacute" unicode="&#xed;" horiz-adv-x="489" 
d="M416 1159h-217l194 275h303zM293 0h-279l181 1024h278z" />
    <glyph glyph-name="icircumflex" unicode="&#xee;" horiz-adv-x="489" 
d="M461 1159l-74 125l-119 -125h-264l264 275h275l168 -275h-250zM293 0h-279l181 1024h278z" />
    <glyph glyph-name="idieresis" unicode="&#xef;" horiz-adv-x="489" 
d="M182 1153q-60 0 -97.5 38t-37.5 97q0 65 45 110.5t111 45.5q60 0 96.5 -38.5t36.5 -98.5q0 -67 -44.5 -110.5t-109.5 -43.5zM537 1153q-60 0 -98 38t-38 97q0 65 45 110.5t111 45.5q60 0 96.5 -38.5t36.5 -98.5q0 -67 -44 -110.5t-109 -43.5zM293 0h-279l181 1024h278z
" />
    <glyph glyph-name="eth" unicode="&#xf0;" horiz-adv-x="1185" 
d="M1122 1280l-184 -66q213 -248 213 -544q0 -190 -78 -349t-226 -255.5t-337 -96.5q-216 0 -342.5 122.5t-126.5 322.5q0 152 73 278.5t199.5 199.5t278.5 73q228 0 317 -162q-21 185 -149 348l-340 -121l-47 135l280 99q-97 91 -221 170h266q75 -56 131 -109l250 88z
M543 197q88 0 160 49t110.5 125t38.5 159q0 101 -59.5 160.5t-159.5 59.5q-132 0 -218.5 -96t-86.5 -228q0 -105 58 -167t157 -62z" />
    <glyph glyph-name="ntilde" unicode="&#xf1;" horiz-adv-x="1132" 
d="M528 1161h-176q-15 120 43 191t164 71q54 0 102.5 -21t85.5 -42t64 -21q35 0 53 25.5t13 58.5h180q17 -120 -46 -192t-177 -72q-43 0 -81 12.5t-60 27.5t-49 27.5t-50 12.5q-37 0 -55 -25t-11 -53zM795 1055q62 0 110.5 -16.5t79.5 -43.5t51.5 -65.5t29.5 -79t10.5 -88
t-2 -88.5t-11.5 -84l-107 -590h-278l108 608q8 46 8.5 82t-9 68.5t-37 50.5t-72.5 18q-107 0 -193 -94t-112 -241l-88 -492h-279l180 1024h279l-29 -180q56 100 150 155.5t211 55.5z" />
    <glyph glyph-name="ograve" unicode="&#xf2;" horiz-adv-x="1196" 
d="M893 1159h-203l-186 275h291zM518 -31q-220 0 -346.5 123t-126.5 338q0 172 81.5 315t227.5 226.5t326 83.5q216 0 342.5 -122t126.5 -337q0 -171 -79.5 -314t-225 -228t-326.5 -85zM545 207q93 0 167 55t112 140t38 180q0 112 -56 173.5t-155 61.5q-139 0 -229 -112.5
t-90 -260.5q0 -112 56.5 -174.5t156.5 -62.5z" />
    <glyph glyph-name="oacute" unicode="&#xf3;" horiz-adv-x="1196" 
d="M766 1159h-217l194 275h304zM518 -31q-220 0 -346.5 123t-126.5 338q0 172 81.5 315t227.5 226.5t326 83.5q216 0 342.5 -122t126.5 -337q0 -171 -79.5 -314t-225 -228t-326.5 -85zM545 207q93 0 167 55t112 140t38 180q0 112 -56 173.5t-155 61.5q-139 0 -229 -112.5
t-90 -260.5q0 -112 56.5 -174.5t156.5 -62.5z" />
    <glyph glyph-name="ocircumflex" unicode="&#xf4;" horiz-adv-x="1196" 
d="M811 1159l-74 125l-119 -125h-264l264 275h275l168 -275h-250zM680 1055q216 0 342.5 -122t126.5 -337q0 -171 -79.5 -314t-225 -228t-326.5 -85q-220 0 -346.5 123t-126.5 338q0 172 81.5 315t227.5 226.5t326 83.5zM545 207q93 0 167 55t112 140t38 180
q0 112 -56 173.5t-155 61.5q-139 0 -229 -112.5t-90 -260.5q0 -112 56.5 -174.5t156.5 -62.5z" />
    <glyph glyph-name="otilde" unicode="&#xf5;" horiz-adv-x="1196" 
d="M561 1161h-176q-15 120 43 191t164 71q54 0 102.5 -21t85.5 -42t64 -21q35 0 52.5 25.5t12.5 58.5h181q17 -120 -46.5 -192t-177.5 -72q-43 0 -80.5 12.5t-59.5 27.5t-49 27.5t-50 12.5q-37 0 -55 -25t-11 -53zM518 -31q-220 0 -346.5 123t-126.5 338q0 172 81.5 315
t227.5 226.5t326 83.5q216 0 342.5 -122t126.5 -337q0 -171 -79.5 -314t-225 -228t-326.5 -85zM545 207q93 0 167 55t112 140t38 180q0 112 -56 173.5t-155 61.5q-139 0 -229 -112.5t-90 -260.5q0 -112 56.5 -174.5t156.5 -62.5z" />
    <glyph glyph-name="odieresis" unicode="&#xf6;" horiz-adv-x="1196" 
d="M524 1153q-60 0 -97.5 38t-37.5 97q0 65 45 110.5t111 45.5q60 0 97.5 -38.5t37.5 -98.5q0 -67 -45.5 -110.5t-110.5 -43.5zM926 1153q-60 0 -97.5 38t-37.5 97q0 65 45.5 110.5t111.5 45.5q60 0 96.5 -38.5t36.5 -98.5q0 -67 -44.5 -110.5t-110.5 -43.5zM518 -31
q-220 0 -346.5 123t-126.5 338q0 172 81.5 315t227.5 226.5t326 83.5q216 0 342.5 -122t126.5 -337q0 -171 -79.5 -314t-225 -228t-326.5 -85zM545 207q93 0 167 55t112 140t38 180q0 112 -56 173.5t-155 61.5q-139 0 -229 -112.5t-90 -260.5q0 -112 56.5 -174.5
t156.5 -62.5z" />
    <glyph glyph-name="divide" unicode="&#xf7;" horiz-adv-x="1406" 
d="M795 926q-66 0 -109 44.5t-43 110.5q0 73 51 120.5t123 47.5q67 0 108.5 -42t41.5 -107q0 -74 -51 -124t-121 -50zM1247 539h-1079l37 211h1079zM639 45q-66 0 -109 44t-43 110q0 73 52 120.5t125 47.5q65 0 106 -42.5t41 -107.5q0 -74 -50 -123t-122 -49z" />
    <glyph glyph-name="oslash" unicode="&#xf8;" horiz-adv-x="1196" 
d="M1112 987l-72 -74q109 -121 109 -317q0 -171 -79.5 -314t-225 -228t-326.5 -85q-180 0 -299 84l-69 -73l-68 57l72 74q-109 125 -109 319q0 172 81.5 315t227.5 226.5t326 83.5q175 0 293 -82l69 71zM332 444q0 -68 22 -120l430 450q-49 43 -133 43q-139 0 -229 -112.5
t-90 -260.5zM545 207q93 0 167 55t112 140t38 180q0 65 -22 120l-432 -452q52 -43 137 -43z" />
    <glyph glyph-name="ugrave" unicode="&#xf9;" horiz-adv-x="1124" 
d="M756 1434l98 -275h-203l-186 275h291zM756 528l86 496h278l-180 -1024h-278l26 160q-66 -88 -156.5 -135.5t-193.5 -47.5q-77 0 -132.5 27t-86 71.5t-44.5 108t-12.5 131t15.5 144.5l96 565h279l-101 -588q-7 -38 -9 -68t2 -62t16.5 -53.5t38 -35.5t63.5 -14
q101 0 184 89.5t109 235.5z" />
    <glyph glyph-name="uacute" unicode="&#xfa;" horiz-adv-x="1124" 
d="M702 1434h304l-281 -275h-217zM756 528l86 496h278l-180 -1024h-278l26 160q-66 -88 -156.5 -135.5t-193.5 -47.5q-77 0 -132.5 27t-86 71.5t-44.5 108t-12.5 131t15.5 144.5l96 565h279l-101 -588q-7 -38 -9 -68t2 -62t16.5 -53.5t38 -35.5t63.5 -14q101 0 184 89.5
t109 235.5z" />
    <glyph glyph-name="ucircumflex" unicode="&#xfb;" horiz-adv-x="1124" 
d="M772 1159l-74 125l-118 -125h-265l265 275h274l168 -275h-250zM756 528l86 496h278l-180 -1024h-278l26 160q-66 -88 -156.5 -135.5t-193.5 -47.5q-77 0 -132.5 27t-86 71.5t-44.5 108t-12.5 131t15.5 144.5l96 565h279l-101 -588q-7 -38 -9 -68t2 -62t16.5 -53.5
t38 -35.5t63.5 -14q101 0 184 89.5t109 235.5z" />
    <glyph glyph-name="udieresis" unicode="&#xfc;" horiz-adv-x="1124" 
d="M485 1153q-60 0 -97.5 38t-37.5 97q0 65 45 110.5t111 45.5q60 0 97.5 -38.5t37.5 -98.5q0 -67 -45.5 -110.5t-110.5 -43.5zM887 1153q-60 0 -97.5 38t-37.5 97q0 65 45.5 110.5t111.5 45.5q60 0 96.5 -38.5t36.5 -98.5q0 -67 -44.5 -110.5t-110.5 -43.5zM756 528l86 496
h278l-180 -1024h-278l26 160q-66 -88 -156.5 -135.5t-193.5 -47.5q-77 0 -132.5 27t-86 71.5t-44.5 108t-12.5 131t15.5 144.5l96 565h279l-101 -588q-7 -38 -9 -68t2 -62t16.5 -53.5t38 -35.5t63.5 -14q101 0 184 89.5t109 235.5z" />
    <glyph glyph-name="yacute" unicode="&#xfd;" horiz-adv-x="1081" 
d="M684 1434h303l-280 -275h-218zM512 276l354 748h297l-581 -1135q-81 -159 -197 -244t-283 -85q-90 0 -180 32l23 230q77 -27 133 -27q148 0 256 152l-234 1077h291z" />
    <glyph glyph-name="thorn" unicode="&#xfe;" horiz-adv-x="1257" 
d="M805 1055q184 0 294.5 -124t110.5 -331q0 -126 -41 -241t-112.5 -201.5t-175 -137.5t-222.5 -51q-126 0 -213.5 57.5t-130.5 163.5l-104 -600h-279l326 1844h279l-95 -551q149 172 363 172zM596 207q96 0 173 53t117 136t40 177q0 113 -63.5 178.5t-168.5 65.5
q-97 0 -173.5 -53t-116 -135.5t-39.5 -175.5q0 -114 62 -180t169 -66z" />
    <glyph glyph-name="ydieresis" unicode="&#xff;" horiz-adv-x="1081" 
d="M465 1153q-60 0 -97.5 38t-37.5 97q0 65 44.5 110.5t110.5 45.5q60 0 98 -38.5t38 -98.5q0 -67 -45.5 -110.5t-110.5 -43.5zM866 1153q-60 0 -97.5 38t-37.5 97q0 65 46 110.5t112 45.5q60 0 96.5 -38.5t36.5 -98.5q0 -67 -44.5 -110.5t-111.5 -43.5zM512 276l354 748
h297l-581 -1135q-81 -159 -197 -244t-283 -85q-90 0 -180 32l23 230q77 -27 133 -27q148 0 256 152l-234 1077h291z" />
    <glyph glyph-name="Amacron" unicode="&#x100;" horiz-adv-x="1505" 
d="M606 1718h719l-35 -186h-717zM1397 0h-295l-58 283h-641l-155 -283h-320l809 1434h355zM874 1137l-339 -617h462z" />
    <glyph glyph-name="amacron" unicode="&#x101;" horiz-adv-x="1120" 
d="M385 1376h682l-37 -198h-680zM606 1055q242 0 359.5 -137.5t76.5 -368.5l-98 -549h-244l31 172q-149 -203 -395 -203q-154 0 -241 74.5t-87 200.5q0 114 72.5 198t191 125t267.5 41q119 0 229 -28l2 6q3 28 5 59t-8 62.5t-27.5 56.5t-54.5 41t-87 16q-83 0 -126 -40.5
t-38 -104.5h-274q-13 118 44.5 205.5t162 130.5t239.5 43zM412 176q102 0 191.5 60t144.5 161q-79 27 -181 27q-126 0 -204 -40t-78 -114q0 -94 127 -94z" />
    <glyph glyph-name="Abreve" unicode="&#x102;" horiz-adv-x="1505" 
d="M938 1503q-142 0 -219.5 66.5t-56.5 179.5h196q-6 -36 19.5 -59t76.5 -23t84.5 22.5t44.5 59.5h201q-20 -115 -113.5 -180.5t-232.5 -65.5zM1397 0h-295l-58 283h-641l-155 -283h-320l809 1434h355zM874 1137l-339 -617h462z" />
    <glyph glyph-name="abreve" unicode="&#x103;" horiz-adv-x="1120" 
d="M700 1130q-155 0 -243.5 87t-77.5 217h215q-5 -59 27 -90t96 -31q123 0 153 121h220q-24 -140 -132.5 -222t-257.5 -82zM606 1055q242 0 359.5 -137.5t76.5 -368.5l-98 -549h-244l31 172q-149 -203 -395 -203q-154 0 -241 74.5t-87 200.5q0 114 72.5 198t191 125
t267.5 41q119 0 229 -28l2 6q3 28 5 59t-8 62.5t-27.5 56.5t-54.5 41t-87 16q-83 0 -126 -40.5t-38 -104.5h-274q-13 118 44.5 205.5t162 130.5t239.5 43zM412 176q102 0 191.5 60t144.5 161q-79 27 -181 27q-126 0 -204 -40t-78 -114q0 -94 127 -94z" />
    <glyph glyph-name="Aogonek" unicode="&#x104;" horiz-adv-x="1505" 
d="M1257 0v-2q-104 -20 -175.5 -60.5t-71.5 -87.5q0 -45 71 -45q52 0 121 21l-28 -246q-62 -20 -152 -20q-136 0 -206.5 47.5t-70.5 124.5q0 91 95.5 170t255.5 127l-52 254h-641l-155 -283h-320l809 1434h355l305 -1434h-140zM874 1137l-339 -617h462z" />
    <glyph glyph-name="aogonek" unicode="&#x105;" horiz-adv-x="1120" 
d="M606 1055q242 0 359.5 -137.5t76.5 -368.5l-98 -549h-24v-2q-104 -20 -176 -60.5t-72 -87.5q0 -45 71 -45q52 0 121 21l-28 -246q-62 -20 -152 -20q-136 0 -206 47.5t-70 124.5q0 83 79 155.5t215 120.5l29 164q-149 -203 -395 -203q-154 0 -241 74.5t-87 200.5
q0 114 72.5 198t191 125t267.5 41q119 0 229 -28l2 6q3 28 5 59t-8 62.5t-27.5 56.5t-54.5 41t-87 16q-83 0 -126 -40.5t-38 -104.5h-274q-13 118 44.5 205.5t162 130.5t239.5 43zM412 176q102 0 191.5 60t144.5 161q-79 27 -181 27q-126 0 -204 -40t-78 -114q0 -94 127 -94
z" />
    <glyph glyph-name="Cacute" unicode="&#x106;" horiz-adv-x="1609" 
d="M1061 1507h-217l190 242h301zM774 -31q-199 0 -345.5 84t-221 231t-74.5 339q0 177 66 333.5t179 267.5t269 175.5t330 64.5q104 0 195.5 -23t162 -64t121 -99.5t76 -128t24.5 -152t-32 -168.5h-303q59 176 -24.5 283t-252.5 107q-91 0 -172.5 -33.5t-142 -91
t-105 -132.5t-67.5 -161t-23 -174q0 -189 104 -300.5t269 -111.5q152 0 260.5 90.5t153.5 222.5h311q-81 -261 -285 -410t-473 -149z" />
    <glyph glyph-name="cacute" unicode="&#x107;" horiz-adv-x="1183" 
d="M766 1159h-217l194 275h304zM520 -31q-218 0 -345.5 122t-127.5 339q0 128 46 242.5t127.5 199t200.5 134t257 49.5q125 0 225 -40t156.5 -112t66.5 -171t-45 -216h-274q57 134 16.5 217.5t-166.5 83.5q-76 0 -139 -33t-102 -86.5t-60.5 -119t-21.5 -134.5
q0 -114 55 -175.5t150 -61.5q82 0 148.5 43t109.5 115h305q-74 -185 -226.5 -290.5t-355.5 -105.5z" />
    <glyph glyph-name="Cdotaccent" unicode="&#x10a;" horiz-adv-x="1609" 
d="M987 1511q-66 0 -107.5 41.5t-41.5 106.5q0 73 50.5 124.5t123.5 51.5q65 0 107 -42.5t42 -106.5q0 -72 -50.5 -123.5t-123.5 -51.5zM774 -31q-199 0 -345.5 84t-221 231t-74.5 339q0 177 66 333.5t179 267.5t269 175.5t330 64.5q104 0 195.5 -23t162 -64t121 -99.5
t76 -128t24.5 -152t-32 -168.5h-303q59 176 -24.5 283t-252.5 107q-91 0 -172.5 -33.5t-142 -91t-105 -132.5t-67.5 -161t-23 -174q0 -189 104 -300.5t269 -111.5q152 0 260.5 90.5t153.5 222.5h311q-81 -261 -285 -410t-473 -149z" />
    <glyph glyph-name="cdotaccent" unicode="&#x10b;" horiz-adv-x="1183" 
d="M729 1153q-66 0 -108.5 42.5t-42.5 107.5q0 73 51 123.5t125 50.5q65 0 106 -42t41 -106q0 -74 -50 -125t-122 -51zM520 -31q-218 0 -345.5 122t-127.5 339q0 128 46 242.5t127.5 199t200.5 134t257 49.5q125 0 225 -40t156.5 -112t66.5 -171t-45 -216h-274
q57 134 16.5 217.5t-166.5 83.5q-76 0 -139 -33t-102 -86.5t-60.5 -119t-21.5 -134.5q0 -114 55 -175.5t150 -61.5q82 0 148.5 43t109.5 115h305q-74 -185 -226.5 -290.5t-355.5 -105.5z" />
    <glyph glyph-name="Ccaron" unicode="&#x10c;" horiz-adv-x="1609" 
d="M1417 1749l-284 -242h-277l-203 242h254l103 -117l141 117h266zM807 215q152 0 260.5 90.5t153.5 222.5h311q-81 -261 -285 -410t-473 -149q-199 0 -345.5 84t-221 231t-74.5 339q0 177 66 333.5t179 267.5t269 175.5t330 64.5q104 0 195.5 -23t162 -64t121 -99.5
t76 -128t24.5 -152t-32 -168.5h-303q59 176 -24.5 283t-252.5 107q-91 0 -172.5 -33.5t-142 -91t-105 -132.5t-67.5 -161t-23 -174q0 -189 104 -300.5t269 -111.5z" />
    <glyph glyph-name="ccaron" unicode="&#x10d;" horiz-adv-x="1183" 
d="M1118 1434l-264 -275h-276l-166 275h250l73 -121l119 121h264zM539 207q82 0 148.5 43t109.5 115h305q-74 -185 -226.5 -290.5t-355.5 -105.5q-218 0 -345.5 122t-127.5 339q0 128 46 242.5t127.5 199t200.5 134t257 49.5q125 0 225 -40t156.5 -112t66.5 -171t-45 -216
h-274q57 134 16.5 217.5t-166.5 83.5q-76 0 -139 -33t-102 -86.5t-60.5 -119t-21.5 -134.5q0 -114 55 -175.5t150 -61.5z" />
    <glyph glyph-name="Dcaron" unicode="&#x10e;" horiz-adv-x="1521" 
d="M1366 1749l-285 -242h-276l-203 242h254l102 -117l142 117h266zM319 1434h564q276 0 438 -168.5t162 -450.5q0 -171 -62.5 -321.5t-172 -259t-266 -171.5t-335.5 -63h-581zM408 244h276q144 0 259.5 77t177 203t61.5 275q0 176 -90.5 283.5t-249.5 107.5h-271z" />
    <glyph glyph-name="dcaron" unicode="&#x10f;" horiz-adv-x="1243" 
d="M932 862l100 572h279l-254 -1434h-279l21 123q-144 -154 -348 -154q-183 0 -294.5 125t-111.5 332q0 125 42.5 240.5t116 201t178 136.5t222.5 51q116 0 199.5 -50t128.5 -143zM1305 1077l81 357h230l-139 -357h-172zM565 207q142 0 235 110t93 256q0 114 -61.5 179
t-167.5 65q-144 0 -238 -109t-94 -253q0 -114 63 -181t170 -67z" />
    <glyph glyph-name="Dcroat" unicode="&#x110;" horiz-adv-x="1562" 
d="M360 1434h564q276 0 438 -168.5t162 -450.5q0 -171 -62.5 -321.5t-172 -259t-266 -171.5t-335.5 -63h-582l107 606h-137l39 219h137zM449 244h276q144 0 259.5 77t177 203t61.5 275q0 176 -90.5 283.5t-249.5 107.5h-271l-63 -365h305l-39 -219h-303z" />
    <glyph glyph-name="dcroat" unicode="&#x111;" horiz-adv-x="1263" 
d="M1290 1315h117l-31 -172h-116l-203 -1143h-279l21 123q-144 -154 -348 -154q-183 0 -294.5 125t-111.5 332q0 125 42.5 240.5t116 201t178 136.5t222.5 51q116 0 199.5 -50t128.5 -143l49 281h-225l30 172h226l20 119h279zM565 207q142 0 235 110t93 256q0 114 -61.5 179
t-167.5 65q-144 0 -238 -109t-94 -253q0 -114 63 -181t170 -67z" />
    <glyph glyph-name="Emacron" unicode="&#x112;" horiz-adv-x="1288" 
d="M532 1718h719l-34 -186h-717zM1339 1434l-41 -236h-727l-55 -324h617l-43 -237h-615l-69 -401h743l-43 -236h-1040l253 1434h1020z" />
    <glyph glyph-name="emacron" unicode="&#x113;" horiz-adv-x="1175" 
d="M410 1376h682l-37 -198h-680zM551 207q80 0 140.5 34t96.5 91h306q-75 -171 -223 -267t-339 -96q-226 0 -355.5 128t-129.5 345q0 171 78.5 310.5t221 221t321.5 81.5q113 0 205.5 -33.5t151 -93t87 -136t17.5 -169t-62 -185.5h-735q5 -111 61.5 -171t157.5 -60zM649 834
q-109 0 -185 -63.5t-110 -166.5h467q33 100 -13.5 165t-158.5 65z" />
    <glyph glyph-name="Ebreve" unicode="&#x114;" horiz-adv-x="1288" 
d="M864 1503q-142 0 -219.5 66.5t-56.5 179.5h196q-6 -36 20 -59t77 -23t84.5 22.5t44.5 59.5h200q-20 -115 -113.5 -180.5t-232.5 -65.5zM1339 1434l-41 -236h-727l-55 -324h617l-43 -237h-615l-69 -401h743l-43 -236h-1040l253 1434h1020z" />
    <glyph glyph-name="ebreve" unicode="&#x115;" horiz-adv-x="1175" 
d="M725 1130q-155 0 -244 87t-78 217h215q-5 -59 27 -90t96 -31q124 0 154 121h219q-24 -140 -132 -222t-257 -82zM551 207q80 0 140.5 34t96.5 91h306q-75 -171 -223 -267t-339 -96q-226 0 -355.5 128t-129.5 345q0 171 78.5 310.5t221 221t321.5 81.5q113 0 205.5 -33.5
t151 -93t87 -136t17.5 -169t-62 -185.5h-735q5 -111 61.5 -171t157.5 -60zM649 834q-109 0 -185 -63.5t-110 -166.5h467q33 100 -13.5 165t-158.5 65z" />
    <glyph glyph-name="Edotaccent" unicode="&#x116;" horiz-adv-x="1288" 
d="M854 1511q-66 0 -107.5 41.5t-41.5 106.5q0 73 50.5 124.5t123.5 51.5q65 0 107 -42.5t42 -106.5q0 -72 -50.5 -123.5t-123.5 -51.5zM1339 1434l-41 -236h-727l-55 -324h617l-43 -237h-615l-69 -401h743l-43 -236h-1040l253 1434h1020z" />
    <glyph glyph-name="edotaccent" unicode="&#x117;" horiz-adv-x="1175" 
d="M727 1153q-66 0 -109 42.5t-43 107.5q0 72 51 123t126 51q65 0 106 -42t41 -106q0 -74 -50 -125t-122 -51zM551 207q80 0 140.5 34t96.5 91h306q-75 -171 -223 -267t-339 -96q-226 0 -355.5 128t-129.5 345q0 171 78.5 310.5t221 221t321.5 81.5q113 0 205.5 -33.5
t151 -93t87 -136t17.5 -169t-62 -185.5h-735q5 -111 61.5 -171t157.5 -60zM649 834q-109 0 -185 -63.5t-110 -166.5h467q33 100 -13.5 165t-158.5 65z" />
    <glyph glyph-name="Eogonek" unicode="&#x118;" horiz-adv-x="1288" 
d="M1339 1434l-41 -236h-727l-55 -324h617l-43 -237h-615l-69 -401h743l-37 -199l4 -39q-104 -20 -176 -60.5t-72 -87.5q0 -45 72 -45q52 0 121 21l-29 -246q-62 -20 -151 -20q-136 0 -206.5 47.5t-70.5 124.5q0 78 72 147.5t198 120.5h-808l253 1434h1020z" />
    <glyph glyph-name="eogonek" unicode="&#x119;" horiz-adv-x="1175" 
d="M551 207q80 0 140.5 34t96.5 91h306q-28 -73 -77.5 -139t-99 -111.5t-96 -86t-75.5 -78t-29 -71.5q0 -51 53 -62.5t131 13.5l-22 -223q-62 -20 -154 -20q-141 0 -213 49.5t-72 128.5q0 42 12.5 75t51 66t58.5 46.5t85 51.5q14 9 21 13q-64 -15 -136 -15
q-226 0 -355.5 128t-129.5 345q0 171 78.5 310.5t221 221t321.5 81.5q113 0 205.5 -33.5t151 -93t87 -136t17.5 -169t-62 -185.5h-735q5 -111 61.5 -171t157.5 -60zM649 834q-109 0 -185 -63.5t-110 -166.5h467q33 100 -13.5 165t-158.5 65z" />
    <glyph glyph-name="Ecaron" unicode="&#x11a;" horiz-adv-x="1288" 
d="M1282 1749l-285 -242h-276l-203 242h254l102 -117l142 117h266zM1339 1434l-41 -236h-727l-55 -324h617l-43 -237h-615l-69 -401h743l-43 -236h-1040l253 1434h1020z" />
    <glyph glyph-name="ecaron" unicode="&#x11b;" horiz-adv-x="1175" 
d="M1116 1434l-264 -275h-277l-165 275h249l74 -121l119 121h264zM551 207q80 0 140.5 34t96.5 91h306q-75 -171 -223 -267t-339 -96q-226 0 -355.5 128t-129.5 345q0 171 78.5 310.5t221 221t321.5 81.5q113 0 205.5 -33.5t151 -93t87 -136t17.5 -169t-62 -185.5h-735
q5 -111 61.5 -171t157.5 -60zM649 834q-109 0 -185 -63.5t-110 -166.5h467q33 100 -13.5 165t-158.5 65z" />
    <glyph glyph-name="Gcircumflex" unicode="&#x11c;" horiz-adv-x="1595" 
d="M1135 1507l-103 125l-147 -125h-262l274 242h295l190 -242h-247zM846 768h743l-43 -238h-303q127 -68 127 -204q0 -107 -82 -189.5t-213.5 -125t-286.5 -42.5q-308 0 -482.5 172.5t-174.5 466.5q0 174 63 330.5t173.5 272.5t269.5 184.5t342 68.5q140 0 250.5 -38.5
t179 -110t92 -174.5t-9.5 -232h-303q41 152 -27.5 230t-214.5 78q-117 0 -216 -51t-163 -136t-99.5 -192t-35.5 -222q0 -191 95.5 -296t269.5 -105q123 0 201.5 50.5t78.5 125.5q0 67 -70.5 102t-203.5 37z" />
    <glyph glyph-name="gcircumflex" unicode="&#x11d;" horiz-adv-x="1128" 
d="M748 1159l-74 125l-119 -125h-264l264 275h274l168 -275h-249zM1008 1151h188q3 -98 -43.5 -198t-122.5 -160q12 -47 12 -95q0 -148 -97.5 -270.5t-264.5 -208.5q126 -27 198 -101.5t72 -185.5q0 -108 -69.5 -193.5t-189 -132t-267.5 -46.5q-220 0 -346 104t-123 273h281
q0 -70 53.5 -105t144.5 -35q108 0 173 41t65 107q0 59 -57.5 92t-172.5 33q-130 0 -288 -43l26 170q239 28 402 131q-68 -11 -113 -11q-175 0 -280 89t-105 239q0 123 72.5 218t190 143.5t259.5 48.5q240 0 357 -133q59 95 45 229zM369 647q0 -61 45 -94t123 -33
q98 0 159.5 48t61.5 118q0 61 -47 96t-125 35q-97 0 -157 -49.5t-60 -120.5z" />
    <glyph glyph-name="Gbreve" unicode="&#x11e;" horiz-adv-x="1595" 
d="M1014 1503q-142 0 -220 66.5t-57 179.5h197q-6 -36 19.5 -59t76.5 -23t84.5 22.5t44.5 59.5h201q-20 -115 -113.5 -180.5t-232.5 -65.5zM846 768h743l-43 -238h-303q127 -68 127 -204q0 -107 -82 -189.5t-213.5 -125t-286.5 -42.5q-308 0 -482.5 172.5t-174.5 466.5
q0 174 63 330.5t173.5 272.5t269.5 184.5t342 68.5q140 0 250.5 -38.5t179 -110t92 -174.5t-9.5 -232h-303q41 152 -27.5 230t-214.5 78q-117 0 -216 -51t-163 -136t-99.5 -192t-35.5 -222q0 -191 95.5 -296t269.5 -105q123 0 201.5 50.5t78.5 125.5q0 67 -70.5 102
t-203.5 37z" />
    <glyph glyph-name="gbreve" unicode="&#x11f;" horiz-adv-x="1128" 
d="M664 1130q-155 0 -244 87t-78 217h215q-5 -59 27 -90t96 -31q124 0 154 121h219q-24 -140 -132 -222t-257 -82zM1008 1151h188q3 -98 -43.5 -198t-122.5 -160q12 -47 12 -95q0 -148 -97.5 -270.5t-264.5 -208.5q126 -27 198 -101.5t72 -185.5q0 -108 -69.5 -193.5
t-189 -132t-267.5 -46.5q-220 0 -346 104t-123 273h281q0 -70 53.5 -105t144.5 -35q108 0 173 41t65 107q0 59 -57.5 92t-172.5 33q-130 0 -288 -43l26 170q239 28 402 131q-68 -11 -113 -11q-175 0 -280 89t-105 239q0 123 72.5 218t190 143.5t259.5 48.5q240 0 357 -133
q59 95 45 229zM369 647q0 -61 45 -94t123 -33q98 0 159.5 48t61.5 118q0 61 -47 96t-125 35q-97 0 -157 -49.5t-60 -120.5z" />
    <glyph glyph-name="Gdotaccent" unicode="&#x120;" horiz-adv-x="1595" 
d="M1004 1511q-66 0 -108 41.5t-42 106.5q0 73 50.5 124.5t123.5 51.5q65 0 107.5 -42.5t42.5 -106.5q0 -72 -50.5 -123.5t-123.5 -51.5zM846 768h743l-43 -238h-303q127 -68 127 -204q0 -107 -82 -189.5t-213.5 -125t-286.5 -42.5q-308 0 -482.5 172.5t-174.5 466.5
q0 174 63 330.5t173.5 272.5t269.5 184.5t342 68.5q140 0 250.5 -38.5t179 -110t92 -174.5t-9.5 -232h-303q41 152 -27.5 230t-214.5 78q-117 0 -216 -51t-163 -136t-99.5 -192t-35.5 -222q0 -191 95.5 -296t269.5 -105q123 0 201.5 50.5t78.5 125.5q0 67 -70.5 102
t-203.5 37z" />
    <glyph glyph-name="gdotaccent" unicode="&#x121;" horiz-adv-x="1128" 
d="M666 1153q-66 0 -109 42.5t-43 107.5q0 73 51 123.5t125 50.5q65 0 106.5 -42t41.5 -106q0 -74 -50 -125t-122 -51zM1008 1151h188q3 -98 -43.5 -198t-122.5 -160q12 -47 12 -95q0 -148 -97.5 -270.5t-264.5 -208.5q126 -27 198 -101.5t72 -185.5q0 -108 -69.5 -193.5
t-189 -132t-267.5 -46.5q-220 0 -346 104t-123 273h281q0 -70 53.5 -105t144.5 -35q108 0 173 41t65 107q0 59 -57.5 92t-172.5 33q-130 0 -288 -43l26 170q239 28 402 131q-68 -11 -113 -11q-175 0 -280 89t-105 239q0 123 72.5 218t190 143.5t259.5 48.5q240 0 357 -133
q59 95 45 229zM369 647q0 -61 45 -94t123 -33q98 0 159.5 48t61.5 118q0 61 -47 96t-125 35q-97 0 -157 -49.5t-60 -120.5z" />
    <glyph glyph-name="uni0122" unicode="&#x122;" horiz-adv-x="1595" 
d="M846 768h743l-43 -238h-303q127 -68 127 -204q0 -107 -82 -189.5t-213.5 -125t-286.5 -42.5q-308 0 -482.5 172.5t-174.5 466.5q0 174 63 330.5t173.5 272.5t269.5 184.5t342 68.5q140 0 250.5 -38.5t179 -110t92 -174.5t-9.5 -232h-303q41 152 -27.5 230t-214.5 78
q-117 0 -216 -51t-163 -136t-99.5 -192t-35.5 -222q0 -191 95.5 -296t269.5 -105q123 0 201.5 50.5t78.5 125.5q0 67 -70.5 102t-203.5 37zM733 -82q62 0 101.5 -35t39.5 -104q0 -102 -81.5 -160.5t-210.5 -58.5v112q128 0 166 49q-10 -2 -33 -2q-58 0 -88.5 25.5
t-30.5 71.5q0 52 37.5 77t99.5 25z" />
    <glyph glyph-name="uni0123" unicode="&#x123;" horiz-adv-x="1128" 
d="M657 1108q-64 0 -104.5 34.5t-40.5 104.5q0 99 85 158t210 59l-2 -116q-118 0 -158 -43h12q134 0 134 -97q0 -51 -38 -75.5t-98 -24.5zM1008 1151h188q3 -98 -43.5 -198t-122.5 -160q12 -47 12 -95q0 -148 -97.5 -270.5t-264.5 -208.5q126 -27 198 -101.5t72 -185.5
q0 -108 -69.5 -193.5t-189 -132t-267.5 -46.5q-220 0 -346 104t-123 273h281q0 -70 53.5 -105t144.5 -35q108 0 173 41t65 107q0 59 -57.5 92t-172.5 33q-130 0 -288 -43l26 170q239 28 402 131q-68 -11 -113 -11q-175 0 -280 89t-105 239q0 123 72.5 218t190 143.5
t259.5 48.5q240 0 357 -133q59 95 45 229zM369 647q0 -61 45 -94t123 -33q98 0 159.5 48t61.5 118q0 61 -47 96t-125 35q-97 0 -157 -49.5t-60 -120.5z" />
    <glyph glyph-name="Hcircumflex" unicode="&#x124;" horiz-adv-x="1568" 
d="M1090 1507l-103 125l-147 -125h-262l274 242h295l190 -242h-247zM1178 866l100 568h295l-254 -1434h-295l113 631h-662l-113 -631h-296l253 1434h297l-100 -568h662z" />
    <glyph glyph-name="hcircumflex" unicode="&#x125;" horiz-adv-x="1132" 
d="M539 1507l-103 125l-147 -125h-262l274 242h295l190 -242h-247zM788 1055q173 0 243.5 -118.5t31.5 -330.5l-107 -606h-278l110 627q19 98 -9.5 149t-100.5 51q-107 0 -194 -94.5t-113 -240.5l-88 -492h-279l254 1434h279l-101 -582q57 97 148 150t204 53z" />
    <glyph glyph-name="Hbar" unicode="&#x126;" horiz-adv-x="1609" 
d="M1561 1243h77v-186h-112l-187 -1057h-295l113 631h-661l-113 -631h-297l186 1057h-77v186h112l33 191h297l-33 -191h662l32 191h295zM537 866h661l33 191h-662z" />
    <glyph glyph-name="hbar" unicode="&#x127;" horiz-adv-x="1153" 
d="M809 1055q173 0 243 -118.5t31 -330.5l-106 -606h-279l111 627q19 98 -10 149t-101 51q-107 0 -194 -94.5t-113 -240.5l-88 -492h-278l202 1143h-123l31 172h123l21 119h278l-20 -119h219l-31 -172h-217l-51 -291q57 97 148 150t204 53z" />
    <glyph glyph-name="Itilde" unicode="&#x128;" horiz-adv-x="610" 
d="M322 1524h-166q-21 118 34.5 180.5t157.5 62.5q57 0 108 -21.5t91 -43t69 -21.5q34 0 53 22t13 58h166q13 -115 -43 -181.5t-164 -66.5q-46 0 -87 13.5t-65.5 29.5t-54.5 29.5t-55 13.5q-34 0 -49.5 -22t-7.5 -53zM362 0h-296l253 1434h297z" />
    <glyph glyph-name="itilde" unicode="&#x129;" horiz-adv-x="489" 
d="M233 1161h-178q-15 119 43.5 190.5t161.5 71.5q52 0 92.5 -21t70 -42t54.5 -21q35 0 52 25.5t12 58.5h178q5 -122 -54 -193t-169 -71q-44 0 -78 12.5t-50.5 27.5t-38 27.5t-42.5 12.5q-32 0 -47 -23.5t-7 -54.5zM293 0h-279l181 1024h278z" />
    <glyph glyph-name="Imacron" unicode="&#x12a;" horiz-adv-x="610" 
d="M844 1532h-717l33 186h719zM362 0h-296l253 1434h297z" />
    <glyph glyph-name="imacron" unicode="&#x12b;" horiz-adv-x="489" 
d="M625 1178h-519l35 202h518zM293 0h-279l181 1024h278z" />
    <glyph glyph-name="Iogonek" unicode="&#x12e;" horiz-adv-x="610" 
d="M68 16l251 1418h297l-254 -1434h-14q-209 -61 -209 -150q0 -45 70 -45q52 0 121 25l-29 -246q-70 -24 -166 -24q-150 0 -227.5 55t-77.5 145q0 163 238 256z" />
    <glyph glyph-name="iogonek" unicode="&#x12f;" horiz-adv-x="489" 
d="M401 1477q65 0 106.5 -42t41.5 -106q0 -74 -50 -125t-122 -51q-66 0 -109 42.5t-43 107.5q0 73 50.5 123.5t125.5 50.5zM18 20l177 1004h278l-180 -1024h-2q-209 -61 -209 -150q0 -45 70 -45q51 0 120 25l-28 -246q-70 -24 -166 -24q-150 0 -227.5 55t-77.5 145
q0 167 245 260z" />
    <glyph glyph-name="Idotaccent" unicode="&#x130;" horiz-adv-x="610" 
d="M479 1511q-66 0 -107.5 41.5t-41.5 106.5q0 73 50.5 124.5t123.5 51.5q65 0 107 -42.5t42 -106.5q0 -72 -50.5 -123.5t-123.5 -51.5zM362 0h-296l253 1434h297z" />
    <glyph glyph-name="dotlessi" unicode="&#x131;" horiz-adv-x="489" 
d="M293 0h-279l181 1024h278z" />
    <glyph glyph-name="IJ" unicode="&#x132;" horiz-adv-x="1140" 
d="M498 -31q-126 0 -217.5 39.5t-137 108.5t-43 167t59.5 210h272q-62 -142 -41 -212.5t117 -70.5q97 0 144 63.5t67 176.5l174 983h295l-170 -961q-14 -82 -34 -147t-59.5 -135t-93 -116t-139 -76t-194.5 -30zM500 616h-295l143 818h295z" />
    <glyph glyph-name="ij" unicode="&#x133;" horiz-adv-x="1038" 
d="M377 1153q-66 0 -109 42.5t-43 107.5q0 73 50.5 123.5t125.5 50.5q65 0 106.5 -42t41.5 -106q0 -74 -50 -125t-122 -51zM924 1153q-66 0 -108 42.5t-42 107.5q0 72 50.5 123t123.5 51q65 0 106.5 -42t41.5 -106q0 -74 -50 -125t-122 -51zM293 0h-279l181 1024h278z
M453 -440q-114 0 -197 51l39 221q53 -35 123 -35q36 0 62.5 14.5t41.5 41t22.5 50.5t12.5 56l186 1065h279l-191 -1083q-20 -116 -48 -177q-92 -203 -330 -204z" />
    <glyph glyph-name="Jcircumflex" unicode="&#x134;" horiz-adv-x="1038" 
d="M1081 1507l-102 125l-148 -125h-262l275 242h295l190 -242h-248zM616 451l175 983h294l-170 -961q-14 -82 -34 -147t-59.5 -135t-93 -116t-139 -76t-194.5 -30q-126 0 -217.5 39.5t-137 108.5t-43 167t59.5 210h273q-62 -142 -41 -212.5t117 -70.5q97 0 143.5 63.5
t66.5 176.5z" />
    <glyph glyph-name="jcircumflex" unicode="&#x135;" horiz-adv-x="616" 
d="M586 1159l-74 125l-119 -125h-264l264 275h275l168 -275h-250zM135 -41l187 1065h278l-190 -1083q-21 -118 -50 -181q-92 -200 -329 -200q-114 0 -197 51l39 221q53 -35 123 -35q36 0 62.5 14.5t41.5 41t22.5 50.5t12.5 56z" />
    <glyph glyph-name="uni0136" unicode="&#x136;" horiz-adv-x="1554" 
d="M1272 1434h364l-678 -562l488 -872h-350l-367 682l-289 -240l-78 -442h-296l253 1434h297l-114 -650zM653 -82q62 0 102 -35t40 -104q0 -102 -82 -160.5t-211 -58.5v112q128 0 166 49q-10 -2 -33 -2q-58 0 -88.5 25.5t-30.5 71.5q0 52 37.5 77t99.5 25z" />
    <glyph glyph-name="uni0137" unicode="&#x137;" horiz-adv-x="1185" 
d="M844 393q98 -65 154 -169.5t53 -223.5h-320q-2 126 -64.5 211t-174.5 108l24 166q121 0 210 62.5t89 154.5q0 55 -36.5 85t-100.5 30q-114 0 -197.5 -89t-109.5 -236l-88 -492h-279l254 1434h279l-101 -584q58 98 152 151.5t211 53.5q148 0 229.5 -79.5t81.5 -213.5
q0 -125 -71.5 -220.5t-194.5 -148.5zM475 -82q62 0 101.5 -35t39.5 -104q0 -102 -81.5 -160.5t-210.5 -58.5v112q127 0 165 49q-10 -2 -32 -2q-58 0 -88.5 25.5t-30.5 71.5q0 52 37.5 77t99.5 25z" />
    <glyph glyph-name="kgreenlandic" unicode="&#x138;" horiz-adv-x="1185" 
d="M881 1024h354l-481 -420l321 -604h-340l-211 408l-172 -152l-45 -256h-303l180 1024h303l-71 -403z" />
    <glyph glyph-name="Lacute" unicode="&#x139;" horiz-adv-x="1247" 
d="M526 1749h301l-274 -242h-217zM616 1434l-208 -1198h741l-43 -236h-1040l253 1434h297z" />
    <glyph glyph-name="lacute" unicode="&#x13a;" horiz-adv-x="491" 
d="M487 1569h-217l195 274h303zM293 0h-279l254 1434h279z" />
    <glyph glyph-name="uni013B" unicode="&#x13b;" horiz-adv-x="1247" 
d="M616 1434l-208 -1198h741l-43 -236h-1040l253 1434h297zM481 -82q62 0 102 -35t40 -104q0 -102 -82 -160.5t-211 -58.5v112q128 0 166 49q-10 -2 -33 -2q-58 0 -88.5 25.5t-30.5 71.5q0 52 37.5 77t99.5 25z" />
    <glyph glyph-name="uni013C" unicode="&#x13c;" horiz-adv-x="491" 
d="M14 0l254 1434h279l-254 -1434h-279zM127 -82q62 0 101.5 -35t39.5 -104q0 -102 -82 -160.5t-211 -58.5v112q128 0 166 49q-10 -2 -32 -2q-58 0 -88.5 25.5t-30.5 71.5q0 52 37.5 77t99.5 25z" />
    <glyph glyph-name="Lcaron" unicode="&#x13d;" horiz-adv-x="1247" 
d="M616 1434l-208 -1198h741l-43 -236h-1040l253 1434h297zM756 1434h229l-139 -357h-172z" />
    <glyph glyph-name="lcaron" unicode="&#x13e;" horiz-adv-x="491" 
d="M293 0h-279l254 1434h279zM713 1077h-172l82 357h229z" />
    <glyph glyph-name="Ldot" unicode="&#x13f;" horiz-adv-x="1325" 
d="M616 1434l-208 -1198h741l-43 -236h-1040l253 1434h297zM977 655q-69 0 -116.5 47t-47.5 115t47.5 115t116.5 47q66 0 113 -47.5t47 -114.5t-47 -114.5t-113 -47.5z" />
    <glyph glyph-name="ldot" unicode="&#x140;" horiz-adv-x="727" 
d="M293 0h-279l254 1434h279zM610 532q-67 0 -114 47t-47 115t47 115t114 47q68 0 115 -47t47 -115t-47 -115t-115 -47z" />
    <glyph glyph-name="Lslash" unicode="&#x141;" horiz-adv-x="1288" 
d="M520 651l-71 -415h741l-43 -236h-1041l95 528l-138 -65v194l175 84l122 693h297l-100 -570l371 178v-194z" />
    <glyph glyph-name="lslash" unicode="&#x142;" horiz-adv-x="573" 
d="M498 922l151 100l-33 -209l-157 -102l-125 -711h-279l92 518l-145 -96l33 209l149 98l125 705h279z" />
    <glyph glyph-name="Nacute" unicode="&#x143;" horiz-adv-x="1564" 
d="M1004 1749h301l-275 -242h-217zM1081 350l193 1084h295l-254 -1434h-406l-350 1118l-197 -1118h-296l253 1434h424z" />
    <glyph glyph-name="nacute" unicode="&#x144;" horiz-adv-x="1132" 
d="M709 1434h303l-281 -275h-217zM795 1055q62 0 110.5 -16.5t79.5 -43.5t51.5 -65.5t29.5 -79t10.5 -88t-2 -88.5t-11.5 -84l-107 -590h-278l108 608q8 46 8.5 82t-9 68.5t-37 50.5t-72.5 18q-107 0 -193 -94t-112 -241l-88 -492h-279l180 1024h279l-29 -180
q56 100 150 155.5t211 55.5z" />
    <glyph glyph-name="uni0145" unicode="&#x145;" horiz-adv-x="1564" 
d="M1081 350l193 1084h295l-254 -1434h-406l-350 1118l-197 -1118h-296l253 1434h424zM684 -82q62 0 101.5 -35t39.5 -104q0 -102 -82 -160.5t-211 -58.5v112q128 0 166 49q-10 -2 -32 -2q-58 0 -88.5 25.5t-30.5 71.5q0 52 37.5 77t99.5 25z" />
    <glyph glyph-name="uni0146" unicode="&#x146;" horiz-adv-x="1132" 
d="M795 1055q62 0 110.5 -16.5t79.5 -43.5t51.5 -65.5t29.5 -79t10.5 -88t-2 -88.5t-11.5 -84l-107 -590h-278l108 608q8 46 8.5 82t-9 68.5t-37 50.5t-72.5 18q-107 0 -193 -94t-112 -241l-88 -492h-279l180 1024h279l-29 -180q56 100 150 155.5t211 55.5zM451 -82
q62 0 101.5 -35t39.5 -104q0 -102 -82 -160.5t-211 -58.5v112q128 0 166 49q-10 -2 -33 -2q-58 0 -88.5 25.5t-30.5 71.5q0 52 38 77t100 25z" />
    <glyph glyph-name="Ncaron" unicode="&#x147;" horiz-adv-x="1564" 
d="M1386 1749l-284 -242h-277l-202 242h254l102 -117l141 117h266zM1081 350l193 1084h295l-254 -1434h-406l-350 1118l-197 -1118h-296l253 1434h424z" />
    <glyph glyph-name="ncaron" unicode="&#x148;" horiz-adv-x="1132" 
d="M1083 1434l-264 -275h-276l-166 275h250l73 -121l119 121h264zM795 1055q62 0 110.5 -16.5t79.5 -43.5t51.5 -65.5t29.5 -79t10.5 -88t-2 -88.5t-11.5 -84l-107 -590h-278l108 608q8 46 8.5 82t-9 68.5t-37 50.5t-72.5 18q-107 0 -193 -94t-112 -241l-88 -492h-279
l180 1024h279l-29 -180q56 100 150 155.5t211 55.5z" />
    <glyph glyph-name="Eng" unicode="&#x14a;" horiz-adv-x="1634" 
d="M1100 1464q227 0 353 -155t126 -443q0 -133 -27 -261t-83 -242t-134.5 -200.5t-188.5 -137t-237 -50.5q-135 0 -226 54t-118 154.5t31 242.5h291q-47 -91 -27.5 -142t90.5 -51q77 0 142.5 65.5t106.5 165.5t64 212t23 213q0 156 -62 243t-190 87t-247 -84.5
t-206.5 -238.5t-121.5 -349l-97 -547h-296l253 1434h297l-43 -246q214 276 527 276z" />
    <glyph glyph-name="eng" unicode="&#x14b;" horiz-adv-x="1132" 
d="M795 1055q62 0 110.5 -16.5t79.5 -43.5t51.5 -65.5t29.5 -79t10.5 -88t-2 -88.5t-11.5 -84l-107 -590l-16 -94q-34 -179 -121 -262.5t-241 -83.5q-117 0 -193 39l25 231q77 -25 120 -25q114 0 134 121l14 74l108 608q8 46 8.5 82t-9 68.5t-37 50.5t-72.5 18
q-107 0 -193 -94t-112 -241l-88 -492h-279l180 1024h279l-29 -180q56 100 150 155.5t211 55.5z" />
    <glyph glyph-name="Omacron" unicode="&#x14c;" horiz-adv-x="1656" 
d="M1368 1532h-717l33 186h719zM760 -31q-286 0 -458.5 174t-172.5 461q0 172 65 330t176 274.5t268 186t333 69.5q285 0 456.5 -172.5t171.5 -462.5q0 -170 -64 -327.5t-174 -275t-267 -187.5t-334 -70zM780 215q113 0 211.5 52.5t164.5 138.5t104 195.5t38 223.5
q0 184 -94 289t-256 105q-150 0 -270.5 -89.5t-184 -228.5t-63.5 -293q0 -186 94 -289.5t256 -103.5z" />
    <glyph glyph-name="omacron" unicode="&#x14d;" horiz-adv-x="1196" 
d="M1055 1178h-680l35 198h682zM518 -31q-220 0 -346.5 123t-126.5 338q0 172 81.5 315t227.5 226.5t326 83.5q216 0 342.5 -122t126.5 -337q0 -171 -79.5 -314t-225 -228t-326.5 -85zM545 207q93 0 167 55t112 140t38 180q0 112 -56 173.5t-155 61.5q-139 0 -229 -112.5
t-90 -260.5q0 -112 56.5 -174.5t156.5 -62.5z" />
    <glyph glyph-name="Obreve" unicode="&#x14e;" horiz-adv-x="1656" 
d="M1014 1503q-142 0 -220 66.5t-57 179.5h197q-6 -36 19.5 -59t76.5 -23t84.5 22.5t44.5 59.5h201q-20 -115 -113.5 -180.5t-232.5 -65.5zM760 -31q-286 0 -458.5 174t-172.5 461q0 172 65 330t176 274.5t268 186t333 69.5q285 0 456.5 -172.5t171.5 -462.5
q0 -170 -64 -327.5t-174 -275t-267 -187.5t-334 -70zM780 215q113 0 211.5 52.5t164.5 138.5t104 195.5t38 223.5q0 184 -94 289t-256 105q-150 0 -270.5 -89.5t-184 -228.5t-63.5 -293q0 -186 94 -289.5t256 -103.5z" />
    <glyph glyph-name="obreve" unicode="&#x14f;" horiz-adv-x="1196" 
d="M727 1130q-155 0 -243.5 87t-77.5 217h215q-5 -59 26.5 -90t95.5 -31q124 0 154 121h219q-24 -140 -132 -222t-257 -82zM518 -31q-220 0 -346.5 123t-126.5 338q0 172 81.5 315t227.5 226.5t326 83.5q216 0 342.5 -122t126.5 -337q0 -171 -79.5 -314t-225 -228
t-326.5 -85zM545 207q93 0 167 55t112 140t38 180q0 112 -56 173.5t-155 61.5q-139 0 -229 -112.5t-90 -260.5q0 -112 56.5 -174.5t156.5 -62.5z" />
    <glyph glyph-name="Ohungarumlaut" unicode="&#x150;" horiz-adv-x="1656" 
d="M936 1507h-176l92 242h260zM1245 1507h-190l153 242h258zM760 -31q-286 0 -458.5 174t-172.5 461q0 172 65 330t176 274.5t268 186t333 69.5q285 0 456.5 -172.5t171.5 -462.5q0 -170 -64 -327.5t-174 -275t-267 -187.5t-334 -70zM780 215q113 0 211.5 52.5t164.5 138.5
t104 195.5t38 223.5q0 184 -94 289t-256 105q-150 0 -270.5 -89.5t-184 -228.5t-63.5 -293q0 -186 94 -289.5t256 -103.5z" />
    <glyph glyph-name="ohungarumlaut" unicode="&#x151;" horiz-adv-x="1196" 
d="M539 1159h-209l147 275h295zM936 1159h-209l145 275h295zM518 -31q-220 0 -346.5 123t-126.5 338q0 172 81.5 315t227.5 226.5t326 83.5q216 0 342.5 -122t126.5 -337q0 -171 -79.5 -314t-225 -228t-326.5 -85zM545 207q93 0 167 55t112 140t38 180q0 112 -56 173.5
t-155 61.5q-139 0 -229 -112.5t-90 -260.5q0 -112 56.5 -174.5t156.5 -62.5z" />
    <glyph glyph-name="OE" unicode="&#x152;" horiz-adv-x="2375" 
d="M2427 1434l-41 -236h-727l-55 -324h616l-43 -237h-614l-70 -401h743l-43 -236h-1040l25 137q-193 -168 -451 -168q-153 0 -276.5 56.5t-202 156.5t-108.5 243.5t-1 311.5q38 214 157 380.5t292 256.5t370 90q272 0 422 -184l27 154h1020zM756 215q186 0 331.5 137.5
t192.5 358.5l8 51q29 209 -58.5 334t-264.5 125q-192 0 -340 -145t-189 -376q-38 -219 50 -352t270 -133z" />
    <glyph glyph-name="oe" unicode="&#x153;" horiz-adv-x="1980" 
d="M1356 207q80 0 140.5 34t96.5 91h305q-75 -171 -222.5 -267t-338.5 -96q-255 0 -387 164q-175 -164 -432 -164q-220 0 -346.5 123t-126.5 338q0 172 81.5 315t227.5 226.5t326 83.5q245 0 371 -154q175 154 422 154q113 0 205.5 -33.5t151 -93t87 -136t17.5 -169
t-62 -185.5h-735q5 -111 61.5 -171t157.5 -60zM1454 834q-109 0 -185 -63.5t-110 -166.5h467q33 100 -13.5 165t-158.5 65zM545 207q118 0 201.5 84t107.5 209q4 38 8 55v27q0 112 -56 173.5t-155 61.5q-139 0 -229 -112.5t-90 -260.5q0 -112 56.5 -174.5t156.5 -62.5z" />
    <glyph glyph-name="Racute" unicode="&#x154;" horiz-adv-x="1486" 
d="M965 1749h301l-275 -242h-217zM1452 1063q0 -162 -86.5 -278t-239.5 -171q124 -66 164 -217t6 -397h-290q40 306 -2.5 424.5t-204.5 118.5h-342l-95 -543h-296l253 1434h682q219 0 335 -94t116 -277zM494 762h360q134 0 214.5 75.5t80.5 190.5q0 170 -188 170h-392z" />
    <glyph glyph-name="racute" unicode="&#x155;" horiz-adv-x="993" 
d="M670 1434h303l-281 -275h-217zM750 1055q118 0 186 -74.5t68 -198.5q0 -82 -29 -160t-78 -137h-287q32 51 50.5 84t36.5 79.5t18 80.5q0 43 -23.5 65.5t-66.5 22.5q-88 0 -158.5 -90t-95.5 -231l-88 -496h-279l180 1024h279l-29 -168q54 95 136.5 147t179.5 52z" />
    <glyph glyph-name="uni0156" unicode="&#x156;" horiz-adv-x="1486" 
d="M1452 1063q0 -162 -86.5 -278t-239.5 -171q124 -66 164 -217t6 -397h-290q40 306 -2.5 424.5t-204.5 118.5h-342l-95 -543h-296l253 1434h682q219 0 335 -94t116 -277zM494 762h360q134 0 214.5 75.5t80.5 190.5q0 170 -188 170h-392zM643 -82q62 0 101.5 -35t39.5 -104
q0 -102 -81.5 -160.5t-210.5 -58.5v112q127 0 165 49q-10 -2 -32 -2q-58 0 -88.5 25.5t-30.5 71.5q0 52 37.5 77t99.5 25z" />
    <glyph glyph-name="uni0157" unicode="&#x157;" horiz-adv-x="993" 
d="M750 1055q118 0 186 -74.5t68 -198.5q0 -82 -29 -160t-78 -137h-287q32 51 50.5 84t36.5 79.5t18 80.5q0 43 -23.5 65.5t-66.5 22.5q-88 0 -158.5 -90t-95.5 -231l-88 -496h-279l180 1024h279l-29 -168q54 95 136.5 147t179.5 52zM109 -82q62 0 101.5 -35t39.5 -104
q0 -102 -82 -160.5t-211 -58.5v112q128 0 166 49q-10 -2 -33 -2q-58 0 -88.5 25.5t-30.5 71.5q0 52 38 77t100 25z" />
    <glyph glyph-name="Rcaron" unicode="&#x158;" horiz-adv-x="1486" 
d="M1346 1749l-285 -242h-277l-202 242h254l102 -117l141 117h267zM1452 1063q0 -162 -86.5 -278t-239.5 -171q124 -66 164 -217t6 -397h-290q40 306 -2.5 424.5t-204.5 118.5h-342l-95 -543h-296l253 1434h682q219 0 335 -94t116 -277zM494 762h360q134 0 214.5 75.5
t80.5 190.5q0 170 -188 170h-392z" />
    <glyph glyph-name="rcaron" unicode="&#x159;" horiz-adv-x="993" 
d="M1042 1434l-264 -275h-276l-166 275h250l73 -121l119 121h264zM750 1055q118 0 186 -74.5t68 -198.5q0 -82 -29 -160t-78 -137h-287q32 51 50.5 84t36.5 79.5t18 80.5q0 43 -23.5 65.5t-66.5 22.5q-88 0 -158.5 -90t-95.5 -231l-88 -496h-279l180 1024h279l-29 -168
q54 95 136.5 147t179.5 52z" />
    <glyph glyph-name="Sacute" unicode="&#x15a;" horiz-adv-x="1445" 
d="M967 1507h-217l190 242h301zM651 -31q-300 0 -444.5 139.5t-85.5 368.5h295q-29 -134 39.5 -201t220.5 -67q147 0 235 57t88 146q0 46 -26.5 79.5t-71.5 53.5t-103 35.5t-122 29.5t-128 31t-122 44.5t-103 65t-71.5 98t-26.5 138.5q0 142 82.5 251t226.5 167.5t326 58.5
q192 0 320.5 -63.5t174.5 -179.5t1 -267h-295q36 134 -22.5 202.5t-204.5 68.5q-135 0 -220.5 -54.5t-85.5 -142.5q0 -47 26.5 -81t71.5 -55t103 -36.5t122.5 -30t128.5 -32t122 -45.5t103 -66.5t71.5 -100t26.5 -141.5q0 -112 -50 -202t-138.5 -148.5t-207 -89.5
t-256.5 -31z" />
    <glyph glyph-name="sacute" unicode="&#x15b;" horiz-adv-x="1069" 
d="M698 1159h-217l195 275h303zM457 -31q-230 0 -347 107t-83 274h266q-17 -81 33.5 -122.5t150.5 -41.5q93 0 151 34t58 83q0 29 -25 50t-66 32.5t-93.5 23.5t-107.5 23t-107.5 32t-93.5 49.5t-66 77t-25 111.5q0 111 68.5 192.5t179 121t246.5 39.5q146 0 250.5 -47
t147 -136.5t3.5 -205.5h-270q29 81 -13.5 125.5t-138.5 44.5q-87 0 -136.5 -32t-49.5 -79q0 -34 32.5 -57t84.5 -36t114.5 -25t125 -31t114.5 -46.5t84.5 -79t32.5 -122.5q0 -112 -74.5 -195.5t-191 -123.5t-254.5 -40z" />
    <glyph glyph-name="Scedilla" unicode="&#x15e;" horiz-adv-x="1445" 
d="M1356 954h-295q36 134 -22.5 202.5t-204.5 68.5q-135 0 -220.5 -54.5t-85.5 -142.5q0 -47 26.5 -81t71.5 -55t103 -36.5t122.5 -30t128.5 -32t122 -45.5t103 -66.5t71.5 -100t26.5 -141.5q0 -107 -46.5 -195t-128.5 -146.5t-192.5 -91.5t-241.5 -38q-12 -20 -37 -41
q93 -7 148 -54t55 -118q0 -92 -87.5 -144t-209.5 -52q-144 0 -209 68.5t-35 154.5h177q-13 -46 8.5 -70t68.5 -24q48 0 78.5 23.5t30.5 62.5q0 67 -102 67q-55 0 -103 -20l-45 100q64 18 105 53q-245 28 -356.5 162.5t-59.5 339.5h295q-29 -134 39.5 -201t220.5 -67
q147 0 235 57t88 146q0 46 -26.5 79.5t-71.5 53.5t-103 35.5t-122 29.5t-128 31t-122 44.5t-103 65t-71.5 98t-26.5 138.5q0 142 82.5 251t226.5 167.5t326 58.5q192 0 320.5 -63.5t174.5 -179.5t1 -267z" />
    <glyph glyph-name="scedilla" unicode="&#x15f;" horiz-adv-x="1069" 
d="M997 666h-270q29 81 -13.5 125.5t-138.5 44.5q-87 0 -136.5 -32t-49.5 -79q0 -34 32.5 -57t84.5 -36t114.5 -25t125 -31t114.5 -46.5t84.5 -79t32.5 -122.5q0 -106 -66.5 -186.5t-172 -122.5t-234.5 -48q-15 -24 -37 -43q93 -7 148 -54t55 -118q0 -92 -87.5 -144
t-209.5 -52q-144 0 -209 68.5t-35 154.5h176q-13 -46 9 -70t69 -24q48 0 78.5 23.5t30.5 62.5q0 67 -103 67q-54 0 -102 -20l-45 100q59 16 104 55q-177 25 -262.5 126t-56.5 247h266q-17 -81 33.5 -122.5t150.5 -41.5q93 0 151 34t58 83q0 29 -25 50t-66 32.5t-93.5 23.5
t-107.5 23t-107.5 32t-93.5 49.5t-66 77t-25 111.5q0 111 68.5 192.5t179 121t246.5 39.5q146 0 250.5 -47t147 -136.5t3.5 -205.5z" />
    <glyph glyph-name="Scaron" unicode="&#x160;" horiz-adv-x="1445" 
d="M1321 1749l-285 -242h-276l-203 242h254l102 -117l142 117h266zM1356 954h-295q36 134 -22.5 202.5t-204.5 68.5q-135 0 -220.5 -54.5t-85.5 -142.5q0 -47 26.5 -81t71.5 -55t103 -36.5t122.5 -30t128.5 -32t122 -45.5t103 -66.5t71.5 -100t26.5 -141.5q0 -112 -50 -202
t-138.5 -148.5t-207 -89.5t-256.5 -31q-300 0 -444.5 139.5t-85.5 368.5h295q-29 -134 39.5 -201t220.5 -67q147 0 235 57t88 146q0 46 -26.5 79.5t-71.5 53.5t-103 35.5t-122 29.5t-128 31t-122 44.5t-103 65t-71.5 98t-26.5 138.5q0 142 82.5 251t226.5 167.5t326 58.5
q192 0 320.5 -63.5t174.5 -179.5t1 -267z" />
    <glyph glyph-name="scaron" unicode="&#x161;" horiz-adv-x="1069" 
d="M1049 1434l-265 -275h-276l-166 275h250l74 -121l118 121h265zM596 1055q146 0 250.5 -47t147 -136.5t3.5 -205.5h-270q29 81 -13.5 125.5t-138.5 44.5q-87 0 -136.5 -32t-49.5 -79q0 -34 32.5 -57t84.5 -36t114.5 -25t125 -31t114.5 -46.5t84.5 -79t32.5 -122.5
q0 -112 -74.5 -195.5t-191 -123.5t-254.5 -40q-230 0 -347 107t-83 274h266q-17 -81 33.5 -122.5t150.5 -41.5q93 0 151 34t58 83q0 29 -25 50t-66 32.5t-93.5 23.5t-107.5 23t-107.5 32t-93.5 49.5t-66 77t-25 111.5q0 111 68.5 192.5t179 121t246.5 39.5z" />
    <glyph glyph-name="uni0162" unicode="&#x162;" horiz-adv-x="1355" 
d="M735 0h-86q-16 -40 -51 -72q93 -7 148 -54t55 -118q0 -92 -87.5 -144t-209.5 -52q-144 0 -209 68.5t-35 154.5h176q-13 -46 9 -70t69 -24q48 0 78.5 23.5t30.5 62.5q0 67 -103 67q-54 0 -102 -20l-45 100q82 23 127 78h-60l213 1198h-493l43 236h1278l-43 -236h-490z" />
    <glyph glyph-name="uni0163" unicode="&#x163;" horiz-adv-x="851" 
d="M856 788h-297l-82 -466q-22 -115 92 -115q69 0 162 57l-29 -248q-70 -45 -194 -45h-29q-15 -24 -37 -43q92 -7 146.5 -54t54.5 -118q0 -92 -86.5 -144t-208.5 -52q-144 0 -210 68.5t-36 154.5h177q-13 -46 9 -70t70 -24t77.5 23.5t29.5 62.5q0 67 -100 67q-58 0 -103 -20
l-45 100q83 24 127 78q-186 80 -139 358l76 430h-205l41 236h205l49 281h278l-49 -281h295z" />
    <glyph glyph-name="Tcaron" unicode="&#x164;" horiz-adv-x="1355" 
d="M1282 1749l-285 -242h-276l-203 242h254l102 -117l142 117h266zM203 1434h1278l-43 -236h-490l-213 -1198h-295l213 1198h-493z" />
    <glyph glyph-name="tcaron" unicode="&#x165;" horiz-adv-x="851" 
d="M758 1434h229l-139 -357h-172zM371 1305h278l-49 -281h295l-39 -236h-297l-82 -466q-22 -115 92 -115q69 0 162 57l-29 -248q-70 -45 -194 -45q-72 0 -127.5 16.5t-89 42t-55 62.5t-30 71t-10 74.5t1 67t7.5 53.5l76 430h-205l41 236h205z" />
    <glyph glyph-name="Tbar" unicode="&#x166;" horiz-adv-x="1355" 
d="M1481 1434l-43 -236h-490l-74 -405h220l-39 -220h-217l-103 -573h-295l103 573h-228l39 220h226l73 405h-493l43 236h1278z" />
    <glyph glyph-name="tbar" unicode="&#x167;" horiz-adv-x="851" 
d="M895 1024l-39 -236h-297l-27 -155h213l-30 -172h-213l-25 -139q-22 -115 92 -115q69 0 162 57l-29 -248q-70 -45 -194 -45q-72 0 -127.5 16.5t-89 42t-55 62.5t-30 71t-10 74.5t1 67t7.5 53.5l18 103h-129l31 172h127l29 155h-205l41 236h205l49 281h278l-49 -281h295z
" />
    <glyph glyph-name="Utilde" unicode="&#x168;" horiz-adv-x="1509" 
d="M772 1524h-166q-21 118 35 180.5t158 62.5q57 0 108 -21.5t91 -43t69 -21.5q34 0 53 22t13 58h165q13 -115 -42.5 -181.5t-163.5 -66.5q-58 0 -107 21.5t-87 43t-69 21.5q-34 0 -49.5 -22t-7.5 -53zM686 -29q-303 0 -445 180.5t-87 495.5l139 787h295l-137 -783
q-37 -212 32 -321t228 -109q319 0 399 451l135 762h295l-143 -807q-56 -315 -240 -485.5t-471 -170.5z" />
    <glyph glyph-name="utilde" unicode="&#x169;" horiz-adv-x="1124" 
d="M522 1161h-176q-15 120 43 191t164 71q54 0 102.5 -21t85.5 -42t64 -21q35 0 52.5 25.5t12.5 58.5h181q17 -120 -46.5 -192t-177.5 -72q-43 0 -80.5 12.5t-59.5 27.5t-49 27.5t-50 12.5q-37 0 -55 -25t-11 -53zM756 528l86 496h278l-180 -1024h-278l26 160
q-66 -88 -156.5 -135.5t-193.5 -47.5q-77 0 -132.5 27t-86 71.5t-44.5 108t-12.5 131t15.5 144.5l96 565h279l-101 -588q-7 -38 -9 -68t2 -62t16.5 -53.5t38 -35.5t63.5 -14q101 0 184 89.5t109 235.5z" />
    <glyph glyph-name="Umacron" unicode="&#x16a;" horiz-adv-x="1509" 
d="M1294 1532h-716l32 186h719zM686 -29q-303 0 -445 180.5t-87 495.5l139 787h295l-137 -783q-37 -212 32 -321t228 -109q319 0 399 451l135 762h295l-143 -807q-56 -315 -240 -485.5t-471 -170.5z" />
    <glyph glyph-name="umacron" unicode="&#x16b;" horiz-adv-x="1124" 
d="M371 1376h682l-37 -198h-680zM756 528l86 496h278l-180 -1024h-278l26 160q-66 -88 -156.5 -135.5t-193.5 -47.5q-77 0 -132.5 27t-86 71.5t-44.5 108t-12.5 131t15.5 144.5l96 565h279l-101 -588q-7 -38 -9 -68t2 -62t16.5 -53.5t38 -35.5t63.5 -14q101 0 184 89.5
t109 235.5z" />
    <glyph glyph-name="Ubreve" unicode="&#x16c;" horiz-adv-x="1509" 
d="M940 1503q-142 0 -219.5 66.5t-56.5 179.5h196q-6 -36 19.5 -59t76.5 -23t84.5 22.5t44.5 59.5h201q-20 -115 -113.5 -180.5t-232.5 -65.5zM686 -29q-303 0 -445 180.5t-87 495.5l139 787h295l-137 -783q-37 -212 32 -321t228 -109q319 0 399 451l135 762h295l-143 -807
q-56 -315 -240 -485.5t-471 -170.5z" />
    <glyph glyph-name="ubreve" unicode="&#x16d;" horiz-adv-x="1124" 
d="M686 1130q-155 0 -243.5 87t-77.5 217h215q-5 -59 26.5 -90t95.5 -31q124 0 154 121h219q-24 -140 -132 -222t-257 -82zM756 528l86 496h278l-180 -1024h-278l26 160q-66 -88 -156.5 -135.5t-193.5 -47.5q-77 0 -132.5 27t-86 71.5t-44.5 108t-12.5 131t15.5 144.5
l96 565h279l-101 -588q-7 -38 -9 -68t2 -62t16.5 -53.5t38 -35.5t63.5 -14q101 0 184 89.5t109 235.5z" />
    <glyph glyph-name="Uring" unicode="&#x16e;" horiz-adv-x="1509" 
d="M944 1466q-85 0 -141.5 48t-57.5 128q-1 89 63.5 149t160.5 60q86 0 145.5 -51t59.5 -131q0 -91 -68 -147t-162 -56zM952 1599q32 0 51 19t19 47q0 51 -57 51q-33 0 -51.5 -19t-18.5 -46q0 -52 57 -52zM686 -29q-303 0 -445 180.5t-87 495.5l139 787h295l-137 -783
q-37 -212 32 -321t228 -109q319 0 399 451l135 762h295l-143 -807q-56 -315 -240 -485.5t-471 -170.5z" />
    <glyph glyph-name="uring" unicode="&#x16f;" horiz-adv-x="1124" 
d="M690 1139q-88 0 -145.5 52.5t-57.5 133.5q0 88 67 146.5t161 58.5q87 0 143.5 -53.5t56.5 -133.5q0 -88 -65.5 -146t-159.5 -58zM709 1395q-29 0 -49.5 -19.5t-20.5 -48.5q0 -53 57 -53q31 0 51.5 18t20.5 47q0 26 -16 41t-43 15zM756 528l86 496h278l-180 -1024h-278
l26 160q-66 -88 -156.5 -135.5t-193.5 -47.5q-77 0 -132.5 27t-86 71.5t-44.5 108t-12.5 131t15.5 144.5l96 565h279l-101 -588q-7 -38 -9 -68t2 -62t16.5 -53.5t38 -35.5t63.5 -14q101 0 184 89.5t109 235.5z" />
    <glyph glyph-name="Uhungarumlaut" unicode="&#x170;" horiz-adv-x="1509" 
d="M862 1507h-176l92 242h260zM1171 1507h-190l154 242h258zM686 -29q-303 0 -445 180.5t-87 495.5l139 787h295l-137 -783q-37 -212 32 -321t228 -109q319 0 399 451l135 762h295l-143 -807q-56 -315 -240 -485.5t-471 -170.5z" />
    <glyph glyph-name="uhungarumlaut" unicode="&#x171;" horiz-adv-x="1124" 
d="M438 1434h295l-233 -275h-209zM1128 1434l-231 -275h-209l146 275h294zM756 528l86 496h278l-180 -1024h-278l26 160q-66 -88 -156.5 -135.5t-193.5 -47.5q-77 0 -132.5 27t-86 71.5t-44.5 108t-12.5 131t15.5 144.5l96 565h279l-101 -588q-7 -38 -9 -68t2 -62
t16.5 -53.5t38 -35.5t63.5 -14q101 0 184 89.5t109 235.5z" />
    <glyph glyph-name="Uogonek" unicode="&#x172;" horiz-adv-x="1509" 
d="M1110 672l135 762h295l-143 -807q-49 -282 -202.5 -448.5t-393.5 -198.5q-76 -24 -123 -58.5t-47 -71.5q0 -45 71 -45q52 0 121 21l-28 -246q-62 -20 -152 -20q-136 0 -206 47.5t-70 124.5q0 69 57.5 133t159.5 112q-252 31 -366.5 207.5t-63.5 462.5l139 787h295
l-137 -783q-37 -212 32 -321t228 -109q319 0 399 451z" />
    <glyph glyph-name="uogonek" unicode="&#x173;" horiz-adv-x="1124" 
d="M842 1024h278l-180 -1024h-51v-2q-104 -20 -176 -60.5t-72 -87.5q0 -45 72 -45q52 0 121 21l-29 -246q-62 -20 -152 -20q-136 0 -206 47.5t-70 124.5q0 81 76 152t209 122l26 154q-66 -88 -156.5 -135.5t-193.5 -47.5q-77 0 -132.5 27t-86 71.5t-44.5 108t-12.5 131
t15.5 144.5l96 565h279l-101 -588q-7 -38 -9 -68t2 -62t16.5 -53.5t38 -35.5t63.5 -14q101 0 184 89.5t109 235.5z" />
    <glyph glyph-name="Wcircumflex" unicode="&#x174;" horiz-adv-x="2091" 
d="M1341 1507l-102 125l-147 -125h-263l275 242h295l190 -242h-248zM1423 319l500 1115h313l-675 -1434h-347l-61 1174l-471 -1174h-336l-166 1434h295l105 -1115l442 1115h354z" />
    <glyph glyph-name="wcircumflex" unicode="&#x175;" horiz-adv-x="1671" 
d="M1049 1159l-74 125l-119 -125h-264l264 275h274l168 -275h-249zM1112 242l334 782h299l-481 -1024h-351l-47 698l-291 -698h-350l-119 1024h293l52 -803l325 803h295z" />
    <glyph glyph-name="Ycircumflex" unicode="&#x176;" horiz-adv-x="1458" 
d="M1030 1507l-102 125l-148 -125h-262l275 242h294l191 -242h-248zM1272 1434h332l-717 -875l-101 -559h-294l102 580l-414 854h322l268 -613z" />
    <glyph glyph-name="ycircumflex" unicode="&#x177;" horiz-adv-x="1081" 
d="M752 1159l-74 125l-119 -125h-264l264 275h275l167 -275h-249zM512 276l354 748h297l-581 -1135q-81 -159 -197 -244t-283 -85q-90 0 -180 32l23 230q77 -27 133 -27q148 0 256 152l-234 1077h291z" />
    <glyph glyph-name="Ydieresis" unicode="&#x178;" horiz-adv-x="1458" 
d="M676 1511q-60 0 -97.5 37.5t-37.5 96.5q0 66 45.5 110.5t111.5 44.5q60 0 96.5 -38.5t36.5 -98.5q0 -67 -44.5 -109.5t-110.5 -42.5zM1128 1511q-60 0 -97.5 37.5t-37.5 96.5q0 66 45 110.5t111 44.5q60 0 97.5 -38.5t37.5 -98.5q0 -66 -45 -109t-111 -43zM1272 1434h332
l-717 -875l-101 -559h-294l102 580l-414 854h322l268 -613z" />
    <glyph glyph-name="Zacute" unicode="&#x179;" horiz-adv-x="1308" 
d="M877 1749h301l-275 -242h-217zM274 1434h1106l-34 -211l-967 -987h811l-43 -236h-1165l36 211l967 987h-754z" />
    <glyph glyph-name="zacute" unicode="&#x17a;" horiz-adv-x="1040" 
d="M682 1434h303l-280 -275h-218zM207 1024h850l-21 -133l-680 -688h578l-37 -203h-903l33 203l600 602h-459z" />
    <glyph glyph-name="Zdotaccent" unicode="&#x17b;" horiz-adv-x="1308" 
d="M831 1511q-66 0 -107.5 41.5t-41.5 106.5q0 73 50.5 124.5t123.5 51.5q65 0 107.5 -42.5t42.5 -106.5q0 -72 -51 -123.5t-124 -51.5zM274 1434h1106l-34 -211l-967 -987h811l-43 -236h-1165l36 211l967 987h-754z" />
    <glyph glyph-name="zdotaccent" unicode="&#x17c;" horiz-adv-x="1040" 
d="M666 1153q-66 0 -109 42.5t-43 107.5q0 73 51 123.5t125 50.5q65 0 106.5 -42t41.5 -106q0 -74 -50 -125t-122 -51zM207 1024h850l-21 -133l-680 -688h578l-37 -203h-903l33 203l600 602h-459z" />
    <glyph glyph-name="Zcaron" unicode="&#x17d;" horiz-adv-x="1308" 
d="M1260 1749l-285 -242h-277l-202 242h254l102 -117l141 117h267zM274 1434h1106l-34 -211l-967 -987h811l-43 -236h-1165l36 211l967 987h-754z" />
    <glyph glyph-name="zcaron" unicode="&#x17e;" horiz-adv-x="1040" 
d="M1055 1434l-264 -275h-277l-166 275h250l74 -121l119 121h264zM207 1024h850l-21 -133l-680 -688h578l-37 -203h-903l33 203l600 602h-459z" />
    <glyph glyph-name="uni0191" unicode="&#x191;" horiz-adv-x="956" 
d="M868 1456q136 0 230 -67l-60 -236q-51 57 -135 57q-102 0 -141 -110l-23 -80h262l-51 -244h-276l-258 -905q-43 -146 -137 -226.5t-240 -80.5q-119 0 -199 41l60 243q61 -26 104 -26q96 0 131 108l238 846h-193l49 244h209l41 139q39 136 141.5 216.5t247.5 80.5z" />
    <glyph glyph-name="florin" unicode="&#x192;" horiz-adv-x="956" 
d="M868 1456q136 0 230 -67l-60 -236q-51 57 -135 57q-102 0 -141 -110l-23 -80h262l-51 -244h-276l-258 -905q-43 -146 -137 -226.5t-240 -80.5q-119 0 -199 41l60 243q61 -26 104 -26q96 0 131 108l238 846h-193l49 244h209l41 139q39 136 141.5 216.5t247.5 80.5z" />
    <glyph glyph-name="Ohorn" unicode="&#x1a0;" horiz-adv-x="1656" 
d="M1475 1642h200q26 -264 -223 -378q147 -170 147 -435q0 -170 -64 -327.5t-174 -275t-267 -187.5t-334 -70q-286 0 -458.5 174t-172.5 461q0 172 65 330t176 274.5t268 186t333 69.5q194 0 344 -86q94 51 126 111t34 153zM780 215q113 0 211.5 52.5t164.5 138.5t104 195.5
t38 223.5q0 184 -94 289t-256 105q-150 0 -270.5 -89.5t-184 -228.5t-63.5 -293q0 -186 94 -289.5t256 -103.5z" />
    <glyph glyph-name="ohorn" unicode="&#x1a1;" horiz-adv-x="1206" 
d="M1075 1231h197q-1 -55 -13.5 -108t-37 -103t-70 -81t-104.5 -32q102 -117 102 -311q0 -171 -79.5 -314t-225 -228t-326.5 -85q-220 0 -346.5 123t-126.5 338q0 172 81.5 315t227.5 226.5t326 83.5q31 0 73 -2.5t70 -4.5t62 -1.5t57 5t47.5 16.5t40 32.5t28 53t17.5 77.5z
M545 207q93 0 167 55t112 140t38 180q0 112 -56 173.5t-155 61.5q-139 0 -229 -112.5t-90 -260.5q0 -112 56.5 -174.5t156.5 -62.5z" />
    <glyph glyph-name="Uhorn" unicode="&#x1af;" horiz-adv-x="1509" 
d="M1505 1642h201q17 -272 -186 -329l-123 -686q-56 -315 -240 -485.5t-471 -170.5q-303 0 -445 180.5t-87 495.5l139 787h295l-137 -783q-37 -212 32 -321t228 -109q319 0 399 451l135 762h129q128 0 131 208z" />
    <glyph glyph-name="uhorn" unicode="&#x1b0;" horiz-adv-x="1165" 
d="M1085 1233h201q17 -273 -186 -330l-160 -903h-278l26 160q-66 -88 -156.5 -135.5t-193.5 -47.5q-77 0 -132.5 27t-86 71.5t-44.5 108t-12.5 131t15.5 144.5l96 565h279l-101 -588q-7 -38 -9 -68t2 -62t16.5 -53.5t38 -35.5t63.5 -14q101 0 184 89.5t109 235.5l86 496h112
q128 0 131 209z" />
    <glyph glyph-name="uni01CD" unicode="&#x1cd;" horiz-adv-x="1505" 
d="M1356 1749l-285 -242h-276l-203 242h254l102 -117l142 117h266zM1397 0h-295l-58 283h-641l-155 -283h-320l809 1434h355zM874 1137l-339 -617h462z" />
    <glyph glyph-name="uni01CE" unicode="&#x1ce;" horiz-adv-x="1120" 
d="M1092 1434l-265 -275h-276l-166 275h250l74 -121l118 121h265zM606 1055q242 0 359.5 -137.5t76.5 -368.5l-98 -549h-244l31 172q-149 -203 -395 -203q-154 0 -241 74.5t-87 200.5q0 114 72.5 198t191 125t267.5 41q119 0 229 -28l2 6q3 28 5 59t-8 62.5t-27.5 56.5
t-54.5 41t-87 16q-83 0 -126 -40.5t-38 -104.5h-274q-13 118 44.5 205.5t162 130.5t239.5 43zM412 176q102 0 191.5 60t144.5 161q-79 27 -181 27q-126 0 -204 -40t-78 -114q0 -94 127 -94z" />
    <glyph glyph-name="uni01CF" unicode="&#x1cf;" horiz-adv-x="610" 
d="M500 1632l141 117h266l-284 -242h-277l-203 242h254zM362 0h-296l253 1434h297z" />
    <glyph glyph-name="uni01D0" unicode="&#x1d0;" horiz-adv-x="489" 
d="M383 1313l119 121h264l-264 -275h-277l-166 275h250zM293 0h-279l181 1024h278z" />
    <glyph glyph-name="uni01D1" unicode="&#x1d1;" horiz-adv-x="1656" 
d="M1434 1749l-285 -242h-277l-202 242h254l102 -117l141 117h267zM971 1464q285 0 456.5 -172.5t171.5 -462.5q0 -170 -64 -327.5t-174 -275t-267 -187.5t-334 -70q-286 0 -458.5 174t-172.5 461q0 172 65 330t176 274.5t268 186t333 69.5zM780 215q113 0 211.5 52.5
t164.5 138.5t104 195.5t38 223.5q0 184 -94 289t-256 105q-150 0 -270.5 -89.5t-184 -228.5t-63.5 -293q0 -186 94 -289.5t256 -103.5z" />
    <glyph glyph-name="uni01D2" unicode="&#x1d2;" horiz-adv-x="1196" 
d="M1116 1434l-264 -275h-277l-165 275h249l74 -121l119 121h264zM680 1055q216 0 342.5 -122t126.5 -337q0 -171 -79.5 -314t-225 -228t-326.5 -85q-220 0 -346.5 123t-126.5 338q0 172 81.5 315t227.5 226.5t326 83.5zM545 207q93 0 167 55t112 140t38 180
q0 112 -56 173.5t-155 61.5q-139 0 -229 -112.5t-90 -260.5q0 -112 56.5 -174.5t156.5 -62.5z" />
    <glyph glyph-name="uni01D3" unicode="&#x1d3;" horiz-adv-x="1509" 
d="M1360 1749l-285 -242h-276l-203 242h254l102 -117l142 117h266zM1110 672l135 762h295l-143 -807q-56 -315 -240 -485.5t-471 -170.5q-303 0 -445 180.5t-87 495.5l139 787h295l-137 -783q-37 -212 32 -321t228 -109q319 0 399 451z" />
    <glyph glyph-name="uni01D4" unicode="&#x1d4;" horiz-adv-x="1124" 
d="M1077 1434l-264 -275h-276l-166 275h250l73 -121l119 121h264zM756 528l86 496h278l-180 -1024h-278l26 160q-66 -88 -156.5 -135.5t-193.5 -47.5q-77 0 -132.5 27t-86 71.5t-44.5 108t-12.5 131t15.5 144.5l96 565h279l-101 -588q-7 -38 -9 -68t2 -62t16.5 -53.5
t38 -35.5t63.5 -14q101 0 184 89.5t109 235.5z" />
    <glyph glyph-name="uni01D5" unicode="&#x1d5;" horiz-adv-x="1509" 
d="M1327 1882h-717l33 186h719zM705 1511q-60 0 -98 37.5t-38 96.5q0 66 46 110.5t112 44.5q60 0 96.5 -38.5t36.5 -98.5q0 -67 -44.5 -109.5t-110.5 -42.5zM1157 1511q-60 0 -97.5 37.5t-37.5 96.5q0 66 45 110.5t111 44.5q60 0 97.5 -38.5t37.5 -98.5q0 -66 -45 -109
t-111 -43zM686 -29q-303 0 -445 180.5t-87 495.5l139 787h295l-137 -783q-37 -212 32 -321t228 -109q319 0 399 451l135 762h295l-143 -807q-56 -315 -240 -485.5t-471 -170.5z" />
    <glyph glyph-name="uni01D6" unicode="&#x1d6;" horiz-adv-x="1124" 
d="M436 1743h682l-37 -199h-680zM485 1153q-60 0 -97.5 38t-37.5 97q0 65 45 110.5t111 45.5q60 0 97.5 -38.5t37.5 -98.5q0 -67 -45.5 -110.5t-110.5 -43.5zM752 1288q0 65 45.5 110.5t111.5 45.5q60 0 96.5 -38.5t36.5 -98.5q0 -67 -44.5 -110.5t-110.5 -43.5
q-60 0 -97.5 38t-37.5 97zM756 528l86 496h278l-180 -1024h-278l26 160q-66 -88 -156.5 -135.5t-193.5 -47.5q-77 0 -132.5 27t-86 71.5t-44.5 108t-12.5 131t15.5 144.5l96 565h279l-101 -588q-7 -38 -9 -68t2 -62t16.5 -53.5t38 -35.5t63.5 -14q101 0 184 89.5t109 235.5z
" />
    <glyph glyph-name="uni01D7" unicode="&#x1d7;" horiz-adv-x="1509" 
d="M1036 1858h-217l191 241h301zM705 1511q-60 0 -98 37.5t-38 96.5q0 66 46 110.5t112 44.5q60 0 96.5 -38.5t36.5 -98.5q0 -67 -44.5 -109.5t-110.5 -42.5zM1157 1511q-60 0 -97.5 37.5t-37.5 96.5q0 66 45 110.5t111 44.5q60 0 97.5 -38.5t37.5 -98.5q0 -66 -45 -109
t-111 -43zM686 -29q-303 0 -445 180.5t-87 495.5l139 787h295l-137 -783q-37 -212 32 -321t228 -109q319 0 399 451l135 762h295l-143 -807q-56 -315 -240 -485.5t-471 -170.5z" />
    <glyph glyph-name="uni01D8" unicode="&#x1d8;" horiz-adv-x="1124" 
d="M768 1800h303l-280 -274h-218zM485 1153q-60 0 -97.5 38t-37.5 97q0 65 45 110.5t111 45.5q60 0 97.5 -38.5t37.5 -98.5q0 -67 -45.5 -110.5t-110.5 -43.5zM752 1288q0 65 45.5 110.5t111.5 45.5q60 0 96.5 -38.5t36.5 -98.5q0 -67 -44.5 -110.5t-110.5 -43.5
q-60 0 -97.5 38t-37.5 97zM756 528l86 496h278l-180 -1024h-278l26 160q-66 -88 -156.5 -135.5t-193.5 -47.5q-77 0 -132.5 27t-86 71.5t-44.5 108t-12.5 131t15.5 144.5l96 565h279l-101 -588q-7 -38 -9 -68t2 -62t16.5 -53.5t38 -35.5t63.5 -14q101 0 184 89.5t109 235.5z
" />
    <glyph glyph-name="uni01D9" unicode="&#x1d9;" horiz-adv-x="1509" 
d="M1391 2099l-285 -241h-277l-202 241h254l102 -117l141 117h267zM705 1511q-60 0 -98 37.5t-38 96.5q0 66 46 110.5t112 44.5q60 0 96.5 -38.5t36.5 -98.5q0 -67 -44.5 -109.5t-110.5 -42.5zM1022 1645q0 66 45 110.5t111 44.5q60 0 97.5 -38.5t37.5 -98.5q0 -66 -45 -109
t-111 -43q-60 0 -97.5 37.5t-37.5 96.5zM1110 672l135 762h295l-143 -807q-56 -315 -240 -485.5t-471 -170.5q-303 0 -445 180.5t-87 495.5l139 787h295l-137 -783q-37 -212 32 -321t228 -109q319 0 399 451z" />
    <glyph glyph-name="uni01DA" unicode="&#x1da;" horiz-adv-x="1124" 
d="M1143 1800l-264 -274h-277l-166 274h250l74 -121l119 121h264zM485 1153q-60 0 -97.5 38t-37.5 97q0 65 45 110.5t111 45.5q60 0 97.5 -38.5t37.5 -98.5q0 -67 -45.5 -110.5t-110.5 -43.5zM752 1288q0 65 45.5 110.5t111.5 45.5q60 0 96.5 -38.5t36.5 -98.5
q0 -67 -44.5 -110.5t-110.5 -43.5q-60 0 -97.5 38t-37.5 97zM756 528l86 496h278l-180 -1024h-278l26 160q-66 -88 -156.5 -135.5t-193.5 -47.5q-77 0 -132.5 27t-86 71.5t-44.5 108t-12.5 131t15.5 144.5l96 565h279l-101 -588q-7 -38 -9 -68t2 -62t16.5 -53.5t38 -35.5
t63.5 -14q101 0 184 89.5t109 235.5z" />
    <glyph glyph-name="uni01DB" unicode="&#x1db;" horiz-adv-x="1509" 
d="M1112 1858h-205l-188 241h291zM705 1511q-60 0 -98 37.5t-38 96.5q0 66 46 110.5t112 44.5q60 0 96.5 -38.5t36.5 -98.5q0 -67 -44.5 -109.5t-110.5 -42.5zM1157 1511q-60 0 -97.5 37.5t-37.5 96.5q0 66 45 110.5t111 44.5q60 0 97.5 -38.5t37.5 -98.5q0 -66 -45 -109
t-111 -43zM686 -29q-303 0 -445 180.5t-87 495.5l139 787h295l-137 -783q-37 -212 32 -321t228 -109q319 0 399 451l135 762h295l-143 -807q-56 -315 -240 -485.5t-471 -170.5z" />
    <glyph glyph-name="uni01DC" unicode="&#x1dc;" horiz-adv-x="1124" 
d="M819 1800l99 -274h-203l-187 274h291zM485 1153q-60 0 -97.5 38t-37.5 97q0 65 45 110.5t111 45.5q60 0 97.5 -38.5t37.5 -98.5q0 -67 -45.5 -110.5t-110.5 -43.5zM752 1288q0 65 45.5 110.5t111.5 45.5q60 0 96.5 -38.5t36.5 -98.5q0 -67 -44.5 -110.5t-110.5 -43.5
q-60 0 -97.5 38t-37.5 97zM756 528l86 496h278l-180 -1024h-278l26 160q-66 -88 -156.5 -135.5t-193.5 -47.5q-77 0 -132.5 27t-86 71.5t-44.5 108t-12.5 131t15.5 144.5l96 565h279l-101 -588q-7 -38 -9 -68t2 -62t16.5 -53.5t38 -35.5t63.5 -14q101 0 184 89.5t109 235.5z
" />
    <glyph glyph-name="Gcaron" unicode="&#x1e6;" horiz-adv-x="1595" 
d="M1432 1749l-285 -242h-277l-202 242h254l102 -117l141 117h267zM846 768h743l-43 -238h-303q127 -68 127 -204q0 -107 -82 -189.5t-213.5 -125t-286.5 -42.5q-308 0 -482.5 172.5t-174.5 466.5q0 174 63 330.5t173.5 272.5t269.5 184.5t342 68.5q140 0 250.5 -38.5
t179 -110t92 -174.5t-9.5 -232h-303q41 152 -27.5 230t-214.5 78q-117 0 -216 -51t-163 -136t-99.5 -192t-35.5 -222q0 -191 95.5 -296t269.5 -105q123 0 201.5 50.5t78.5 125.5q0 67 -70.5 102t-203.5 37z" />
    <glyph glyph-name="gcaron" unicode="&#x1e7;" horiz-adv-x="1128" 
d="M1055 1434l-264 -275h-277l-166 275h250l74 -121l119 121h264zM1008 1151h188q3 -98 -43.5 -198t-122.5 -160q12 -47 12 -95q0 -148 -97.5 -270.5t-264.5 -208.5q126 -27 198 -101.5t72 -185.5q0 -108 -69.5 -193.5t-189 -132t-267.5 -46.5q-220 0 -346 104t-123 273h281
q0 -70 53.5 -105t144.5 -35q108 0 173 41t65 107q0 59 -57.5 92t-172.5 33q-130 0 -288 -43l26 170q239 28 402 131q-68 -11 -113 -11q-175 0 -280 89t-105 239q0 123 72.5 218t190 143.5t259.5 48.5q240 0 357 -133q59 95 45 229zM369 647q0 -61 45 -94t123 -33
q98 0 159.5 48t61.5 118q0 61 -47 96t-125 35q-97 0 -157 -49.5t-60 -120.5z" />
    <glyph glyph-name="uni0218" unicode="&#x218;" horiz-adv-x="1445" 
d="M1356 954h-295q36 134 -22.5 202.5t-204.5 68.5q-135 0 -220.5 -54.5t-85.5 -142.5q0 -47 26.5 -81t71.5 -55t103 -36.5t122.5 -30t128.5 -32t122 -45.5t103 -66.5t71.5 -100t26.5 -141.5q0 -112 -50 -202t-138.5 -148.5t-207 -89.5t-256.5 -31q-300 0 -444.5 139.5
t-85.5 368.5h295q-29 -134 39.5 -201t220.5 -67q147 0 235 57t88 146q0 46 -26.5 79.5t-71.5 53.5t-103 35.5t-122 29.5t-128 31t-122 44.5t-103 65t-71.5 98t-26.5 138.5q0 142 82.5 251t226.5 167.5t326 58.5q192 0 320.5 -63.5t174.5 -179.5t1 -267zM621 -82
q62 0 101.5 -35t39.5 -104q0 -102 -82 -160.5t-211 -58.5v112q128 0 166 49q-10 -2 -33 -2q-58 0 -88.5 25.5t-30.5 71.5q0 52 38 77t100 25z" />
    <glyph glyph-name="uni0219" unicode="&#x219;" horiz-adv-x="1069" 
d="M997 666h-270q29 81 -13.5 125.5t-138.5 44.5q-87 0 -136.5 -32t-49.5 -79q0 -34 32.5 -57t84.5 -36t114.5 -25t125 -31t114.5 -46.5t84.5 -79t32.5 -122.5q0 -112 -74.5 -195.5t-191 -123.5t-254.5 -40q-230 0 -347 107t-83 274h266q-17 -81 33.5 -122.5t150.5 -41.5
q93 0 151 34t58 83q0 29 -25 50t-66 32.5t-93.5 23.5t-107.5 23t-107.5 32t-93.5 49.5t-66 77t-25 111.5q0 111 68.5 192.5t179 121t246.5 39.5q146 0 250.5 -47t147 -136.5t3.5 -205.5zM428 -82q62 0 101.5 -35t39.5 -104q0 -102 -82 -160.5t-211 -58.5v112q128 0 166 49
q-10 -2 -32 -2q-58 0 -88.5 25.5t-30.5 71.5q0 52 37.5 77t99.5 25z" />
    <glyph glyph-name="uni021A" unicode="&#x21a;" horiz-adv-x="1355" 
d="M203 1434h1278l-43 -236h-490l-213 -1198h-295l213 1198h-493zM559 -82q62 0 101.5 -35t39.5 -104q0 -102 -81.5 -160.5t-210.5 -58.5v112q127 0 165 49q-10 -2 -32 -2q-58 0 -88.5 25.5t-30.5 71.5q0 52 37.5 77t99.5 25z" />
    <glyph glyph-name="uni021B" unicode="&#x21b;" horiz-adv-x="851" 
d="M856 788h-297l-82 -466q-22 -115 92 -115q69 0 162 57l-29 -248q-70 -45 -194 -45q-72 0 -127.5 16.5t-89 42t-55 62.5t-30 71t-10 74.5t1 67t7.5 53.5l76 430h-205l41 236h205l49 281h278l-49 -281h295zM385 -82q62 0 101.5 -35t39.5 -104q0 -102 -82 -160.5t-211 -58.5
v112q128 0 166 49q-10 -2 -32 -2q-58 0 -88.5 25.5t-30.5 71.5q0 52 37.5 77t99.5 25z" />
    <glyph glyph-name="uni0237" unicode="&#x237;" horiz-adv-x="616" 
d="M31 -440q-114 0 -197 51l39 221q53 -35 123 -35q36 0 62.5 14.5t41.5 41t22.5 50.5t12.5 56l187 1065h278l-190 -1083q-21 -118 -50 -181q-92 -200 -329 -200z" />
    <glyph glyph-name="uni0259" unicode="&#x259;" horiz-adv-x="1175" 
d="M643 1055q226 0 355.5 -128t129.5 -345q0 -171 -78 -310.5t-220.5 -221t-321.5 -81.5q-113 0 -205.5 33.5t-151 93t-87 136t-17.5 169t62 185.5h735q-5 111 -61.5 171t-157.5 60q-80 0 -141 -34t-95 -91h-307q75 171 222.5 267t338.5 96zM526 190q109 0 185 63.5
t110 166.5h-467q-33 -100 13.5 -165t158.5 -65z" />
    <glyph glyph-name="circumflex" unicode="&#x2c6;" horiz-adv-x="870" 
d="M735 1434l168 -275h-250l-73 125l-119 -125h-264l264 275h274z" />
    <glyph glyph-name="caron" unicode="&#x2c7;" horiz-adv-x="870" 
d="M567 1313l119 121h264l-264 -275h-276l-166 275h250z" />
    <glyph glyph-name="breve" unicode="&#x2d8;" horiz-adv-x="874" 
d="M565 1130q-155 0 -243.5 87t-77.5 217h215q-5 -59 27 -90t96 -31q123 0 153 121h219q-24 -140 -132 -222t-257 -82z" />
    <glyph glyph-name="dotaccent" unicode="&#x2d9;" horiz-adv-x="454" 
d="M375 1153q-66 0 -109 42.5t-43 107.5q0 73 50.5 123.5t125.5 50.5q65 0 106.5 -42t41.5 -106q0 -74 -50 -125t-122 -51z" />
    <glyph glyph-name="ring" unicode="&#x2da;" horiz-adv-x="593" 
d="M430 1139q-88 0 -145.5 52.5t-57.5 133.5q0 88 67 146.5t161 58.5q87 0 143.5 -53.5t56.5 -133.5q0 -88 -65.5 -146t-159.5 -58zM436 1274q31 0 51.5 18t20.5 47q0 26 -16 41t-43 15q-29 0 -49.5 -19.5t-20.5 -48.5q0 -53 57 -53z" />
    <glyph glyph-name="ogonek" unicode="&#x2db;" horiz-adv-x="630" 
d="M223 -440q-136 0 -206 47.5t-70 124.5q0 112 141.5 203t364.5 128l6 -65q-104 -20 -176 -60.5t-72 -87.5q0 -45 72 -45q51 0 120 21l-28 -246q-62 -20 -152 -20z" />
    <glyph glyph-name="tilde" unicode="&#x2dc;" horiz-adv-x="854" 
d="M389 1161h-176q-15 120 43 191t164 71q54 0 102.5 -21t85.5 -42t64 -21q35 0 52.5 25.5t12.5 58.5h181q17 -120 -46.5 -192t-177.5 -72q-43 0 -80.5 12.5t-59.5 27.5t-49 27.5t-50 12.5q-37 0 -55 -25t-11 -53z" />
    <glyph glyph-name="hungarumlaut" unicode="&#x2dd;" horiz-adv-x="954" 
d="M406 1159h-209l147 275h295zM803 1159h-209l145 275h295z" />
    <glyph glyph-name="gravecomb" unicode="&#x300;" 
d="M33 1159h-203l-186 275h290z" />
    <glyph glyph-name="acutecomb" unicode="&#x301;" 
d="M-201 1159h-217l195 275h303z" />
    <glyph glyph-name="uni0302" unicode="&#x302;" 
d="M-135 1434l168 -275h-250l-74 125l-119 -125h-264l264 275h275z" />
    <glyph glyph-name="tildecomb" unicode="&#x303;" 
d="M-465 1161h-176q-15 120 43 191t164 71q54 0 102.5 -21t85.5 -42t64 -21q35 0 52.5 25.5t12.5 58.5h180q17 -120 -46 -192t-177 -72q-43 0 -80.5 12.5t-59.5 27.5t-49 27.5t-50 12.5q-37 0 -55 -25t-11 -53z" />
    <glyph glyph-name="uni0304" unicode="&#x304;" 
d="M35 1178h-680l35 198h682z" />
    <glyph glyph-name="uni0306" unicode="&#x306;" 
d="M-309 1130q-155 0 -244 87t-78 217h215q-5 -59 27 -90t96 -31q124 0 154 121h219q-24 -140 -132 -222t-257 -82z" />
    <glyph glyph-name="uni0307" unicode="&#x307;" 
d="M-113 1153q-66 0 -108.5 42.5t-42.5 107.5q0 73 51 123.5t125 50.5q65 0 106 -42t41 -106q0 -74 -50 -125t-122 -51z" />
    <glyph glyph-name="uni0308" unicode="&#x308;" 
d="M-502 1153q-60 0 -97.5 38t-37.5 97q0 65 45 110.5t111 45.5q60 0 97.5 -38.5t37.5 -98.5q0 -67 -45.5 -110.5t-110.5 -43.5zM-100 1153q-60 0 -98 38t-38 97q0 65 46 110.5t112 45.5q60 0 96.5 -38.5t36.5 -98.5q0 -67 -44.5 -110.5t-110.5 -43.5z" />
    <glyph glyph-name="hookabovecomb" unicode="&#x309;" 
d="M-219 1102l-25 84q52 8 83.5 29.5t31.5 54.5q0 65 -160 43l8 135q136 30 235 -13.5t99 -144.5q0 -84 -72 -128t-200 -60z" />
    <glyph glyph-name="uni030A" unicode="&#x30a;" 
d="M-164 1139q-88 0 -145.5 52.5t-57.5 133.5q0 88 67 146.5t161 58.5q87 0 143.5 -53.5t56.5 -133.5q0 -88 -65.5 -146t-159.5 -58zM-158 1274q31 0 51.5 18t20.5 47q0 26 -16 41t-43 15q-29 0 -49.5 -19.5t-20.5 -48.5q0 -53 57 -53z" />
    <glyph glyph-name="uni030B" unicode="&#x30b;" 
d="M-549 1159h-209l148 275h295zM-152 1159h-208l145 275h295z" />
    <glyph glyph-name="uni030C" unicode="&#x30c;" 
d="M-303 1313l119 121h264l-264 -275h-277l-166 275h250z" />
    <glyph glyph-name="uni0312" unicode="&#x312;" 
d="M53 1464l-2 -116q-117 0 -157 -43h12q133 0 133 -97q0 -51 -37.5 -75.5t-97.5 -24.5q-64 0 -105 34.5t-41 104.5q0 99 85 158t210 59z" />
    <glyph glyph-name="uni031B" unicode="&#x31b;" 
d="M-276 889l-27 135q128 0 131 209h201q3 -51 -1.5 -95.5t-23 -91.5t-51.5 -80.5t-91.5 -55t-137.5 -21.5z" />
    <glyph glyph-name="dotbelowcomb" unicode="&#x323;" 
d="M-393 -420q-65 0 -107.5 43t-42.5 109q0 72 49.5 122t122.5 50q67 0 109.5 -42.5t42.5 -107.5q0 -72 -50.5 -123t-123.5 -51z" />
    <glyph glyph-name="uni0326" unicode="&#x326;" 
d="M-356 -82q62 0 101.5 -35t39.5 -104q0 -102 -82 -160.5t-211 -58.5v112q128 0 166 49q-10 -2 -33 -2q-58 0 -88.5 25.5t-30.5 71.5q0 52 38 77t100 25z" />
    <glyph glyph-name="uni0327" unicode="&#x327;" 
d="M-420 -72q93 -7 148 -54t55 -118q0 -92 -87.5 -144t-209.5 -52q-144 0 -209 68.5t-35 154.5h176q-13 -46 9 -70t69 -24q48 0 78.5 23.5t30.5 62.5q0 67 -103 67q-54 0 -102 -20l-45 100q66 20 107.5 56.5t50.5 80.5l135 -2q-14 -81 -68 -129z" />
    <glyph glyph-name="uni0328" unicode="&#x328;" 
d="M-408 -440q-136 0 -206 47.5t-70 124.5q0 112 141.5 203t364.5 128l6 -65q-104 -20 -176 -60.5t-72 -87.5q0 -45 72 -45q52 0 121 21l-29 -246q-62 -20 -152 -20z" />
    <glyph glyph-name="uni0335" unicode="&#x335;" 
d="M33 1163h-621l31 172h620z" />
    <glyph glyph-name="uni0337" unicode="&#x337;" 
d="M-305 879l-2 -19l321 215l-32 -209l-324 -213l2 15l-293 -193l33 209z" />
    <glyph glyph-name="uni0338" unicode="&#x338;" 
d="M4 987l-962 -1007l-68 57l960 1007z" />
    <glyph glyph-name="uni03A9" unicode="&#x3a9;" horiz-adv-x="1679" 
d="M1645 856q0 -195 -98.5 -354t-264.5 -258h260l-45 -244h-655l30 207q215 87 349.5 246t134.5 356q0 175 -106 273t-283 98q-155 0 -278.5 -70t-191 -188t-67.5 -260q0 -152 77.5 -267.5t203.5 -187.5l-29 -207h-633l43 244h258q-98 80 -152.5 198.5t-54.5 262.5
q0 204 110.5 377t304 274.5t425.5 101.5q198 0 349.5 -78t232 -214.5t80.5 -309.5z" />
    <glyph glyph-name="uni03BC" unicode="&#x3bc;" horiz-adv-x="1128" 
d="M758 528l86 496h278l-180 -1024h-278l26 160q-67 -87 -158.5 -135t-185.5 -48q-17 0 -67 5l-68 -392h-279l252 1434h279l-109 -627q-17 -94 15 -144t102 -50q98 0 179.5 89.5t107.5 235.5z" />
    <glyph glyph-name="pi" unicode="&#x3c0;" horiz-adv-x="1210" 
d="M1184 1024l-41 -244h-168q-16 -95 -26.5 -169t-16.5 -130t-8.5 -96.5t0.5 -68t8 -44t15.5 -25.5t21 -11.5t26.5 -2.5q46 0 107 21l-27 -250q-84 -24 -184 -24q-60 0 -101 12t-74 44.5t-48.5 89t-19.5 146t7 214t37 294.5h-190q-82 -426 -240 -780h-278q161 392 237 780
h-147l43 244h1067z" />
    <glyph glyph-name="Wgrave" unicode="&#x1e80;" horiz-adv-x="2091" 
d="M1257 1749l103 -242h-205l-188 242h290zM1423 319l500 1115h313l-675 -1434h-347l-61 1174l-471 -1174h-336l-166 1434h295l105 -1115l442 1115h354z" />
    <glyph glyph-name="wgrave" unicode="&#x1e81;" horiz-adv-x="1671" 
d="M1032 1434l98 -275h-202l-187 275h291zM1112 242l334 782h299l-481 -1024h-351l-47 698l-291 -698h-350l-119 1024h293l52 -803l325 803h295z" />
    <glyph glyph-name="Wacute" unicode="&#x1e82;" horiz-adv-x="2091" 
d="M1257 1749h302l-275 -242h-217zM1423 319l500 1115h313l-675 -1434h-347l-61 1174l-471 -1174h-336l-166 1434h295l105 -1115l442 1115h354z" />
    <glyph glyph-name="wacute" unicode="&#x1e83;" horiz-adv-x="1671" 
d="M979 1434h303l-281 -275h-217zM1112 242l334 782h299l-481 -1024h-351l-47 698l-291 -698h-350l-119 1024h293l52 -803l325 803h295z" />
    <glyph glyph-name="Wdieresis" unicode="&#x1e84;" horiz-adv-x="2091" 
d="M985 1511q-60 0 -97.5 37.5t-37.5 96.5q0 66 46 110.5t112 44.5q60 0 96.5 -38.5t36.5 -98.5q0 -66 -45 -109t-111 -43zM1438 1511q-60 0 -97.5 37.5t-37.5 96.5q0 66 44.5 110.5t110.5 44.5q60 0 97.5 -38.5t37.5 -98.5q0 -67 -44.5 -109.5t-110.5 -42.5zM1423 319
l500 1115h313l-675 -1434h-347l-61 1174l-471 -1174h-336l-166 1434h295l105 -1115l442 1115h354z" />
    <glyph glyph-name="wdieresis" unicode="&#x1e85;" horiz-adv-x="1671" 
d="M762 1153q-60 0 -97.5 38t-37.5 97q0 65 44.5 110.5t110.5 45.5q60 0 98 -38.5t38 -98.5q0 -67 -45.5 -110.5t-110.5 -43.5zM1163 1153q-60 0 -97.5 38t-37.5 97q0 65 46 110.5t112 45.5q60 0 96.5 -38.5t36.5 -98.5q0 -67 -44.5 -110.5t-111.5 -43.5zM1112 242l334 782
h299l-481 -1024h-351l-47 698l-291 -698h-350l-119 1024h293l52 -803l325 803h295z" />
    <glyph glyph-name="uni1E9E" unicode="&#x1e9e;" horiz-adv-x="1617" 
d="M319 1434h1248l-31 -185l-428 -424q193 -29 294 -134t101 -273q0 -207 -144.5 -328t-383.5 -121q-157 0 -262.5 54.5t-141 155.5t10.5 245h260q-32 -105 12 -161t139 -56q102 0 164 58.5t62 148.5q0 114 -115.5 162.5t-366.5 48.5l19 168l401 397h-586l-209 -1190h-296z
" />
    <glyph glyph-name="uni1EA0" unicode="&#x1ea0;" horiz-adv-x="1505" 
d="M1092 1434l305 -1434h-295l-58 283h-641l-155 -283h-320l809 1434h355zM874 1137l-339 -617h462zM627 -96q67 0 109 -42.5t42 -107.5q0 -72 -50.5 -123t-123.5 -51q-65 0 -107 43t-42 109q0 72 49.5 122t122.5 50z" />
    <glyph glyph-name="uni1EA1" unicode="&#x1ea1;" horiz-adv-x="1120" 
d="M606 1055q242 0 359.5 -137.5t76.5 -368.5l-98 -549h-244l31 172q-149 -203 -395 -203q-154 0 -241 74.5t-87 200.5q0 114 72.5 198t191 125t267.5 41q119 0 229 -28l2 6q3 28 5 59t-8 62.5t-27.5 56.5t-54.5 41t-87 16q-83 0 -126 -40.5t-38 -104.5h-274
q-13 118 44.5 205.5t162 130.5t239.5 43zM412 176q102 0 191.5 60t144.5 161q-79 27 -181 27q-126 0 -204 -40t-78 -114q0 -94 127 -94zM449 -96q67 0 109 -42.5t42 -107.5q0 -72 -50.5 -123t-123.5 -51q-65 0 -107.5 43t-42.5 109q0 72 50 122t123 50z" />
    <glyph glyph-name="uni1EA2" unicode="&#x1ea2;" horiz-adv-x="1505" 
d="M985 1647q0 26 -46 32t-144 -4l8 135q154 26 252 -9t98 -126q0 -78 -75 -123.5t-195 -60.5l-33 84q56 6 95.5 26t39.5 46zM1397 0h-295l-58 283h-641l-155 -283h-320l809 1434h355zM874 1137l-339 -617h462z" />
    <glyph glyph-name="uni1EA3" unicode="&#x1ea3;" horiz-adv-x="1120" 
d="M723 1270q0 65 -160 43l8 135q136 30 235 -13.5t99 -144.5q0 -84 -72 -128t-200 -60l-25 84q52 8 83.5 29.5t31.5 54.5zM606 1055q242 0 359.5 -137.5t76.5 -368.5l-98 -549h-244l31 172q-149 -203 -395 -203q-154 0 -241 74.5t-87 200.5q0 114 72.5 198t191 125
t267.5 41q119 0 229 -28l2 6q3 28 5 59t-8 62.5t-27.5 56.5t-54.5 41t-87 16q-83 0 -126 -40.5t-38 -104.5h-274q-13 118 44.5 205.5t162 130.5t239.5 43zM412 176q102 0 191.5 60t144.5 161q-79 27 -181 27q-126 0 -204 -40t-78 -114q0 -94 127 -94z" />
    <glyph glyph-name="uni1EA4" unicode="&#x1ea4;" horiz-adv-x="1505" 
d="M1280 1581l190 242h302l-275 -242h-217zM1057 1507l-103 125l-147 -125h-262l274 242h295l191 -242h-248zM-72 0l809 1434h355l305 -1434h-295l-58 283h-641l-155 -283h-320zM874 1137l-339 -617h462z" />
    <glyph glyph-name="uni1EA5" unicode="&#x1ea5;" horiz-adv-x="1120" 
d="M954 1294l119 234h217l-170 -234h-166zM795 1159l-86 111l-123 -111h-248l256 234h260l174 -234h-233zM606 1055q242 0 359.5 -137.5t76.5 -368.5l-98 -549h-244l31 172q-149 -203 -395 -203q-154 0 -241 74.5t-87 200.5q0 114 72.5 198t191 125t267.5 41q119 0 229 -28
l2 6q3 28 5 59t-8 62.5t-27.5 56.5t-54.5 41t-87 16q-83 0 -126 -40.5t-38 -104.5h-274q-13 118 44.5 205.5t162 130.5t239.5 43zM412 176q102 0 191.5 60t144.5 161q-79 27 -181 27q-126 0 -204 -40t-78 -114q0 -94 127 -94z" />
    <glyph glyph-name="uni1EA6" unicode="&#x1ea6;" horiz-adv-x="1505" 
d="M1473 1823l102 -242h-205l-188 242h291zM1057 1507l-103 125l-147 -125h-262l274 242h295l191 -242h-248zM-72 0l809 1434h355l305 -1434h-295l-58 283h-641l-155 -283h-320zM874 1137l-339 -617h462z" />
    <glyph glyph-name="uni1EA7" unicode="&#x1ea7;" horiz-adv-x="1120" 
d="M1135 1528l34 -234h-155l-86 234h207zM795 1159l-86 111l-123 -111h-248l256 234h260l174 -234h-233zM606 1055q242 0 359.5 -137.5t76.5 -368.5l-98 -549h-244l31 172q-149 -203 -395 -203q-154 0 -241 74.5t-87 200.5q0 114 72.5 198t191 125t267.5 41q119 0 229 -28
l2 6q3 28 5 59t-8 62.5t-27.5 56.5t-54.5 41t-87 16q-83 0 -126 -40.5t-38 -104.5h-274q-13 118 44.5 205.5t162 130.5t239.5 43zM412 176q102 0 191.5 60t144.5 161q-79 27 -181 27q-126 0 -204 -40t-78 -114q0 -94 127 -94z" />
    <glyph glyph-name="uni1EA8" unicode="&#x1ea8;" horiz-adv-x="1505" 
d="M1260 1712l8 137q156 24 253 -11t97 -126q0 -78 -73.5 -122.5t-196.5 -59.5l-31 84q55 6 94 25t39 44q0 26 -46 32.5t-144 -3.5zM1057 1507l-103 125l-147 -125h-262l274 242h295l191 -242h-248zM-72 0l809 1434h355l305 -1434h-295l-58 283h-641l-155 -283h-320z
M874 1137l-339 -617h462z" />
    <glyph glyph-name="uni1EA9" unicode="&#x1ea9;" horiz-adv-x="1120" 
d="M952 1409l9 131q122 27 209 -11.5t87 -131.5q0 -145 -231 -178l-27 69q42 10 67.5 30.5t25.5 49.5q0 65 -140 41zM795 1159l-86 111l-123 -111h-248l256 234h260l174 -234h-233zM606 1055q242 0 359.5 -137.5t76.5 -368.5l-98 -549h-244l31 172q-149 -203 -395 -203
q-154 0 -241 74.5t-87 200.5q0 114 72.5 198t191 125t267.5 41q119 0 229 -28l2 6q3 28 5 59t-8 62.5t-27.5 56.5t-54.5 41t-87 16q-83 0 -126 -40.5t-38 -104.5h-274q-13 118 44.5 205.5t162 130.5t239.5 43zM412 176q102 0 191.5 60t144.5 161q-79 27 -181 27
q-126 0 -204 -40t-78 -114q0 -94 127 -94z" />
    <glyph glyph-name="uni1EAA" unicode="&#x1eaa;" horiz-adv-x="1505" 
d="M821 1810h-166q-21 118 35 181t158 63q57 0 108 -21.5t91 -43t69 -21.5q34 0 53 22t13 58h166q13 -115 -43 -181.5t-164 -66.5q-46 0 -87 13.5t-65.5 29.5t-54.5 29.5t-55 13.5q-34 0 -50 -22.5t-8 -53.5zM1057 1507l-103 125l-147 -125h-262l274 242h295l191 -242h-248z
M1397 0h-295l-58 283h-641l-155 -283h-320l809 1434h355zM874 1137l-339 -617h462z" />
    <glyph glyph-name="uni1EAB" unicode="&#x1eab;" horiz-adv-x="1120" 
d="M584 1425h-156q-18 103 38.5 168.5t154.5 65.5q44 0 79 -14.5t54.5 -31.5t44 -31.5t49.5 -14.5q39 0 61 28.5t19 61.5h157q9 -103 -46.5 -168.5t-159.5 -65.5q-46 0 -81 13.5t-53 29.5t-41 29.5t-47 13.5q-39 0 -59.5 -28.5t-13.5 -55.5zM795 1159l-86 111l-123 -111
h-248l256 234h260l174 -234h-233zM606 1055q242 0 359.5 -137.5t76.5 -368.5l-98 -549h-244l31 172q-149 -203 -395 -203q-154 0 -241 74.5t-87 200.5q0 114 72.5 198t191 125t267.5 41q119 0 229 -28l2 6q3 28 5 59t-8 62.5t-27.5 56.5t-54.5 41t-87 16q-83 0 -126 -40.5
t-38 -104.5h-274q-13 118 44.5 205.5t162 130.5t239.5 43zM412 176q102 0 191.5 60t144.5 161q-79 27 -181 27q-126 0 -204 -40t-78 -114q0 -94 127 -94z" />
    <glyph glyph-name="uni1EAC" unicode="&#x1eac;" horiz-adv-x="1505" 
d="M1057 1507l-103 125l-147 -125h-262l274 242h295l191 -242h-248zM1092 1434l305 -1434h-295l-58 283h-641l-155 -283h-320l809 1434h355zM874 1137l-339 -617h462zM627 -96q67 0 109 -42.5t42 -107.5q0 -72 -50.5 -123t-123.5 -51q-65 0 -107 43t-42 109q0 72 49.5 122
t122.5 50z" />
    <glyph glyph-name="uni1EAD" unicode="&#x1ead;" horiz-adv-x="1120" 
d="M784 1159l-73 125l-119 -125h-264l264 275h274l168 -275h-250zM606 1055q242 0 359.5 -137.5t76.5 -368.5l-98 -549h-244l31 172q-149 -203 -395 -203q-154 0 -241 74.5t-87 200.5q0 114 72.5 198t191 125t267.5 41q119 0 229 -28l2 6q3 28 5 59t-8 62.5t-27.5 56.5
t-54.5 41t-87 16q-83 0 -126 -40.5t-38 -104.5h-274q-13 118 44.5 205.5t162 130.5t239.5 43zM412 176q102 0 191.5 60t144.5 161q-79 27 -181 27q-126 0 -204 -40t-78 -114q0 -94 127 -94zM449 -96q67 0 109 -42.5t42 -107.5q0 -72 -50.5 -123t-123.5 -51q-65 0 -107.5 43
t-42.5 109q0 72 50 122t123 50z" />
    <glyph glyph-name="uni1EAE" unicode="&#x1eae;" horiz-adv-x="1505" 
d="M1028 2044h301l-274 -242h-217zM938 1503q-142 0 -219.5 66.5t-56.5 179.5h196q-6 -36 19.5 -59t76.5 -23t84.5 22.5t44.5 59.5h201q-20 -115 -113.5 -180.5t-232.5 -65.5zM1397 0h-295l-58 283h-641l-155 -283h-320l809 1434h355zM874 1137l-339 -617h462z" />
    <glyph glyph-name="uni1EAF" unicode="&#x1eaf;" horiz-adv-x="1120" 
d="M752 1690h217l-170 -234h-166zM692 1124q-156 0 -243 77.5t-78 205.5h176q-1 -67 40.5 -100t114.5 -33q78 0 131 35.5t68 95.5h182q-39 -139 -140.5 -210t-250.5 -71zM606 1055q242 0 359.5 -137.5t76.5 -368.5l-98 -549h-244l31 172q-149 -203 -395 -203
q-154 0 -241 74.5t-87 200.5q0 114 72.5 198t191 125t267.5 41q119 0 229 -28l2 6q3 28 5 59t-8 62.5t-27.5 56.5t-54.5 41t-87 16q-83 0 -126 -40.5t-38 -104.5h-274q-13 118 44.5 205.5t162 130.5t239.5 43zM412 176q102 0 191.5 60t144.5 161q-79 27 -181 27
q-126 0 -204 -40t-78 -114q0 -94 127 -94z" />
    <glyph glyph-name="uni1EB0" unicode="&#x1eb0;" horiz-adv-x="1505" 
d="M1028 2044l102 -242h-204l-189 242h291zM938 1503q-142 0 -219.5 66.5t-56.5 179.5h196q-6 -36 19.5 -59t76.5 -23t84.5 22.5t44.5 59.5h201q-20 -115 -113.5 -180.5t-232.5 -65.5zM1397 0h-295l-58 283h-641l-155 -283h-320l809 1434h355zM874 1137l-339 -617h462z" />
    <glyph glyph-name="uni1EB1" unicode="&#x1eb1;" horiz-adv-x="1120" 
d="M813 1690l33 -234h-154l-86 234h207zM692 1124q-156 0 -243 77.5t-78 205.5h176q-1 -67 40.5 -100t114.5 -33q78 0 131 35.5t68 95.5h182q-39 -139 -140.5 -210t-250.5 -71zM606 1055q242 0 359.5 -137.5t76.5 -368.5l-98 -549h-244l31 172q-149 -203 -395 -203
q-154 0 -241 74.5t-87 200.5q0 114 72.5 198t191 125t267.5 41q119 0 229 -28l2 6q3 28 5 59t-8 62.5t-27.5 56.5t-54.5 41t-87 16q-83 0 -126 -40.5t-38 -104.5h-274q-13 118 44.5 205.5t162 130.5t239.5 43zM412 176q102 0 191.5 60t144.5 161q-79 27 -181 27
q-126 0 -204 -40t-78 -114q0 -94 127 -94z" />
    <glyph glyph-name="uni1EB2" unicode="&#x1eb2;" horiz-adv-x="1505" 
d="M1038 1942q0 26 -46 32t-144 -4l8 135q154 26 252 -9t98 -126q0 -78 -75 -123.5t-195 -60.5l-33 84q56 6 95.5 26t39.5 46zM938 1503q-142 0 -219.5 66.5t-56.5 179.5h196q-6 -36 19.5 -59t76.5 -23t84.5 22.5t44.5 59.5h201q-20 -115 -113.5 -180.5t-232.5 -65.5z
M1397 0h-295l-58 283h-641l-155 -283h-320l809 1434h355zM874 1137l-339 -617h462z" />
    <glyph glyph-name="uni1EB3" unicode="&#x1eb3;" horiz-adv-x="1120" 
d="M709 1530q0 68 -138 43l4 117q146 29 238 -11.5t92 -134.5q0 -82 -71 -129.5t-179 -62.5l-49 90q45 7 74 32t29 56zM692 1124q-156 0 -243 77.5t-78 205.5h176q-1 -67 40.5 -100t114.5 -33q78 0 131 35.5t68 95.5h182q-39 -139 -140.5 -210t-250.5 -71zM606 1055
q242 0 359.5 -137.5t76.5 -368.5l-98 -549h-244l31 172q-149 -203 -395 -203q-154 0 -241 74.5t-87 200.5q0 114 72.5 198t191 125t267.5 41q119 0 229 -28l2 6q3 28 5 59t-8 62.5t-27.5 56.5t-54.5 41t-87 16q-83 0 -126 -40.5t-38 -104.5h-274q-13 118 44.5 205.5
t162 130.5t239.5 43zM412 176q102 0 191.5 60t144.5 161q-79 27 -181 27q-126 0 -204 -40t-78 -114q0 -94 127 -94z" />
    <glyph glyph-name="uni1EB4" unicode="&#x1eb4;" horiz-adv-x="1505" 
d="M823 1819h-166q-21 118 35 180.5t158 62.5q57 0 108 -21.5t91 -43t69 -21.5q34 0 53 22t13 58h166q13 -115 -43 -181.5t-164 -66.5q-46 0 -87 13.5t-65.5 29.5t-54.5 29.5t-55 13.5q-34 0 -50 -22.5t-8 -52.5zM662 1749h196q-6 -36 19.5 -59t76.5 -23t84.5 22.5
t44.5 59.5h201q-20 -115 -113.5 -180.5t-232.5 -65.5q-142 0 -219.5 66.5t-56.5 179.5zM1397 0h-295l-58 283h-641l-155 -283h-320l809 1434h355zM874 1137l-339 -617h462z" />
    <glyph glyph-name="uni1EB5" unicode="&#x1eb5;" horiz-adv-x="1120" 
d="M590 1458h-158q-17 103 40 168.5t153 65.5q44 0 80 -14.5t55 -32t44 -32t50 -14.5q39 0 61 28.5t19 62.5h158q8 -103 -47.5 -168.5t-159.5 -65.5q-46 0 -81 13.5t-52.5 29.5t-40.5 29.5t-47 13.5q-39 0 -60 -28.5t-14 -55.5zM702 1274q78 0 131 35.5t68 95.5h182
q-39 -139 -140.5 -210t-250.5 -71q-156 0 -243 77.5t-78 205.5h176q-1 -67 40.5 -100t114.5 -33zM606 1055q242 0 359.5 -137.5t76.5 -368.5l-98 -549h-244l31 172q-149 -203 -395 -203q-154 0 -241 74.5t-87 200.5q0 114 72.5 198t191 125t267.5 41q119 0 229 -28l2 6
q3 28 5 59t-8 62.5t-27.5 56.5t-54.5 41t-87 16q-83 0 -126 -40.5t-38 -104.5h-274q-13 118 44.5 205.5t162 130.5t239.5 43zM412 176q102 0 191.5 60t144.5 161q-79 27 -181 27q-126 0 -204 -40t-78 -114q0 -94 127 -94z" />
    <glyph glyph-name="uni1EB6" unicode="&#x1eb6;" horiz-adv-x="1505" 
d="M938 1503q-142 0 -219.5 66.5t-56.5 179.5h196q-6 -36 19.5 -59t76.5 -23t84.5 22.5t44.5 59.5h201q-20 -115 -113.5 -180.5t-232.5 -65.5zM1092 1434l305 -1434h-295l-58 283h-641l-155 -283h-320l809 1434h355zM874 1137l-339 -617h462zM627 -96q67 0 109 -42.5
t42 -107.5q0 -72 -50.5 -123t-123.5 -51q-65 0 -107 43t-42 109q0 72 49.5 122t122.5 50z" />
    <glyph glyph-name="uni1EB7" unicode="&#x1eb7;" horiz-adv-x="1120" 
d="M700 1130q-155 0 -243.5 87t-77.5 217h215q-5 -59 27 -90t96 -31q123 0 153 121h220q-24 -140 -132.5 -222t-257.5 -82zM606 1055q242 0 359.5 -137.5t76.5 -368.5l-98 -549h-244l31 172q-149 -203 -395 -203q-154 0 -241 74.5t-87 200.5q0 114 72.5 198t191 125
t267.5 41q119 0 229 -28l2 6q3 28 5 59t-8 62.5t-27.5 56.5t-54.5 41t-87 16q-83 0 -126 -40.5t-38 -104.5h-274q-13 118 44.5 205.5t162 130.5t239.5 43zM412 176q102 0 191.5 60t144.5 161q-79 27 -181 27q-126 0 -204 -40t-78 -114q0 -94 127 -94zM449 -96
q67 0 109 -42.5t42 -107.5q0 -72 -50.5 -123t-123.5 -51q-65 0 -107.5 43t-42.5 109q0 72 50 122t123 50z" />
    <glyph glyph-name="uni1EB8" unicode="&#x1eb8;" horiz-adv-x="1288" 
d="M1339 1434l-41 -236h-727l-55 -324h617l-43 -237h-615l-69 -401h743l-43 -236h-1040l253 1434h1020zM537 -96q67 0 109 -42.5t42 -107.5q0 -72 -50.5 -123t-123.5 -51q-65 0 -107 43t-42 109q0 72 49.5 122t122.5 50z" />
    <glyph glyph-name="uni1EB9" unicode="&#x1eb9;" horiz-adv-x="1175" 
d="M551 207q80 0 140.5 34t96.5 91h306q-75 -171 -223 -267t-339 -96q-226 0 -355.5 128t-129.5 345q0 171 78.5 310.5t221 221t321.5 81.5q113 0 205.5 -33.5t151 -93t87 -136t17.5 -169t-62 -185.5h-735q5 -111 61.5 -171t157.5 -60zM649 834q-109 0 -185 -63.5
t-110 -166.5h467q33 100 -13.5 165t-158.5 65zM479 -96q67 0 109.5 -42.5t42.5 -107.5q0 -72 -50.5 -123t-123.5 -51q-65 0 -107.5 43t-42.5 109q0 72 49.5 122t122.5 50z" />
    <glyph glyph-name="uni1EBA" unicode="&#x1eba;" horiz-adv-x="1288" 
d="M911 1647q0 26 -46 32t-144 -4l8 135q154 26 252 -9t98 -126q0 -78 -75 -123.5t-195 -60.5l-33 84q56 6 95.5 26t39.5 46zM1339 1434l-41 -236h-727l-55 -324h617l-43 -237h-615l-69 -401h743l-43 -236h-1040l253 1434h1020z" />
    <glyph glyph-name="uni1EBB" unicode="&#x1ebb;" horiz-adv-x="1175" 
d="M745 1270q0 65 -159 43l8 135q136 30 235 -13.5t99 -144.5q0 -57 -37 -97t-95 -60t-141 -31l-24 84q52 8 83 29.5t31 54.5zM551 207q80 0 140.5 34t96.5 91h306q-75 -171 -223 -267t-339 -96q-226 0 -355.5 128t-129.5 345q0 171 78.5 310.5t221 221t321.5 81.5
q113 0 205.5 -33.5t151 -93t87 -136t17.5 -169t-62 -185.5h-735q5 -111 61.5 -171t157.5 -60zM649 834q-109 0 -185 -63.5t-110 -166.5h467q33 100 -13.5 165t-158.5 65z" />
    <glyph glyph-name="uni1EBC" unicode="&#x1ebc;" horiz-adv-x="1288" 
d="M696 1524h-166q-21 118 35 180.5t158 62.5q57 0 108 -21.5t91 -43t69 -21.5q34 0 53 22t13 58h166q13 -115 -43 -181.5t-164 -66.5q-46 0 -87 13.5t-65.5 29.5t-54.5 29.5t-55 13.5q-34 0 -50 -22.5t-8 -52.5zM1339 1434l-41 -236h-727l-55 -324h617l-43 -237h-615
l-69 -401h743l-43 -236h-1040l253 1434h1020z" />
    <glyph glyph-name="uni1EBD" unicode="&#x1ebd;" horiz-adv-x="1175" 
d="M561 1161h-176q-15 120 43 191t164 71q54 0 102.5 -21t85.5 -42t64 -21q35 0 52.5 25.5t12.5 58.5h181q17 -120 -46.5 -192t-177.5 -72q-43 0 -80.5 12.5t-59.5 27.5t-49 27.5t-50 12.5q-37 0 -55 -25t-11 -53zM551 207q80 0 140.5 34t96.5 91h306q-75 -171 -223 -267
t-339 -96q-226 0 -355.5 128t-129.5 345q0 171 78.5 310.5t221 221t321.5 81.5q113 0 205.5 -33.5t151 -93t87 -136t17.5 -169t-62 -185.5h-735q5 -111 61.5 -171t157.5 -60zM649 834q-109 0 -185 -63.5t-110 -166.5h467q33 100 -13.5 165t-158.5 65z" />
    <glyph glyph-name="uni1EBE" unicode="&#x1ebe;" horiz-adv-x="1288" 
d="M1206 1581l191 242h301l-275 -242h-217zM983 1507l-102 125l-148 -125h-262l274 242h295l191 -242h-248zM1106 0h-1040l253 1434h1020l-41 -236h-727l-55 -324h617l-43 -237h-615l-69 -401h743z" />
    <glyph glyph-name="uni1EBF" unicode="&#x1ebf;" horiz-adv-x="1175" 
d="M977 1294l119 234h217l-170 -234h-166zM817 1159l-86 111l-123 -111h-248l256 234h261l174 -234h-234zM668 1055q113 0 205.5 -33.5t151 -93t87 -136t17.5 -169t-62 -185.5h-735q5 -111 61.5 -171t157.5 -60q80 0 140.5 34t96.5 91h306q-75 -171 -223 -267t-339 -96
q-226 0 -355.5 128t-129.5 345q0 171 78.5 310.5t221 221t321.5 81.5zM649 834q-109 0 -185 -63.5t-110 -166.5h467q33 100 -13.5 165t-158.5 65z" />
    <glyph glyph-name="uni1EC0" unicode="&#x1ec0;" horiz-adv-x="1288" 
d="M1399 1823l102 -242h-205l-188 242h291zM983 1507l-102 125l-148 -125h-262l274 242h295l191 -242h-248zM1106 0h-1040l253 1434h1020l-41 -236h-727l-55 -324h617l-43 -237h-615l-69 -401h743z" />
    <glyph glyph-name="uni1EC1" unicode="&#x1ec1;" horiz-adv-x="1175" 
d="M1157 1528l35 -234h-156l-86 234h207zM817 1159l-86 111l-123 -111h-248l256 234h261l174 -234h-234zM668 1055q113 0 205.5 -33.5t151 -93t87 -136t17.5 -169t-62 -185.5h-735q5 -111 61.5 -171t157.5 -60q80 0 140.5 34t96.5 91h306q-75 -171 -223 -267t-339 -96
q-226 0 -355.5 128t-129.5 345q0 171 78.5 310.5t221 221t321.5 81.5zM649 834q-109 0 -185 -63.5t-110 -166.5h467q33 100 -13.5 165t-158.5 65z" />
    <glyph glyph-name="uni1EC2" unicode="&#x1ec2;" horiz-adv-x="1288" 
d="M1186 1712l8 137q156 24 253 -11t97 -126q0 -78 -73.5 -122.5t-196.5 -59.5l-31 84q55 6 94 25t39 44q0 26 -46 32.5t-144 -3.5zM983 1507l-102 125l-148 -125h-262l274 242h295l191 -242h-248zM1106 0h-1040l253 1434h1020l-41 -236h-727l-55 -324h617l-43 -237h-615
l-69 -401h743z" />
    <glyph glyph-name="uni1EC3" unicode="&#x1ec3;" horiz-adv-x="1175" 
d="M975 1409l8 131q81 15 147 6.5t108 -48t42 -101.5q0 -145 -231 -178l-27 69q92 21 92 80q0 65 -139 41zM817 1159l-86 111l-123 -111h-248l256 234h261l174 -234h-234zM668 1055q113 0 205.5 -33.5t151 -93t87 -136t17.5 -169t-62 -185.5h-735q5 -111 61.5 -171
t157.5 -60q80 0 140.5 34t96.5 91h306q-75 -171 -223 -267t-339 -96q-226 0 -355.5 128t-129.5 345q0 171 78.5 310.5t221 221t321.5 81.5zM649 834q-109 0 -185 -63.5t-110 -166.5h467q33 100 -13.5 165t-158.5 65z" />
    <glyph glyph-name="uni1EC4" unicode="&#x1ec4;" horiz-adv-x="1288" 
d="M748 1810h-166q-21 118 34.5 181t157.5 63q57 0 108 -21.5t91 -43t69 -21.5q34 0 53 22t13 58h166q13 -115 -43 -181.5t-164 -66.5q-46 0 -87 13.5t-65.5 29.5t-54.5 29.5t-55 13.5q-34 0 -49.5 -22.5t-7.5 -53.5zM983 1507l-102 125l-148 -125h-262l274 242h295
l191 -242h-248zM1339 1434l-41 -236h-727l-55 -324h617l-43 -237h-615l-69 -401h743l-43 -236h-1040l253 1434h1020z" />
    <glyph glyph-name="uni1EC5" unicode="&#x1ec5;" horiz-adv-x="1175" 
d="M606 1425h-155q-18 103 38 168.5t154 65.5q44 0 79 -14.5t54.5 -31.5t44 -31.5t49.5 -14.5q39 0 61 28.5t19 61.5h158q9 -103 -47 -168.5t-160 -65.5q-46 0 -81 13.5t-52.5 29.5t-40.5 29.5t-47 13.5q-39 0 -60 -28.5t-14 -55.5zM817 1159l-86 111l-123 -111h-248
l256 234h261l174 -234h-234zM551 207q80 0 140.5 34t96.5 91h306q-75 -171 -223 -267t-339 -96q-226 0 -355.5 128t-129.5 345q0 171 78.5 310.5t221 221t321.5 81.5q113 0 205.5 -33.5t151 -93t87 -136t17.5 -169t-62 -185.5h-735q5 -111 61.5 -171t157.5 -60zM649 834
q-109 0 -185 -63.5t-110 -166.5h467q33 100 -13.5 165t-158.5 65z" />
    <glyph glyph-name="uni1EC6" unicode="&#x1ec6;" horiz-adv-x="1288" 
d="M983 1507l-102 125l-148 -125h-262l274 242h295l191 -242h-248zM1339 1434l-41 -236h-727l-55 -324h617l-43 -237h-615l-69 -401h743l-43 -236h-1040l253 1434h1020zM537 -96q67 0 109 -42.5t42 -107.5q0 -72 -50.5 -123t-123.5 -51q-65 0 -107 43t-42 109q0 72 49.5 122
t122.5 50z" />
    <glyph glyph-name="uni1EC7" unicode="&#x1ec7;" horiz-adv-x="1175" 
d="M809 1159l-74 125l-119 -125h-264l264 275h275l168 -275h-250zM551 207q80 0 140.5 34t96.5 91h306q-75 -171 -223 -267t-339 -96q-226 0 -355.5 128t-129.5 345q0 171 78.5 310.5t221 221t321.5 81.5q113 0 205.5 -33.5t151 -93t87 -136t17.5 -169t-62 -185.5h-735
q5 -111 61.5 -171t157.5 -60zM649 834q-109 0 -185 -63.5t-110 -166.5h467q33 100 -13.5 165t-158.5 65zM479 -96q67 0 109.5 -42.5t42.5 -107.5q0 -72 -50.5 -123t-123.5 -51q-65 0 -107.5 43t-42.5 109q0 72 49.5 122t122.5 50z" />
    <glyph glyph-name="uni1EC8" unicode="&#x1ec8;" horiz-adv-x="610" 
d="M436 1491l-33 84q56 6 96 26t40 46t-46.5 32t-144.5 -4l8 135q154 26 252.5 -9t98.5 -126q0 -78 -75 -123.5t-196 -60.5zM362 0h-296l253 1434h297z" />
    <glyph glyph-name="uni1EC9" unicode="&#x1ec9;" horiz-adv-x="489" 
d="M307 1102l-24 84q52 8 83 29.5t31 54.5q0 65 -159 43l8 135q136 30 235 -13.5t99 -144.5q0 -57 -37 -97t-95 -60t-141 -31zM293 0h-279l181 1024h278z" />
    <glyph glyph-name="uni1ECA" unicode="&#x1eca;" horiz-adv-x="610" 
d="M362 0h-296l253 1434h297zM158 -420q-65 0 -107.5 43t-42.5 109q0 72 49.5 122t122.5 50q67 0 109.5 -42.5t42.5 -107.5q0 -72 -50.5 -123t-123.5 -51z" />
    <glyph glyph-name="uni1ECB" unicode="&#x1ecb;" horiz-adv-x="489" 
d="M377 1153q-66 0 -109 42.5t-43 107.5q0 73 50.5 123.5t125.5 50.5q65 0 106.5 -42t41.5 -106q0 -74 -50 -125t-122 -51zM293 0h-279l181 1024h278zM98 -420q-65 0 -107 43t-42 109q0 72 49.5 122t122.5 50q67 0 109 -42.5t42 -107.5q0 -72 -50.5 -123t-123.5 -51z" />
    <glyph glyph-name="uni1ECC" unicode="&#x1ecc;" horiz-adv-x="1656" 
d="M760 -31q-286 0 -458.5 174t-172.5 461q0 172 65 330t176 274.5t268 186t333 69.5q285 0 456.5 -172.5t171.5 -462.5q0 -170 -64 -327.5t-174 -275t-267 -187.5t-334 -70zM780 215q113 0 211.5 52.5t164.5 138.5t104 195.5t38 223.5q0 184 -94 289t-256 105
q-150 0 -270.5 -89.5t-184 -228.5t-63.5 -293q0 -186 94 -289.5t256 -103.5zM682 -420q-65 0 -107.5 43t-42.5 109q0 72 50 122t123 50q67 0 109 -42.5t42 -107.5q0 -72 -50.5 -123t-123.5 -51z" />
    <glyph glyph-name="uni1ECD" unicode="&#x1ecd;" horiz-adv-x="1196" 
d="M518 -31q-220 0 -346.5 123t-126.5 338q0 172 81.5 315t227.5 226.5t326 83.5q216 0 342.5 -122t126.5 -337q0 -171 -79.5 -314t-225 -228t-326.5 -85zM545 207q93 0 167 55t112 140t38 180q0 112 -56 173.5t-155 61.5q-139 0 -229 -112.5t-90 -260.5q0 -112 56.5 -174.5
t156.5 -62.5zM451 -420q-65 0 -107.5 43t-42.5 109q0 72 49.5 122t122.5 50q67 0 109.5 -42.5t42.5 -107.5q0 -72 -50.5 -123t-123.5 -51z" />
    <glyph glyph-name="uni1ECE" unicode="&#x1ece;" horiz-adv-x="1656" 
d="M961 1491l-33 84q56 6 95.5 26t39.5 46t-46.5 32t-144.5 -4l9 135q154 26 252 -9t98 -126q0 -78 -75 -123.5t-195 -60.5zM760 -31q-286 0 -458.5 174t-172.5 461q0 172 65 330t176 274.5t268 186t333 69.5q285 0 456.5 -172.5t171.5 -462.5q0 -170 -64 -327.5t-174 -275
t-267 -187.5t-334 -70zM780 215q113 0 211.5 52.5t164.5 138.5t104 195.5t38 223.5q0 184 -94 289t-256 105q-150 0 -270.5 -89.5t-184 -228.5t-63.5 -293q0 -186 94 -289.5t256 -103.5z" />
    <glyph glyph-name="uni1ECF" unicode="&#x1ecf;" horiz-adv-x="1196" 
d="M657 1102l-24 84q52 8 83.5 29.5t31.5 54.5q0 65 -160 43l8 135q136 30 235 -13.5t99 -144.5q0 -57 -37 -97t-95 -60t-141 -31zM518 -31q-220 0 -346.5 123t-126.5 338q0 172 81.5 315t227.5 226.5t326 83.5q216 0 342.5 -122t126.5 -337q0 -171 -79.5 -314t-225 -228
t-326.5 -85zM545 207q93 0 167 55t112 140t38 180q0 112 -56 173.5t-155 61.5q-139 0 -229 -112.5t-90 -260.5q0 -112 56.5 -174.5t156.5 -62.5z" />
    <glyph glyph-name="uni1ED0" unicode="&#x1ed0;" horiz-adv-x="1656" 
d="M1548 1823h301l-274 -242h-217zM1135 1507l-103 125l-147 -125h-262l274 242h295l190 -242h-247zM971 1464q285 0 456.5 -172.5t171.5 -462.5q0 -170 -64 -327.5t-174 -275t-267 -187.5t-334 -70q-286 0 -458.5 174t-172.5 461q0 172 65 330t176 274.5t268 186t333 69.5z
M780 215q113 0 211.5 52.5t164.5 138.5t104 195.5t38 223.5q0 184 -94 289t-256 105q-150 0 -270.5 -89.5t-184 -228.5t-63.5 -293q0 -186 94 -289.5t256 -103.5z" />
    <glyph glyph-name="uni1ED1" unicode="&#x1ed1;" horiz-adv-x="1196" 
d="M1098 1528h217l-170 -234h-166zM819 1159l-86 111l-123 -111h-248l256 234h261l174 -234h-234zM680 1055q216 0 342.5 -122t126.5 -337q0 -171 -79.5 -314t-225 -228t-326.5 -85q-220 0 -346.5 123t-126.5 338q0 172 81.5 315t227.5 226.5t326 83.5zM545 207q93 0 167 55
t112 140t38 180q0 112 -56 173.5t-155 61.5q-139 0 -229 -112.5t-90 -260.5q0 -112 56.5 -174.5t156.5 -62.5z" />
    <glyph glyph-name="uni1ED2" unicode="&#x1ed2;" horiz-adv-x="1656" 
d="M1548 1823l103 -242h-205l-189 242h291zM1135 1507l-103 125l-147 -125h-262l274 242h295l190 -242h-247zM971 1464q285 0 456.5 -172.5t171.5 -462.5q0 -170 -64 -327.5t-174 -275t-267 -187.5t-334 -70q-286 0 -458.5 174t-172.5 461q0 172 65 330t176 274.5t268 186
t333 69.5zM780 215q113 0 211.5 52.5t164.5 138.5t104 195.5t38 223.5q0 184 -94 289t-256 105q-150 0 -270.5 -89.5t-184 -228.5t-63.5 -293q0 -186 94 -289.5t256 -103.5z" />
    <glyph glyph-name="uni1ED3" unicode="&#x1ed3;" horiz-adv-x="1196" 
d="M1159 1528l35 -234h-156l-86 234h207zM819 1159l-86 111l-123 -111h-248l256 234h261l174 -234h-234zM680 1055q216 0 342.5 -122t126.5 -337q0 -171 -79.5 -314t-225 -228t-326.5 -85q-220 0 -346.5 123t-126.5 338q0 172 81.5 315t227.5 226.5t326 83.5zM545 207
q93 0 167 55t112 140t38 180q0 112 -56 173.5t-155 61.5q-139 0 -229 -112.5t-90 -260.5q0 -112 56.5 -174.5t156.5 -62.5z" />
    <glyph glyph-name="uni1ED4" unicode="&#x1ed4;" horiz-adv-x="1656" 
d="M1337 1712l9 137q156 24 253 -11t97 -126q0 -78 -74 -122.5t-197 -59.5l-30 84q55 6 94 25t39 44q0 26 -46.5 32.5t-144.5 -3.5zM1135 1507l-103 125l-147 -125h-262l274 242h295l190 -242h-247zM971 1464q285 0 456.5 -172.5t171.5 -462.5q0 -170 -64 -327.5t-174 -275
t-267 -187.5t-334 -70q-286 0 -458.5 174t-172.5 461q0 172 65 330t176 274.5t268 186t333 69.5zM780 215q113 0 211.5 52.5t164.5 138.5t104 195.5t38 223.5q0 184 -94 289t-256 105q-150 0 -270.5 -89.5t-184 -228.5t-63.5 -293q0 -186 94 -289.5t256 -103.5z" />
    <glyph glyph-name="uni1ED5" unicode="&#x1ed5;" horiz-adv-x="1196" 
d="M977 1409l8 131q81 15 147 6.5t108 -48t42 -101.5q0 -145 -231 -178l-27 69q92 21 92 80q0 65 -139 41zM819 1159l-86 111l-123 -111h-248l256 234h261l174 -234h-234zM680 1055q216 0 342.5 -122t126.5 -337q0 -171 -79.5 -314t-225 -228t-326.5 -85q-220 0 -346.5 123
t-126.5 338q0 172 81.5 315t227.5 226.5t326 83.5zM545 207q93 0 167 55t112 140t38 180q0 112 -56 173.5t-155 61.5q-139 0 -229 -112.5t-90 -260.5q0 -112 56.5 -174.5t156.5 -62.5z" />
    <glyph glyph-name="uni1ED6" unicode="&#x1ed6;" horiz-adv-x="1656" 
d="M899 1810h-166q-21 118 35 181t158 63q57 0 108 -21.5t91 -43t69 -21.5q34 0 53 22t13 58h165q13 -115 -42.5 -181.5t-163.5 -66.5q-58 0 -107 21.5t-87 43t-69 21.5q-34 0 -49.5 -22.5t-7.5 -53.5zM1135 1507l-103 125l-147 -125h-262l274 242h295l190 -242h-247z
M971 1464q285 0 456.5 -172.5t171.5 -462.5q0 -170 -64 -327.5t-174 -275t-267 -187.5t-334 -70q-286 0 -458.5 174t-172.5 461q0 172 65 330t176 274.5t268 186t333 69.5zM780 215q113 0 211.5 52.5t164.5 138.5t104 195.5t38 223.5q0 184 -94 289t-256 105
q-150 0 -270.5 -89.5t-184 -228.5t-63.5 -293q0 -186 94 -289.5t256 -103.5z" />
    <glyph glyph-name="uni1ED7" unicode="&#x1ed7;" horiz-adv-x="1196" 
d="M608 1425h-155q-18 103 38 168.5t154 65.5q44 0 79 -14.5t54.5 -31.5t44 -31.5t49.5 -14.5q39 0 61 28.5t19 61.5h158q9 -103 -47 -168.5t-160 -65.5q-46 0 -81 13.5t-52.5 29.5t-40.5 29.5t-47 13.5q-39 0 -60 -28.5t-14 -55.5zM819 1159l-86 111l-123 -111h-248
l256 234h261l174 -234h-234zM680 1055q216 0 342.5 -122t126.5 -337q0 -171 -79.5 -314t-225 -228t-326.5 -85q-220 0 -346.5 123t-126.5 338q0 172 81.5 315t227.5 226.5t326 83.5zM545 207q93 0 167 55t112 140t38 180q0 112 -56 173.5t-155 61.5q-139 0 -229 -112.5
t-90 -260.5q0 -112 56.5 -174.5t156.5 -62.5z" />
    <glyph glyph-name="uni1ED8" unicode="&#x1ed8;" horiz-adv-x="1656" 
d="M1135 1507l-103 125l-147 -125h-262l274 242h295l190 -242h-247zM971 1464q285 0 456.5 -172.5t171.5 -462.5q0 -170 -64 -327.5t-174 -275t-267 -187.5t-334 -70q-286 0 -458.5 174t-172.5 461q0 172 65 330t176 274.5t268 186t333 69.5zM780 215q113 0 211.5 52.5
t164.5 138.5t104 195.5t38 223.5q0 184 -94 289t-256 105q-150 0 -270.5 -89.5t-184 -228.5t-63.5 -293q0 -186 94 -289.5t256 -103.5zM705 -96q67 0 109 -42.5t42 -107.5q0 -72 -50.5 -123t-123.5 -51q-65 0 -107.5 43t-42.5 109q0 72 50 122t123 50z" />
    <glyph glyph-name="uni1ED9" unicode="&#x1ed9;" horiz-adv-x="1196" 
d="M811 1159l-74 125l-119 -125h-264l264 275h275l168 -275h-250zM680 1055q216 0 342.5 -122t126.5 -337q0 -171 -79.5 -314t-225 -228t-326.5 -85q-220 0 -346.5 123t-126.5 338q0 172 81.5 315t227.5 226.5t326 83.5zM545 207q93 0 167 55t112 140t38 180
q0 112 -56 173.5t-155 61.5q-139 0 -229 -112.5t-90 -260.5q0 -112 56.5 -174.5t156.5 -62.5zM473 -96q67 0 109.5 -42.5t42.5 -107.5q0 -72 -50.5 -123t-123.5 -51q-65 0 -107.5 43t-42.5 109q0 72 49.5 122t122.5 50z" />
    <glyph glyph-name="uni1EDA" unicode="&#x1eda;" horiz-adv-x="1656" 
d="M1051 1749h301l-275 -242h-217zM1475 1642h200q26 -264 -223 -378q147 -170 147 -435q0 -170 -64 -327.5t-174 -275t-267 -187.5t-334 -70q-286 0 -458.5 174t-172.5 461q0 172 65 330t176 274.5t268 186t333 69.5q194 0 344 -86q94 51 126 111t34 153zM780 215
q113 0 211.5 52.5t164.5 138.5t104 195.5t38 223.5q0 184 -94 289t-256 105q-150 0 -270.5 -89.5t-184 -228.5t-63.5 -293q0 -186 94 -289.5t256 -103.5z" />
    <glyph glyph-name="uni1EDB" unicode="&#x1edb;" horiz-adv-x="1206" 
d="M743 1434h304l-281 -275h-217zM1075 1231h197q-1 -55 -13.5 -108t-37 -103t-70 -81t-104.5 -32q102 -117 102 -311q0 -171 -79.5 -314t-225 -228t-326.5 -85q-220 0 -346.5 123t-126.5 338q0 172 81.5 315t227.5 226.5t326 83.5q31 0 73 -2.5t70 -4.5t62 -1.5t57 5
t47.5 16.5t40 32.5t28 53t17.5 77.5zM545 207q93 0 167 55t112 140t38 180q0 112 -56 173.5t-155 61.5q-139 0 -229 -112.5t-90 -260.5q0 -112 56.5 -174.5t156.5 -62.5z" />
    <glyph glyph-name="uni1EDC" unicode="&#x1edc;" horiz-adv-x="1656" 
d="M1051 1749l102 -242h-205l-188 242h291zM1475 1642h200q26 -264 -223 -378q147 -170 147 -435q0 -170 -64 -327.5t-174 -275t-267 -187.5t-334 -70q-286 0 -458.5 174t-172.5 461q0 172 65 330t176 274.5t268 186t333 69.5q194 0 344 -86q94 51 126 111t34 153zM780 215
q113 0 211.5 52.5t164.5 138.5t104 195.5t38 223.5q0 184 -94 289t-256 105q-150 0 -270.5 -89.5t-184 -228.5t-63.5 -293q0 -186 94 -289.5t256 -103.5z" />
    <glyph glyph-name="uni1EDD" unicode="&#x1edd;" horiz-adv-x="1206" 
d="M795 1434l98 -275h-203l-186 275h291zM1075 1231h197q-1 -55 -13.5 -108t-37 -103t-70 -81t-104.5 -32q102 -117 102 -311q0 -171 -79.5 -314t-225 -228t-326.5 -85q-220 0 -346.5 123t-126.5 338q0 172 81.5 315t227.5 226.5t326 83.5q31 0 73 -2.5t70 -4.5t62 -1.5
t57 5t47.5 16.5t40 32.5t28 53t17.5 77.5zM545 207q93 0 167 55t112 140t38 180q0 112 -56 173.5t-155 61.5q-139 0 -229 -112.5t-90 -260.5q0 -112 56.5 -174.5t156.5 -62.5z" />
    <glyph glyph-name="uni1EDE" unicode="&#x1ede;" horiz-adv-x="1656" 
d="M1063 1647q0 26 -46.5 32t-144.5 -4l9 135q154 26 252 -9t98 -126q0 -78 -75 -123.5t-195 -60.5l-33 84q56 6 95.5 26t39.5 46zM1475 1642h200q26 -264 -223 -378q147 -170 147 -435q0 -170 -64 -327.5t-174 -275t-267 -187.5t-334 -70q-286 0 -458.5 174t-172.5 461
q0 172 65 330t176 274.5t268 186t333 69.5q194 0 344 -86q94 51 126 111t34 153zM780 215q113 0 211.5 52.5t164.5 138.5t104 195.5t38 223.5q0 184 -94 289t-256 105q-150 0 -270.5 -89.5t-184 -228.5t-63.5 -293q0 -186 94 -289.5t256 -103.5z" />
    <glyph glyph-name="uni1EDF" unicode="&#x1edf;" horiz-adv-x="1206" 
d="M748 1270q0 65 -160 43l8 135q136 30 235 -13.5t99 -144.5q0 -57 -37 -97t-95 -60t-141 -31l-24 84q52 8 83.5 29.5t31.5 54.5zM1075 1231h197q-1 -55 -13.5 -108t-37 -103t-70 -81t-104.5 -32q102 -117 102 -311q0 -171 -79.5 -314t-225 -228t-326.5 -85
q-220 0 -346.5 123t-126.5 338q0 172 81.5 315t227.5 226.5t326 83.5q31 0 73 -2.5t70 -4.5t62 -1.5t57 5t47.5 16.5t40 32.5t28 53t17.5 77.5zM545 207q93 0 167 55t112 140t38 180q0 112 -56 173.5t-155 61.5q-139 0 -229 -112.5t-90 -260.5q0 -112 56.5 -174.5
t156.5 -62.5z" />
    <glyph glyph-name="uni1EE0" unicode="&#x1ee0;" horiz-adv-x="1656" 
d="M846 1524h-166q-21 118 34.5 180.5t157.5 62.5q57 0 108.5 -21.5t91.5 -43t69 -21.5q34 0 52.5 22t12.5 58h166q13 -115 -43 -181.5t-164 -66.5q-46 0 -87 13.5t-65.5 29.5t-54.5 29.5t-55 13.5q-34 0 -49.5 -22t-7.5 -53zM1475 1642h200q26 -264 -223 -378
q147 -170 147 -435q0 -170 -64 -327.5t-174 -275t-267 -187.5t-334 -70q-286 0 -458.5 174t-172.5 461q0 172 65 330t176 274.5t268 186t333 69.5q194 0 344 -86q94 51 126 111t34 153zM780 215q113 0 211.5 52.5t164.5 138.5t104 195.5t38 223.5q0 184 -94 289t-256 105
q-150 0 -270.5 -89.5t-184 -228.5t-63.5 -293q0 -186 94 -289.5t256 -103.5z" />
    <glyph glyph-name="uni1EE1" unicode="&#x1ee1;" horiz-adv-x="1206" 
d="M584 1161h-178q-15 119 43 190.5t161 71.5q52 0 92.5 -21t70 -42t54.5 -21q35 0 52 25.5t12 58.5h178q5 -122 -54 -193t-169 -71q-44 0 -78 12.5t-50.5 27.5t-38 27.5t-42.5 12.5q-32 0 -46.5 -23.5t-6.5 -54.5zM1075 1231h197q-1 -55 -13.5 -108t-37 -103t-70 -81
t-104.5 -32q102 -117 102 -311q0 -171 -79.5 -314t-225 -228t-326.5 -85q-220 0 -346.5 123t-126.5 338q0 172 81.5 315t227.5 226.5t326 83.5q31 0 73 -2.5t70 -4.5t62 -1.5t57 5t47.5 16.5t40 32.5t28 53t17.5 77.5zM545 207q93 0 167 55t112 140t38 180q0 112 -56 173.5
t-155 61.5q-139 0 -229 -112.5t-90 -260.5q0 -112 56.5 -174.5t156.5 -62.5z" />
    <glyph glyph-name="uni1EE2" unicode="&#x1ee2;" horiz-adv-x="1656" 
d="M1475 1642h200q26 -264 -223 -378q147 -170 147 -435q0 -170 -64 -327.5t-174 -275t-267 -187.5t-334 -70q-286 0 -458.5 174t-172.5 461q0 172 65 330t176 274.5t268 186t333 69.5q194 0 344 -86q94 51 126 111t34 153zM780 215q113 0 211.5 52.5t164.5 138.5t104 195.5
t38 223.5q0 184 -94 289t-256 105q-150 0 -270.5 -89.5t-184 -228.5t-63.5 -293q0 -186 94 -289.5t256 -103.5zM705 -96q67 0 109 -42.5t42 -107.5q0 -72 -50.5 -123t-123.5 -51q-65 0 -107.5 43t-42.5 109q0 72 50 122t123 50z" />
    <glyph glyph-name="uni1EE3" unicode="&#x1ee3;" horiz-adv-x="1206" 
d="M1075 1231h197q-1 -55 -13.5 -108t-37 -103t-70 -81t-104.5 -32q102 -117 102 -311q0 -171 -79.5 -314t-225 -228t-326.5 -85q-220 0 -346.5 123t-126.5 338q0 172 81.5 315t227.5 226.5t326 83.5q31 0 73 -2.5t70 -4.5t62 -1.5t57 5t47.5 16.5t40 32.5t28 53t17.5 77.5z
M545 207q93 0 167 55t112 140t38 180q0 112 -56 173.5t-155 61.5q-139 0 -229 -112.5t-90 -260.5q0 -112 56.5 -174.5t156.5 -62.5zM473 -96q67 0 109.5 -42.5t42.5 -107.5q0 -72 -50.5 -123t-123.5 -51q-65 0 -107.5 43t-42.5 109q0 72 49.5 122t122.5 50z" />
    <glyph glyph-name="uni1EE4" unicode="&#x1ee4;" horiz-adv-x="1509" 
d="M686 -29q-303 0 -445 180.5t-87 495.5l139 787h295l-137 -783q-37 -212 32 -321t228 -109q319 0 399 451l135 762h295l-143 -807q-56 -315 -240 -485.5t-471 -170.5zM608 -420q-65 0 -107 43t-42 109q0 72 49.5 122t122.5 50q67 0 109 -42.5t42 -107.5q0 -72 -50.5 -123
t-123.5 -51z" />
    <glyph glyph-name="uni1EE5" unicode="&#x1ee5;" horiz-adv-x="1124" 
d="M756 528l86 496h278l-180 -1024h-278l26 160q-66 -88 -156.5 -135.5t-193.5 -47.5q-77 0 -132.5 27t-86 71.5t-44.5 108t-12.5 131t15.5 144.5l96 565h279l-101 -588q-7 -38 -9 -68t2 -62t16.5 -53.5t38 -35.5t63.5 -14q101 0 184 89.5t109 235.5zM446 -96
q67 0 109.5 -42.5t42.5 -107.5q0 -72 -50.5 -123t-123.5 -51q-65 0 -107.5 43t-42.5 109q0 72 49.5 122t122.5 50z" />
    <glyph glyph-name="uni1EE6" unicode="&#x1ee6;" horiz-adv-x="1509" 
d="M887 1491l-33 84q56 6 95.5 26t39.5 46t-46 32t-144 -4l8 135q154 26 252 -9t98 -126q0 -78 -75 -123.5t-195 -60.5zM686 -29q-303 0 -445 180.5t-87 495.5l139 787h295l-137 -783q-37 -212 32 -321t228 -109q319 0 399 451l135 762h295l-143 -807q-56 -315 -240 -485.5
t-471 -170.5z" />
    <glyph glyph-name="uni1EE7" unicode="&#x1ee7;" horiz-adv-x="1124" 
d="M709 1270q0 65 -160 43l8 135q136 30 235 -13.5t99 -144.5q0 -57 -37 -97t-95 -60t-141 -31l-24 84q52 8 83.5 29.5t31.5 54.5zM756 528l86 496h278l-180 -1024h-278l26 160q-66 -88 -156.5 -135.5t-193.5 -47.5q-77 0 -132.5 27t-86 71.5t-44.5 108t-12.5 131
t15.5 144.5l96 565h279l-101 -588q-7 -38 -9 -68t2 -62t16.5 -53.5t38 -35.5t63.5 -14q101 0 184 89.5t109 235.5z" />
    <glyph glyph-name="uni1EE8" unicode="&#x1ee8;" horiz-adv-x="1509" 
d="M977 1749h301l-274 -242h-218zM1505 1642h201q17 -272 -186 -329l-123 -686q-56 -315 -240 -485.5t-471 -170.5q-303 0 -445 180.5t-87 495.5l139 787h295l-137 -783q-37 -212 32 -321t228 -109q319 0 399 451l135 762h129q128 0 131 208z" />
    <glyph glyph-name="uni1EE9" unicode="&#x1ee9;" horiz-adv-x="1165" 
d="M702 1434h304l-281 -275h-217zM1085 1233h201q17 -273 -186 -330l-160 -903h-278l26 160q-66 -88 -156.5 -135.5t-193.5 -47.5q-77 0 -132.5 27t-86 71.5t-44.5 108t-12.5 131t15.5 144.5l96 565h279l-101 -588q-7 -38 -9 -68t2 -62t16.5 -53.5t38 -35.5t63.5 -14
q101 0 184 89.5t109 235.5l86 496h112q128 0 131 209z" />
    <glyph glyph-name="uni1EEA" unicode="&#x1eea;" horiz-adv-x="1509" 
d="M977 1749l102 -242h-205l-188 242h291zM1505 1642h201q17 -272 -186 -329l-123 -686q-56 -315 -240 -485.5t-471 -170.5q-303 0 -445 180.5t-87 495.5l139 787h295l-137 -783q-37 -212 32 -321t228 -109q319 0 399 451l135 762h129q128 0 131 208z" />
    <glyph glyph-name="uni1EEB" unicode="&#x1eeb;" horiz-adv-x="1165" 
d="M756 1434l98 -275h-203l-186 275h291zM1085 1233h201q17 -273 -186 -330l-160 -903h-278l26 160q-66 -88 -156.5 -135.5t-193.5 -47.5q-77 0 -132.5 27t-86 71.5t-44.5 108t-12.5 131t15.5 144.5l96 565h279l-101 -588q-7 -38 -9 -68t2 -62t16.5 -53.5t38 -35.5t63.5 -14
q101 0 184 89.5t109 235.5l86 496h112q128 0 131 209z" />
    <glyph glyph-name="uni1EEC" unicode="&#x1eec;" horiz-adv-x="1509" 
d="M989 1647q0 26 -46 32t-144 -4l8 135q154 26 252 -9t98 -126q0 -78 -75 -123.5t-195 -60.5l-33 84q56 6 95.5 26t39.5 46zM1505 1642h201q17 -272 -186 -329l-123 -686q-56 -315 -240 -485.5t-471 -170.5q-303 0 -445 180.5t-87 495.5l139 787h295l-137 -783
q-37 -212 32 -321t228 -109q319 0 399 451l135 762h129q128 0 131 208z" />
    <glyph glyph-name="uni1EED" unicode="&#x1eed;" horiz-adv-x="1165" 
d="M709 1270q0 65 -160 43l8 135q136 30 235 -13.5t99 -144.5q0 -57 -37 -97t-95 -60t-141 -31l-24 84q52 8 83.5 29.5t31.5 54.5zM1085 1233h201q17 -273 -186 -330l-160 -903h-278l26 160q-66 -88 -156.5 -135.5t-193.5 -47.5q-77 0 -132.5 27t-86 71.5t-44.5 108
t-12.5 131t15.5 144.5l96 565h279l-101 -588q-7 -38 -9 -68t2 -62t16.5 -53.5t38 -35.5t63.5 -14q101 0 184 89.5t109 235.5l86 496h112q128 0 131 209z" />
    <glyph glyph-name="uni1EEE" unicode="&#x1eee;" horiz-adv-x="1509" 
d="M772 1524h-166q-21 118 35 180.5t158 62.5q57 0 108 -21.5t91 -43t69 -21.5q34 0 53 22t13 58h165q13 -115 -42.5 -181.5t-163.5 -66.5q-58 0 -107 21.5t-87 43t-69 21.5q-34 0 -49.5 -22t-7.5 -53zM1505 1642h201q17 -272 -186 -329l-123 -686q-56 -315 -240 -485.5
t-471 -170.5q-303 0 -445 180.5t-87 495.5l139 787h295l-137 -783q-37 -212 32 -321t228 -109q319 0 399 451l135 762h129q128 0 131 208z" />
    <glyph glyph-name="uni1EEF" unicode="&#x1eef;" horiz-adv-x="1165" 
d="M522 1161h-176q-15 120 43 191t164 71q54 0 102.5 -21t85.5 -42t64 -21q35 0 52.5 25.5t12.5 58.5h181q17 -120 -46.5 -192t-177.5 -72q-43 0 -80.5 12.5t-59.5 27.5t-49 27.5t-50 12.5q-37 0 -55 -25t-11 -53zM1085 1233h201q17 -273 -186 -330l-160 -903h-278l26 160
q-66 -88 -156.5 -135.5t-193.5 -47.5q-77 0 -132.5 27t-86 71.5t-44.5 108t-12.5 131t15.5 144.5l96 565h279l-101 -588q-7 -38 -9 -68t2 -62t16.5 -53.5t38 -35.5t63.5 -14q101 0 184 89.5t109 235.5l86 496h112q128 0 131 209z" />
    <glyph glyph-name="uni1EF0" unicode="&#x1ef0;" horiz-adv-x="1509" 
d="M1505 1642h201q17 -272 -186 -329l-123 -686q-56 -315 -240 -485.5t-471 -170.5q-303 0 -445 180.5t-87 495.5l139 787h295l-137 -783q-37 -212 32 -321t228 -109q319 0 399 451l135 762h129q128 0 131 208zM631 -96q67 0 109 -42.5t42 -107.5q0 -72 -50.5 -123
t-123.5 -51q-65 0 -107 43t-42 109q0 72 49.5 122t122.5 50z" />
    <glyph glyph-name="uni1EF1" unicode="&#x1ef1;" horiz-adv-x="1165" 
d="M1085 1233h201q17 -273 -186 -330l-160 -903h-278l26 160q-66 -88 -156.5 -135.5t-193.5 -47.5q-77 0 -132.5 27t-86 71.5t-44.5 108t-12.5 131t15.5 144.5l96 565h279l-101 -588q-7 -38 -9 -68t2 -62t16.5 -53.5t38 -35.5t63.5 -14q101 0 184 89.5t109 235.5l86 496h112
q128 0 131 209zM446 -96q67 0 109.5 -42.5t42.5 -107.5q0 -72 -50.5 -123t-123.5 -51q-65 0 -107.5 43t-42.5 109q0 72 49.5 122t122.5 50z" />
    <glyph glyph-name="Ygrave" unicode="&#x1ef2;" horiz-adv-x="1458" 
d="M948 1749l103 -242h-205l-189 242h291zM1272 1434h332l-717 -875l-101 -559h-294l102 580l-414 854h322l268 -613z" />
    <glyph glyph-name="ygrave" unicode="&#x1ef3;" horiz-adv-x="1081" 
d="M735 1434l99 -275h-203l-187 275h291zM512 276l354 748h297l-581 -1135q-81 -159 -197 -244t-283 -85q-90 0 -180 32l23 230q77 -27 133 -27q148 0 256 152l-234 1077h291z" />
    <glyph glyph-name="uni1EF4" unicode="&#x1ef4;" horiz-adv-x="1458" 
d="M1272 1434h332l-717 -875l-101 -559h-294l102 580l-414 854h322l268 -613zM600 -96q67 0 109.5 -42.5t42.5 -107.5q0 -72 -50.5 -123t-123.5 -51q-65 0 -107.5 43t-42.5 109q0 72 49.5 122t122.5 50z" />
    <glyph glyph-name="uni1EF5" unicode="&#x1ef5;" horiz-adv-x="1081" 
d="M512 276l354 748h297l-581 -1135q-81 -159 -197 -244t-283 -85q-90 0 -180 32l23 230q77 -27 133 -27q148 0 256 152l-234 1077h291zM778 -96q67 0 109.5 -42.5t42.5 -107.5q0 -72 -50.5 -123t-123.5 -51q-65 0 -107.5 43t-42.5 109q0 72 49.5 122t122.5 50z" />
    <glyph glyph-name="uni1EF6" unicode="&#x1ef6;" horiz-adv-x="1458" 
d="M958 1647q0 26 -46 32t-144 -4l8 135q154 26 252 -9t98 -126q0 -78 -75 -123.5t-195 -60.5l-33 84q56 6 95.5 26t39.5 46zM1272 1434h332l-717 -875l-101 -559h-294l102 580l-414 854h322l268 -613z" />
    <glyph glyph-name="uni1EF7" unicode="&#x1ef7;" horiz-adv-x="1081" 
d="M688 1270q0 65 -160 43l9 135q136 30 234.5 -13.5t98.5 -144.5q0 -84 -72 -128t-200 -60l-25 84q52 8 83.5 29.5t31.5 54.5zM512 276l354 748h297l-581 -1135q-81 -159 -197 -244t-283 -85q-90 0 -180 32l23 230q77 -27 133 -27q148 0 256 152l-234 1077h291z" />
    <glyph glyph-name="uni1EF8" unicode="&#x1ef8;" horiz-adv-x="1458" 
d="M743 1524h-165q-21 118 34.5 180.5t157.5 62.5q57 0 108 -21.5t91 -43t69 -21.5q34 0 53 22t13 58h166q13 -115 -43 -181.5t-164 -66.5q-46 0 -87 13.5t-65.5 29.5t-54.5 29.5t-55 13.5q-34 0 -50 -22.5t-8 -52.5zM1272 1434h332l-717 -875l-101 -559h-294l102 580
l-414 854h322l268 -613z" />
    <glyph glyph-name="uni1EF9" unicode="&#x1ef9;" horiz-adv-x="1081" 
d="M504 1161h-176q-15 120 43 191t164 71q54 0 102 -21t85 -42t64 -21q35 0 53 25.5t13 58.5h180q17 -120 -46 -192t-177 -72q-43 0 -81 12.5t-60 27.5t-49 27.5t-50 12.5q-37 0 -54.5 -25t-10.5 -53zM512 276l354 748h297l-581 -1135q-81 -159 -197 -244t-283 -85
q-90 0 -180 32l23 230q77 -27 133 -27q148 0 256 152l-234 1077h291z" />
    <glyph glyph-name="uni2000" unicode="&#x2000;" horiz-adv-x="1024" 
 />
    <glyph glyph-name="uni2001" unicode="&#x2001;" horiz-adv-x="2048" 
 />
    <glyph glyph-name="uni2002" unicode="&#x2002;" horiz-adv-x="1024" 
 />
    <glyph glyph-name="uni2003" unicode="&#x2003;" horiz-adv-x="2048" 
 />
    <glyph glyph-name="uni2004" unicode="&#x2004;" horiz-adv-x="681" 
 />
    <glyph glyph-name="uni2005" unicode="&#x2005;" horiz-adv-x="512" 
 />
    <glyph glyph-name="uni2006" unicode="&#x2006;" horiz-adv-x="342" 
 />
    <glyph glyph-name="uni2007" unicode="&#x2007;" horiz-adv-x="1331" 
 />
    <glyph glyph-name="uni2008" unicode="&#x2008;" horiz-adv-x="475" 
 />
    <glyph glyph-name="uni2009" unicode="&#x2009;" horiz-adv-x="409" 
 />
    <glyph glyph-name="uni200A" unicode="&#x200a;" horiz-adv-x="292" 
 />
    <glyph glyph-name="uni200B" unicode="&#x200b;" 
 />
    <glyph glyph-name="uni200C" unicode="&#x200c;" 
 />
    <glyph glyph-name="uni200D" unicode="&#x200d;" 
 />
    <glyph glyph-name="figuredash" unicode="&#x2012;" horiz-adv-x="1079" 
d="M1001 416h-956l43 246h956z" />
    <glyph glyph-name="endash" unicode="&#x2013;" horiz-adv-x="1079" 
d="M1001 416h-956l43 246h956z" />
    <glyph glyph-name="emdash" unicode="&#x2014;" horiz-adv-x="1695" 
d="M1618 416h-1573l43 246h1573z" />
    <glyph glyph-name="uni2015" unicode="&#x2015;" horiz-adv-x="1695" 
d="M1618 416h-1573l43 246h1573z" />
    <glyph glyph-name="quoteleft" unicode="&#x2018;" horiz-adv-x="466" 
d="M537 1454l-27 -145q-67 -18 -122 -62.5t-75 -101.5q5 0 16 1t17 1q70 0 112 -42t42 -110q0 -76 -47.5 -124t-124.5 -48q-79 0 -124.5 54.5t-45.5 144.5q0 157 108 279t271 153z" />
    <glyph glyph-name="quoteright" unicode="&#x2019;" horiz-adv-x="471" 
d="M367 1464q76 0 120.5 -58.5t44.5 -154.5q0 -153 -106 -270.5t-272 -146.5l26 143q66 18 123.5 63.5t81.5 104.5q-24 -4 -41 -4q-69 0 -110 42t-41 113q0 74 48 121t126 47z" />
    <glyph glyph-name="quotesinglbase" unicode="&#x201a;" horiz-adv-x="471" 
d="M164 293q76 0 121 -56t45 -149q0 -153 -109.5 -275t-271.5 -151l16 145q73 18 132 62t81 104q-24 -4 -41 -4q-69 0 -110 41.5t-41 110.5q0 75 49.5 123.5t128.5 48.5z" />
    <glyph glyph-name="quotedblleft" unicode="&#x201c;" horiz-adv-x="933" 
d="M158 1022q0 157 108 279t271 153l-27 -145q-67 -18 -122 -62.5t-75 -101.5q5 0 16 1t17 1q70 0 112 -42t42 -110q0 -76 -47.5 -124t-124.5 -48q-79 0 -124.5 54.5t-45.5 144.5zM1004 1454l-27 -145q-67 -18 -122 -62.5t-75 -101.5q5 0 16 1t17 1q70 0 112 -42t42 -110
q0 -76 -47.5 -124t-124.5 -48q-79 0 -124.5 54.5t-45.5 144.5q0 157 108 279t271 153z" />
    <glyph glyph-name="quotedblright" unicode="&#x201d;" horiz-adv-x="937" 
d="M367 1464q76 0 120.5 -58.5t44.5 -154.5q0 -153 -106 -270.5t-272 -146.5l26 143q66 18 123.5 63.5t81.5 104.5q-24 -4 -41 -4q-69 0 -110 42t-41 113q0 74 48 121t126 47zM834 1464q76 0 120.5 -58.5t44.5 -154.5q0 -153 -106 -270.5t-272 -146.5l26 143
q66 18 123.5 63.5t81.5 104.5q-24 -4 -41 -4q-69 0 -110.5 42.5t-41.5 112.5q0 74 48.5 121t126.5 47z" />
    <glyph glyph-name="quotedblbase" unicode="&#x201e;" horiz-adv-x="937" 
d="M164 293q76 0 121 -56t45 -149q0 -153 -109.5 -275t-271.5 -151l16 145q73 18 132 62t81 104q-24 -4 -41 -4q-69 0 -110 41.5t-41 110.5q0 75 49.5 123.5t128.5 48.5zM631 293q76 0 121 -56t45 -149q0 -153 -109.5 -275t-271.5 -151l16 145q73 18 132 62t81 104
q-24 -4 -41 -4q-69 0 -110 41.5t-41 110.5q0 75 49.5 123.5t128.5 48.5z" />
    <glyph glyph-name="dagger" unicode="&#x2020;" horiz-adv-x="823" 
d="M664 1153h233l-45 -246h-234l-159 -907h-279l160 907h-231l43 246h233l49 281h279z" />
    <glyph glyph-name="daggerdbl" unicode="&#x2021;" horiz-adv-x="823" 
d="M897 1153l-45 -246h-234l-63 -368h233l-45 -246h-233l-51 -293h-279l51 293h-231l43 246h233l64 368h-231l43 246h233l49 281h279l-49 -281h233z" />
    <glyph glyph-name="bullet" unicode="&#x2022;" horiz-adv-x="671" 
d="M303 227q-109 0 -181.5 73.5t-72.5 182.5q0 128 96 221t222 93q110 0 182 -73.5t72 -182.5q0 -127 -95.5 -220.5t-222.5 -93.5z" />
    <glyph glyph-name="ellipsis" unicode="&#x2026;" horiz-adv-x="1587" 
d="M244 -23q-69 0 -114.5 46.5t-45.5 115.5q0 78 54 128t130 50q70 0 113 -44.5t43 -114.5q0 -77 -53.5 -129t-126.5 -52zM719 -23q-69 0 -114.5 46.5t-45.5 115.5q0 78 54 128t130 50q70 0 113 -44.5t43 -114.5q0 -77 -53.5 -129t-126.5 -52zM1192 -23q-69 0 -114.5 46.5
t-45.5 115.5q0 78 54.5 128t130.5 50q70 0 112.5 -44.5t42.5 -114.5q0 -77 -53.5 -129t-126.5 -52z" />
    <glyph glyph-name="uni202F" unicode="&#x202f;" horiz-adv-x="475" 
 />
    <glyph glyph-name="perthousand" unicode="&#x2030;" horiz-adv-x="2836" 
d="M549 -66h-205l1149 1524h207zM530 668q-152 0 -244.5 91t-92.5 242q0 175 124 293.5t310 118.5q158 0 248 -87.5t90 -233.5q0 -179 -127 -301.5t-308 -122.5zM549 846q93 0 151 68.5t58 162.5q0 72 -39.5 115t-108.5 43q-93 0 -151 -70.5t-58 -163.5q0 -73 39.5 -114
t108.5 -41zM1411 -20q-151 0 -243.5 91.5t-92.5 241.5q0 175 124 293.5t310 118.5q157 0 247.5 -88t90.5 -234q0 -179 -127.5 -301t-308.5 -122zM2273 -20q-151 0 -243.5 91.5t-92.5 241.5q0 175 124.5 293.5t310.5 118.5q157 0 247.5 -88t90.5 -234q0 -179 -127 -301
t-310 -122zM1430 158q93 0 151.5 69t58.5 162q0 73 -39.5 115.5t-109.5 42.5q-91 0 -149 -70.5t-58 -163.5q0 -73 39 -114t107 -41zM2292 158q93 0 152 69t59 162q0 72 -39.5 115t-108.5 43q-93 0 -151 -70.5t-58 -163.5q0 -73 39 -114t107 -41z" />
    <glyph glyph-name="guilsinglleft" unicode="&#x2039;" horiz-adv-x="763" 
d="M569 162h-284q-51 169 -199 407q182 179 330 375h301q-118 -177 -348 -407q55 -79 111.5 -186t88.5 -189z" />
    <glyph glyph-name="guilsinglright" unicode="&#x203a;" horiz-adv-x="763" 
d="M209 944h285q52 -172 198 -407q-187 -181 -330 -375h-301q116 174 349 407q-56 80 -112.5 186.5t-88.5 188.5z" />
    <glyph glyph-name="fraction" unicode="&#x2044;" horiz-adv-x="284" 
d="M-125 0h-235l831 1366h234z" />
    <glyph glyph-name="uni2070" unicode="&#x2070;" horiz-adv-x="919" 
d="M524 748q-164 0 -258 97.5t-94 266.5q0 203 127 335t328 132q169 0 260.5 -96t91.5 -260q0 -206 -130 -340.5t-325 -134.5zM541 936q67 0 116.5 46.5t72 111t22.5 133.5q0 87 -37.5 126.5t-98.5 39.5q-69 0 -119.5 -45.5t-73 -108.5t-22.5 -131q0 -89 39.5 -130.5
t100.5 -41.5z" />
    <glyph glyph-name="uni2074" unicode="&#x2074;" horiz-adv-x="827" 
d="M844 1550l-74 -420h152l-33 -178h-152l-30 -174h-230l33 174h-412l23 166q140 92 248.5 194.5t205.5 237.5h269zM371 1130h170l34 201q-94 -119 -204 -201z" />
    <glyph glyph-name="uni2075" unicode="&#x2075;" horiz-adv-x="808" 
d="M893 1550l-31 -170h-416q-10 -48 -30 -102q60 25 139 25q133 0 211 -66.5t78 -175.5q0 -137 -113 -225t-282 -88q-168 0 -251.5 87t-39.5 218h213q-36 -117 94 -117q72 0 110.5 34t38.5 89q0 92 -110 92q-77 0 -139 -49l-183 82q40 81 74.5 185t48.5 181h588z" />
    <glyph glyph-name="uni2076" unicode="&#x2076;" horiz-adv-x="843" 
d="M901 1305h-219q15 42 -4.5 65t-67.5 23q-75 0 -128.5 -56t-80.5 -159q70 86 220 86q122 0 190 -60t68 -162q0 -133 -112 -213.5t-263 -80.5q-158 0 -247 91.5t-89 262.5q0 208 129.5 342.5t339.5 134.5q161 0 234 -78.5t30 -195.5zM549 1122q-62 0 -100.5 -30.5
t-38.5 -73.5q0 -38 27.5 -60t80.5 -22q64 0 100.5 29.5t36.5 74.5q0 40 -28.5 61t-77.5 21z" />
    <glyph glyph-name="uni2077" unicode="&#x2077;" horiz-adv-x="727" 
d="M166 1368l33 182h686l-25 -168q-159 -135 -254 -280t-139 -324h-231q43 160 123 301.5t233 288.5h-426z" />
    <glyph glyph-name="uni2078" unicode="&#x2078;" horiz-adv-x="798" 
d="M731 1194q105 -65 105 -180q0 -118 -108 -192t-263 -74q-147 0 -237.5 66.5t-90.5 174.5q0 156 168 228q-72 50 -72 133q0 101 93 165t235 64q132 0 217.5 -57t85.5 -154q0 -122 -133 -174zM555 1419q-49 0 -80 -24t-31 -60q0 -31 25 -49t68 -18q47 0 78.5 23.5
t31.5 58.5q0 30 -24.5 49.5t-67.5 19.5zM477 936q58 0 96.5 30t38.5 74q0 39 -29 61.5t-79 22.5q-59 0 -96 -28t-37 -74q0 -39 28 -62.5t78 -23.5z" />
    <glyph glyph-name="uni2079" unicode="&#x2079;" horiz-adv-x="843" 
d="M569 1579q158 0 248 -91t90 -261q0 -209 -129.5 -344t-339.5 -135q-161 0 -235 79.5t-31 196.5h221q-17 -42 2.5 -65t67.5 -23q76 0 130.5 56t80.5 159q-73 -86 -221 -86q-122 0 -190 59.5t-68 161.5q0 133 111.5 213t262.5 80zM526 1206q61 0 99.5 31t38.5 74
q0 38 -28 60t-81 22q-64 0 -100.5 -30t-36.5 -75q0 -40 28.5 -61t79.5 -21z" />
    <glyph glyph-name="uni2080" unicode="&#x2080;" horiz-adv-x="919" 
d="M344 -276q-164 0 -258 97.5t-94 266.5q0 203 126.5 335t327.5 132q169 0 261 -96t92 -260q0 -206 -130 -340.5t-325 -134.5zM360 -88q67 0 116.5 46.5t72 111t22.5 133.5q0 87 -37 126.5t-98 39.5q-69 0 -119.5 -45.5t-73 -108.5t-22.5 -131q0 -89 39 -130.5t100 -41.5z
" />
    <glyph glyph-name="uni2081" unicode="&#x2081;" horiz-adv-x="653" 
d="M303 526h238l-138 -772h-229l86 486q-130 -137 -313 -148l41 223q89 7 184 74t131 137z" />
    <glyph glyph-name="uni2082" unicode="&#x2082;" horiz-adv-x="800" 
d="M698 301q0 -244 -344 -369h299l-30 -178h-684l30 170q64 20 100 31.5t96 33.5t95 40t78.5 45.5t67.5 55t40.5 63t16.5 75.5q0 101 -88 101q-59 0 -93 -47.5t-34 -110.5q0 -30 16 -80h-207q-14 35 -14 92q0 102 52 179t136.5 115t186.5 38q133 0 206.5 -69t73.5 -185z" />
    <glyph glyph-name="uni2083" unicode="&#x2083;" horiz-adv-x="761" 
d="M514 154q109 -56 109 -170q0 -118 -110.5 -189t-264.5 -71q-174 0 -254 94.5t-37 236.5h211q-26 -65 1 -104t97 -39q60 0 98.5 29t38.5 75q0 34 -24.5 55t-71.5 21h-71l26 135h55q45 0 81 23.5t36 62.5q0 29 -23.5 46.5t-64.5 17.5q-56 0 -84.5 -28.5t-25.5 -67.5h-209
q12 133 106 203.5t246 70.5q135 0 212 -53.5t77 -157.5q0 -139 -154 -190z" />
    <glyph glyph-name="uni2084" unicode="&#x2084;" horiz-adv-x="827" 
d="M664 526l-74 -420h151l-32 -178h-152l-31 -174h-229l33 174h-412l23 166q140 92 248.5 194.5t205.5 237.5h269zM190 106h170l35 201q-92 -117 -205 -201z" />
    <glyph glyph-name="uni2085" unicode="&#x2085;" horiz-adv-x="808" 
d="M713 526l-31 -170h-416q-10 -48 -30 -102q60 25 139 25q133 0 211 -66.5t78 -175.5q0 -137 -113.5 -225t-282.5 -88q-168 0 -251.5 87t-39.5 218h213q-18 -56 6 -86.5t89 -30.5q72 0 110.5 34t38.5 89q0 92 -110 92q-78 0 -140 -49l-182 82q40 81 74.5 185t48.5 181h588z
" />
    <glyph glyph-name="uni2086" unicode="&#x2086;" horiz-adv-x="843" 
d="M721 281h-219q15 42 -4.5 65t-67.5 23q-75 0 -128.5 -56t-80.5 -159q70 86 219 86q122 0 190 -60t68 -162q0 -133 -111.5 -213.5t-262.5 -80.5q-158 0 -247 91.5t-89 262.5q0 208 129.5 342.5t339.5 134.5q161 0 234 -78.5t30 -195.5zM369 98q-62 0 -101 -30.5t-39 -73.5
q0 -38 28 -60t81 -22q64 0 100.5 29.5t36.5 74.5q0 40 -28.5 61t-77.5 21z" />
    <glyph glyph-name="uni2087" unicode="&#x2087;" horiz-adv-x="727" 
d="M-14 344l32 182h687l-25 -168q-159 -135 -254 -280t-139 -324h-232q43 160 123.5 301.5t233.5 288.5h-426z" />
    <glyph glyph-name="uni2088" unicode="&#x2088;" horiz-adv-x="798" 
d="M551 170q104 -65 104 -180q0 -118 -107.5 -192t-262.5 -74q-147 0 -237.5 66.5t-90.5 174.5q0 156 168 228q-72 50 -72 133q0 101 93 165t235 64q132 0 217.5 -57t85.5 -154q0 -122 -133 -174zM375 395q-49 0 -80 -24t-31 -60q0 -31 24.5 -49t67.5 -18q47 0 79 23.5
t32 58.5q0 30 -24.5 49.5t-67.5 19.5zM297 -88q58 0 96.5 30t38.5 74q0 39 -29 61.5t-79 22.5q-59 0 -96.5 -28.5t-37.5 -73.5q0 -39 28.5 -62.5t78.5 -23.5z" />
    <glyph glyph-name="uni2089" unicode="&#x2089;" horiz-adv-x="843" 
d="M389 555q158 0 248 -91t90 -261q0 -209 -129.5 -344t-339.5 -135q-161 0 -235 79.5t-31 196.5h221q-17 -42 2.5 -65t67.5 -23q76 0 130.5 56t80.5 159q-73 -86 -222 -86q-122 0 -190 59.5t-68 161.5q0 89 54.5 157.5t139 102t181.5 33.5zM346 182q61 0 99 31t38 74
q0 38 -27.5 60t-80.5 22q-64 0 -100.5 -30t-36.5 -75q0 -40 28.5 -61t79.5 -21z" />
    <glyph glyph-name="lira" unicode="&#x20a4;" horiz-adv-x="1212" 
d="M903 371h-309q-36 -89 -102 -144h593l-41 -227h-1009l28 193q143 44 218 178h-179l19 118h205q8 39 8 86v15h-195l21 117h157q-26 143 -26 213q0 240 144.5 392t381.5 152q184 0 280.5 -89.5t96.5 -229.5q0 -82 -31.5 -160.5t-83.5 -138.5h-276q112 151 112 260
q0 113 -116 113q-101 0 -154 -82t-53 -207q0 -33 3 -66.5t11 -87.5t10 -69h347l-21 -117h-315v-10q0 -48 -6 -91h303z" />
    <glyph glyph-name="uni20A8" unicode="&#x20a8;" horiz-adv-x="1271" 
d="M1276 1434l-41 -236h-297q14 -42 20 -104h256l-38 -238h-263q-79 -169 -282 -242q125 -66 165.5 -217t6.5 -397h-291q40 305 -3 424t-204 119h-143l39 219h157q151 0 232 94h-369l39 238h385q-35 104 -178 104h-186l41 236h954z" />
    <glyph glyph-name="uni20A9" unicode="&#x20a9;" horiz-adv-x="2091" 
d="M1923 1434h313l-225 -478h141l-18 -106h-172l-70 -145h215l-18 -109h-248l-280 -596h-347l-30 596h-262l-240 -596h-336l-70 596h-225l19 109h194l-16 145h-154l19 106h123l-56 478h295l45 -478h314l188 478h354l21 -478h311zM1163 956l-10 218l-88 -218h98zM791 850
h-261l15 -145h188zM1022 850l-57 -145h213l-9 145h-147zM1407 705h188l66 145h-260zM555 596l25 -277l110 277h-135zM1411 596l12 -277l123 277h-135z" />
    <glyph glyph-name="dong" unicode="&#x20ab;" horiz-adv-x="1243" 
d="M1284 1282h199l-19 -108h-198l-209 -1174h-279l21 123q-144 -154 -348 -154q-183 0 -294.5 125t-111.5 332q0 125 42.5 240.5t116 201t178 136.5t222.5 51q116 0 199.5 -50t128.5 -143l55 312h-399l20 108h398l26 152h279zM565 207q142 0 235 110t93 256q0 114 -61.5 179
t-167.5 65q-144 0 -238 -109t-94 -253q0 -114 63 -181t170 -67zM1036 -238h-1054l20 107h1053z" />
    <glyph glyph-name="Euro" unicode="&#x20ac;" horiz-adv-x="1615" 
d="M1536 885h-311q56 146 0 240t-209 94q-154 0 -274.5 -94t-184.5 -246h549l-70 -125h-520q-13 -68 -16 -123h477l-70 -127h-401q22 -136 103.5 -211.5t209.5 -75.5q140 0 252.5 84.5t153.5 210.5h311q-61 -249 -260.5 -395t-468.5 -146q-257 0 -416.5 141.5t-185.5 391.5
h-154l23 127h127q3 61 12 123h-117l23 125h125q80 260 290 422.5t492 162.5q144 0 259 -43t183.5 -120.5t90 -183.5t-22.5 -232z" />
    <glyph glyph-name="uni20B2" unicode="&#x20b2;" horiz-adv-x="1523" 
d="M870 733h648l-41 -225h-293q125 -66 125 -197q0 -102 -78.5 -181t-204 -119t-272.5 -40h-17l-35 -196h-106l37 205q-241 34 -374.5 192t-133.5 408q0 214 95 395t269 294t392 126l32 184h107l-33 -184q250 -14 372.5 -156.5t63.5 -372.5h-288q37 134 -16 208t-173 85z
M412 590q0 -157 68 -254.5t194 -122.5l166 944q-98 -13 -180 -66.5t-135.5 -131.5t-83 -173.5t-29.5 -195.5zM831 504l-53 -299q111 4 180.5 52t69.5 116q0 112 -197 131z" />
    <glyph glyph-name="uni20B5" unicode="&#x20b5;" horiz-adv-x="1536" 
d="M963 1159l-168 -954q92 6 169.5 50.5t125.5 108t75 140.5h297q-74 -245 -264.5 -386.5t-443.5 -146.5l-35 -196h-107l35 200q-245 29 -382.5 196.5t-137.5 422.5q0 165 60 311.5t163 252t245 169t302 70.5l33 182h106l-32 -184q133 -11 237.5 -63t164 -132.5t76 -185
t-27.5 -221.5h-289q51 151 -8.5 248.5t-193.5 117.5zM414 600q0 -157 75 -258.5t201 -128.5l166 948q-130 -13 -233 -98t-156 -207t-53 -256z" />
    <glyph glyph-name="uni20BA" unicode="&#x20ba;" horiz-adv-x="1216" 
d="M901 690h262q13 -89 13 -147q0 -133 -56 -238t-154 -171t-224 -100t-271 -34h-317l114 653l-178 -49l23 133l180 49l18 107l-178 -49l21 133l182 49l72 408h303l-56 -322l316 86l-23 -133l-317 -86l-17 -107l314 86l-21 -131l-317 -86l-82 -481q175 5 289 92t114 238
q0 56 -10 100z" />
    <glyph glyph-name="uni20BD" unicode="&#x20bd;" horiz-adv-x="1378" 
d="M813 518h-360l-23 -125h578l-27 -141h-575l-44 -252h-296l45 252h-142l27 141h139l184 1041h639q216 0 333.5 -107.5t117.5 -304.5q0 -235 -162 -369.5t-434 -134.5zM1108 1014q0 184 -190 184h-349l-75 -444h348q125 0 195.5 72.5t70.5 187.5z" />
    <glyph glyph-name="uni2113" unicode="&#x2113;" horiz-adv-x="1040" 
d="M506 213q79 0 174 61t186 160l-41 -297q-77 -77 -174 -119.5t-200 -42.5q-142 0 -219.5 83t-90.5 223q-77 -9 -157 -9l43 236q59 0 131 10l73 428q42 244 172 381t314 137q157 0 243.5 -95.5t86.5 -274.5q0 -257 -177 -458t-462 -296q-3 -60 17 -93.5t81 -33.5zM510 952
l-57 -331q143 81 227 207.5t84 269.5q0 129 -76 129q-55 0 -104.5 -67.5t-73.5 -207.5z" />
    <glyph glyph-name="uni2117" unicode="&#x2117;" horiz-adv-x="1794" 
d="M1042 1464q201 0 358 -85.5t243 -237t86 -344.5q0 -178 -74 -344t-198 -287.5t-294 -194.5t-354 -73q-203 0 -359 86.5t-240.5 239t-84.5 345.5q0 177 73.5 342t197 286.5t293 194t353.5 72.5zM817 59q153 0 291 59.5t236.5 159.5t156.5 234t58 279q0 233 -142.5 372.5
t-384.5 139.5q-154 0 -292 -60t-235 -159.5t-153.5 -233.5t-56.5 -277q0 -231 141 -372.5t381 -141.5zM700 1157h381q139 0 222 -77t83 -206q0 -152 -112 -243.5t-283 -91.5h-207l-51 -293h-194zM811 694h201q73 0 124.5 49.5t51.5 124.5q0 61 -33 96t-92 35h-199z" />
    <glyph glyph-name="trademark" unicode="&#x2122;" horiz-adv-x="1546" 
d="M733 1434l-28 -160h-164l-97 -537h-188l94 537h-176l29 160h530zM1135 981l241 453h230l-123 -697h-174l82 463l-228 -442h-127l-78 454l-84 -475h-172l123 697h236z" />
    <glyph glyph-name="uni2126" unicode="&#x2126;" horiz-adv-x="1695" 
d="M1645 856q0 -195 -98.5 -354t-264.5 -258h260l-45 -244h-655l30 207q215 87 349.5 246t134.5 356q0 175 -106 273t-283 98q-155 0 -278.5 -70t-191 -188t-67.5 -260q0 -152 77.5 -267.5t203.5 -187.5l-29 -207h-633l43 244h258q-98 80 -152.5 198.5t-54.5 262.5
q0 204 110.5 377t304 274.5t425.5 101.5q198 0 349.5 -78t232 -214.5t80.5 -309.5z" />
    <glyph glyph-name="estimated" unicode="&#x212e;" horiz-adv-x="1685" 
d="M827 0q-220 0 -389 84t-262.5 240.5t-93.5 361.5q0 152 54 281.5t152 222t243 144.5t319 52q220 0 384.5 -81t260 -242.5t104.5 -388.5h-1206q-16 0 -23.5 -6.5t-7.5 -30.5v-361q0 -28 36 -66.5t96 -74.5t150 -61t185 -25q292 0 492 230h141q-252 -279 -635 -279z
M393 717h893q21 0 27 6.5t6 26.5v395q0 37 -63 81t-179.5 77.5t-245.5 33.5q-98 0 -188 -20t-150 -49.5t-95.5 -62.5t-35.5 -60v-410q0 -18 31 -18z" />
    <glyph glyph-name="oneeighth" unicode="&#x215b;" horiz-adv-x="1757" 
d="M322 594l86 485q-129 -136 -314 -147l41 223q89 7 184.5 74t131.5 137h237l-137 -772h-229zM313 0l832 1366h233l-829 -1366h-236zM1552 416q105 -65 105 -180q0 -119 -108 -193t-263 -74q-147 0 -237.5 66.5t-90.5 175.5q0 155 168 227q-71 49 -71 133q0 101 92.5 165.5
t234.5 64.5q133 0 218.5 -57t85.5 -154q0 -122 -134 -174zM1376 641q-49 0 -79.5 -24t-30.5 -60q0 -31 25 -49.5t67 -18.5q47 0 78.5 23.5t31.5 58.5q0 30 -24.5 50t-67.5 20zM1298 158q58 0 97 30t39 74q0 39 -29.5 61.5t-79.5 22.5q-59 0 -96 -28t-37 -74q0 -39 28 -62.5
t78 -23.5z" />
    <glyph glyph-name="threeeighths" unicode="&#x215c;" horiz-adv-x="1841" 
d="M770 823q0 -118 -110.5 -189t-264.5 -71q-174 0 -254 95t-37 237h211q-26 -65 1.5 -104t97.5 -39q60 0 98.5 29t38.5 75q0 34 -24.5 55t-71.5 21h-72l27 135h55q45 0 81 23.5t36 62.5q0 29 -23.5 46.5t-64.5 17.5q-56 0 -85 -29t-26 -68h-209q12 134 106.5 204.5
t245.5 70.5q135 0 212 -53.5t77 -157.5q0 -141 -153 -191q108 -56 108 -170zM397 0l832 1366h233l-829 -1366h-236zM1636 416q105 -65 105 -180q0 -119 -108 -193t-263 -74q-147 0 -237.5 66.5t-90.5 175.5q0 155 168 227q-71 49 -71 133q0 101 92.5 165.5t234.5 64.5
q132 0 217.5 -57t85.5 -154q0 -122 -133 -174zM1460 641q-49 0 -79.5 -24t-30.5 -60q0 -31 25 -49.5t67 -18.5q47 0 78.5 23.5t31.5 58.5q0 30 -24.5 50t-67.5 20zM1382 158q58 0 97 30t39 74q0 39 -29.5 61.5t-79.5 22.5q-59 0 -96 -28t-37 -74q0 -39 28 -62.5t78 -23.5z
" />
    <glyph glyph-name="fiveeighths" unicode="&#x215d;" horiz-adv-x="1892" 
d="M811 877q0 -137 -113 -225.5t-282 -88.5q-168 0 -251.5 87t-39.5 218h213q-36 -116 94 -116q73 0 111.5 33.5t38.5 88.5q0 93 -111 93q-77 0 -139 -49l-182 81q40 80 74 184.5t48 182.5h588l-31 -170h-415q-9 -41 -31 -102q57 24 139 24q133 0 211 -66t78 -175zM449 0
l831 1366h233l-829 -1366h-235zM1688 416q104 -65 104 -180q0 -119 -108 -193t-263 -74q-146 0 -236.5 66.5t-90.5 175.5q0 155 168 227q-72 50 -72 133q0 101 93 165.5t235 64.5q132 0 217.5 -57t85.5 -154q0 -122 -133 -174zM1511 641q-49 0 -79.5 -24t-30.5 -60
q0 -31 25 -49.5t67 -18.5q47 0 79 23.5t32 58.5q0 30 -25 50t-68 20zM1434 158q58 0 96.5 30t38.5 74q0 39 -29.5 61.5t-79.5 22.5q-59 0 -96 -28t-37 -74q0 -39 28.5 -62.5t78.5 -23.5z" />
    <glyph glyph-name="seveneighths" unicode="&#x215e;" horiz-adv-x="1753" 
d="M434 594h-231q43 160 123 301.5t233 288.5h-426l33 182h686l-25 -168q-159 -135 -254 -280t-139 -324zM309 0l832 1366h233l-829 -1366h-236zM1548 416q105 -65 105 -180q0 -119 -108 -193t-263 -74q-147 0 -237.5 66.5t-90.5 175.5q0 155 168 227q-71 49 -71 133
q0 101 92.5 165.5t234.5 64.5q132 0 217.5 -57t85.5 -154q0 -122 -133 -174zM1372 641q-49 0 -79.5 -24t-30.5 -60q0 -31 25 -49.5t67 -18.5q47 0 78.5 23.5t31.5 58.5q0 30 -24.5 50t-67.5 20zM1294 158q58 0 97 30t39 74q0 39 -29.5 61.5t-79.5 22.5q-59 0 -96 -28
t-37 -74q0 -39 28 -62.5t78 -23.5z" />
    <glyph glyph-name="arrowleft" unicode="&#x2190;" horiz-adv-x="1556" 
d="M594 635h901l-43 -244h-932q78 -84 141.5 -190.5t92.5 -206.5h-277q-42 158 -137.5 285.5t-255.5 240.5q362 204 567 508h291q-62 -106 -154.5 -210t-193.5 -183z" />
    <glyph glyph-name="arrowup" unicode="&#x2191;" horiz-adv-x="1247" 
d="M786 1454q78 -179 184 -296t249 -189l-43 -279q-92 44 -182.5 124t-155.5 171l-174 -985h-244l172 975q-97 -90 -217.5 -168t-235.5 -125l45 295q329 136 602 477z" />
    <glyph glyph-name="arrowright" unicode="&#x2192;" horiz-adv-x="1556" 
d="M803 1028h276q46 -160 140.5 -286.5t253.5 -241.5q-369 -205 -568 -506h-291q61 106 155.5 210.5t199.5 186.5h-908l43 244h928q-76 79 -138 185t-91 208z" />
    <glyph glyph-name="arrowdown" unicode="&#x2193;" horiz-adv-x="1241" 
d="M899 1434l-168 -969q98 89 217.5 165.5t233.5 121.5l-54 -295q-327 -136 -600 -477q-79 180 -184.5 297t-249.5 188l51 278q92 -44 182 -125.5t156 -173.5l174 990h242z" />
    <glyph glyph-name="arrowboth" unicode="&#x2194;" horiz-adv-x="2158" 
d="M1405 1028h276q41 -159 136.5 -285.5t257.5 -242.5q-364 -201 -570 -506h-288q61 106 155.5 210.5t198.5 186.5h-1051q78 -84 141.5 -190.5t92.5 -206.5h-277q-42 158 -137.5 285.5t-255.5 240.5q362 204 567 508h291q-62 -106 -154.5 -210t-193.5 -183h1038
q-76 81 -138 187t-89 206z" />
    <glyph glyph-name="arrowupdn" unicode="&#x2195;" horiz-adv-x="1257" 
d="M1223 999l-33 -278q-96 45 -189 125.5t-159 173.5l-156 -889q215 191 451 285l-54 -295q-331 -144 -600 -477q-78 178 -184 295.5t-248 189.5l51 279q92 -44 181 -125.5t155 -176.5l156 893q-94 -87 -212 -164t-228 -122l36 295q329 137 601 477q81 -180 185.5 -296.5
t246.5 -189.5z" />
    <glyph glyph-name="uni2196" unicode="&#x2196;" horiz-adv-x="1437" 
d="M696 819l539 -647l-197 -172l-544 653q-11 -122 -51.5 -256.5t-100.5 -244.5l-172 221q178 323 145 702q350 -96 707 21l182 -207q-114 -42 -250 -60t-258 -10z" />
    <glyph glyph-name="uni2197" unicode="&#x2197;" horiz-adv-x="1431" 
d="M1305 1065q-78 -206 -101.5 -373.5t6.5 -333.5l-233 -184q-45 213 6 471l-752 -643l-147 172l756 647q-120 -3 -243.5 18t-219.5 62l225 195q273 -109 703 -31z" />
    <glyph glyph-name="uni2198" unicode="&#x2198;" horiz-adv-x="1437" 
d="M1104 930l174 -221q-181 -326 -145 -705q-352 100 -707 -20l-184 209q231 84 510 67l-539 649l197 170l540 -653q12 124 53 259t101 245z" />
    <glyph glyph-name="uni2199" unicode="&#x2199;" horiz-adv-x="1431" 
d="M1362 928l-756 -649q120 3 243.5 -17.5t219.5 -60.5l-225 -195q-276 111 -701 29q153 409 93 708l231 185q48 -216 -6 -473l753 645z" />
    <glyph glyph-name="partialdiff" unicode="&#x2202;" horiz-adv-x="1196" 
d="M698 1462q245 0 367.5 -154.5t122.5 -439.5q0 -136 -26.5 -265t-82.5 -244.5t-135 -202.5t-191 -138t-243 -51q-216 0 -343.5 117.5t-127.5 306.5q0 159 75 290t207 206.5t293 75.5q225 0 310 -148q12 200 -46.5 308t-181.5 108q-86 0 -138.5 -48.5t-55.5 -115.5h-297
q9 184 149.5 289.5t343.5 105.5zM522 205q136 0 226 99t90 231q0 99 -55 153.5t-150 54.5q-136 0 -223.5 -99t-87.5 -234q0 -98 52.5 -151.5t147.5 -53.5z" />
    <glyph glyph-name="emptyset" unicode="&#x2205;" horiz-adv-x="1245" 
d="M1188 1114l90 -92l-178 -164q80 -122 80 -276q0 -164 -88 -306.5t-233 -225.5t-308 -83q-182 0 -307 103l-189 -174l-86 100l187 172q-76 115 -76 268q0 164 85.5 307.5t230 228.5t309.5 85q176 0 307 -103zM285 455q0 -78 32 -140l533 490q-72 43 -166 43
q-163 0 -281 -119t-118 -274zM975 567q0 82 -35 144l-532 -492q72 -43 167 -43q108 0 200.5 55t146 145t53.5 191z" />
    <glyph glyph-name="uni2206" unicode="&#x2206;" horiz-adv-x="1570" 
d="M768 1434h360l332 -1434h-1530zM1081 244l-188 837l-485 -837h673z" />
    <glyph glyph-name="product" unicode="&#x220f;" horiz-adv-x="1347" 
d="M233 1434h1209l-45 -244h-164l-285 -1600h-301l283 1600h-262l-285 -1600h-301l283 1600h-177z" />
    <glyph glyph-name="summation" unicode="&#x2211;" horiz-adv-x="1169" 
d="M248 1434h958l-43 -244h-624l303 -469l-455 -477h631l-45 -244h-979l37 225l487 498l-307 485z" />
    <glyph glyph-name="minus" unicode="&#x2212;" horiz-adv-x="1406" 
d="M1247 539h-1079l37 211h1079z" />
    <glyph glyph-name="uni2215" unicode="&#x2215;" horiz-adv-x="1247" 
d="M225 -37h-303l1180 1534h303z" />
    <glyph glyph-name="uni2219" unicode="&#x2219;" horiz-adv-x="714" 
d="M326 217q-119 0 -196 79t-77 196q0 138 104.5 238.5t237.5 100.5q119 0 197 -78t78 -196q0 -138 -104.5 -239t-239.5 -101z" />
    <glyph glyph-name="radical" unicode="&#x221a;" horiz-adv-x="1210" 
d="M1264 1796h516l-43 -246h-283l-723 -1550h-297l-139 780h-195l43 244h406l86 -586z" />
    <glyph glyph-name="infinity" unicode="&#x221e;" horiz-adv-x="1830" 
d="M1413 918q164 0 266.5 -101.5t102.5 -261.5q0 -125 -67 -226.5t-178.5 -157.5t-240.5 -56q-72 0 -133.5 17.5t-110 50.5t-85.5 69.5t-74 85.5q-111 -104 -221.5 -163.5t-241.5 -59.5q-169 0 -275 97.5t-106 252.5q0 124 67.5 229t181.5 164.5t247 59.5q94 0 174 -33
t131 -78.5t102 -112.5q113 104 224 164t237 60zM467 350q73 0 145 43.5t158 124.5q-57 79 -112.5 121.5t-127.5 42.5q-91 0 -152 -59.5t-61 -135.5q0 -61 42 -99t108 -38zM1303 350q85 0 149 59.5t64 137.5q0 60 -42 97.5t-110 37.5q-71 0 -140 -43t-151 -123
q58 -81 110.5 -123.5t119.5 -42.5z" />
    <glyph glyph-name="integral" unicode="&#x222b;" horiz-adv-x="788" 
d="M92 -463q-102 0 -205 43l27 240q79 -39 121 -39q87 0 108 121l234 1323q47 260 328 260q100 0 196 -41l-27 -238q-75 35 -118 35q-47 0 -77.5 -31.5t-41.5 -87.5l-229 -1308q-49 -277 -316 -277z" />
    <glyph glyph-name="approxequal" unicode="&#x2248;" horiz-adv-x="1406" 
d="M352 707h-205q-5 152 90.5 250t251.5 98q61 0 119.5 -18.5t97 -41t91.5 -41t104 -18.5q69 0 113.5 32.5t44.5 84.5h207q-14 -164 -92.5 -248t-235.5 -84q-69 0 -133 18.5t-104 41t-91.5 41t-97.5 18.5q-77 0 -120 -40t-40 -93zM344 270h-205q-5 152 90.5 249t251.5 97
q61 0 119 -18.5t96.5 -40.5t91 -40.5t103.5 -18.5q71 0 115 32t45 84h206q-14 -163 -92.5 -246t-234.5 -83q-69 0 -133 18.5t-104.5 40.5t-92 40.5t-98.5 18.5q-77 0 -120 -41t-38 -92z" />
    <glyph glyph-name="notequal" unicode="&#x2260;" horiz-adv-x="1406" 
d="M1325 973l-43 -246h-383l-92 -186h442l-43 -244h-518l-113 -229h-253l112 229h-307l43 244h383l92 186h-442l43 246h518l127 258h256l-127 -258h305z" />
    <glyph glyph-name="lessequal" unicode="&#x2264;" horiz-adv-x="1406" 
d="M231 975l1153 393l-43 -248l-811 -256l715 -284l-43 -244l-1007 426zM1143 0h-1084l43 244h1084z" />
    <glyph glyph-name="greaterequal" unicode="&#x2265;" horiz-adv-x="1406" 
d="M281 1120l43 248l1013 -393l-34 -213l-1160 -426l43 246l815 284zM1165 0h-1083l45 244h1083z" />
    <glyph glyph-name="uni2460" unicode="&#x2460;" horiz-adv-x="1794" 
d="M1042 1464q201 0 358 -85.5t243 -237t86 -344.5q0 -178 -74 -344t-198 -287.5t-294 -194.5t-354 -73q-203 0 -359 86.5t-240.5 239t-84.5 345.5q0 177 73.5 342t197 286.5t293 194t353.5 72.5zM817 59q153 0 291 59.5t236.5 159.5t156.5 234t58 279q0 233 -142.5 372.5
t-384.5 139.5q-154 0 -292 -60t-235 -159.5t-153.5 -233.5t-56.5 -277q0 -231 141 -372.5t381 -141.5zM598 739l27 160q108 9 208.5 71.5t147.5 149.5h166l-156 -864h-166l111 614q-131 -114 -338 -131z" />
    <glyph glyph-name="uni2461" unicode="&#x2461;" horiz-adv-x="1794" 
d="M1042 1464q201 0 358 -85.5t243 -237t86 -344.5q0 -178 -74 -344t-198 -287.5t-294 -194.5t-354 -73q-203 0 -359 86.5t-240.5 239t-84.5 345.5q0 177 73.5 342t197 286.5t293 194t353.5 72.5zM817 59q153 0 291 59.5t236.5 159.5t156.5 234t58 279q0 233 -142.5 372.5
t-384.5 139.5q-154 0 -292 -60t-235 -159.5t-153.5 -233.5t-56.5 -277q0 -231 141 -372.5t381 -141.5zM1325 856q0 -82 -37.5 -154.5t-103.5 -128t-144.5 -96.5t-171.5 -71h385l-24 -146h-703l25 148q93 30 164.5 56.5t156.5 68t140.5 84.5t93 101t37.5 122q0 65 -37 106
t-109 41q-94 0 -151.5 -66.5t-57.5 -166.5q0 -65 25 -113h-166q-29 79 -29 143q0 157 109.5 255t276.5 98q152 0 236.5 -77.5t84.5 -203.5z" />
    <glyph glyph-name="uni2462" unicode="&#x2462;" horiz-adv-x="1794" 
d="M1042 1464q201 0 358 -85.5t243 -237t86 -344.5q0 -178 -74 -344t-198 -287.5t-294 -194.5t-354 -73q-203 0 -359 86.5t-240.5 239t-84.5 345.5q0 177 73.5 342t197 286.5t293 194t353.5 72.5zM817 59q153 0 291 59.5t236.5 159.5t156.5 234t58 279q0 233 -142.5 372.5
t-384.5 139.5q-154 0 -292 -60t-235 -159.5t-153.5 -233.5t-56.5 -277q0 -231 141 -372.5t381 -141.5zM1286 911q0 -139 -149 -200q118 -64 118 -189q0 -127 -116.5 -204.5t-280.5 -77.5q-182 0 -276 94t-41 239h182q-32 -85 10 -133.5t139 -48.5q88 0 147.5 40.5
t59.5 103.5q0 52 -40.5 84t-112.5 32h-109l21 131h96q72 0 122 31.5t50 83.5q0 43 -37 68.5t-100 25.5q-82 0 -131.5 -39.5t-44.5 -101.5h-168q-6 131 98.5 212t261.5 81q139 0 220 -65t81 -167z" />
    <glyph glyph-name="uni2463" unicode="&#x2463;" horiz-adv-x="1794" 
d="M1042 1464q201 0 358 -85.5t243 -237t86 -344.5q0 -178 -74 -344t-198 -287.5t-294 -194.5t-354 -73q-203 0 -359 86.5t-240.5 239t-84.5 345.5q0 177 73.5 342t197 286.5t293 194t353.5 72.5zM817 59q153 0 291 59.5t236.5 159.5t156.5 234t58 279q0 233 -142.5 372.5
t-384.5 139.5q-154 0 -292 -60t-235 -159.5t-153.5 -233.5t-56.5 -277q0 -231 141 -372.5t381 -141.5zM1057 1124h192l-88 -503h168l-24 -146h-170l-37 -215h-168l39 215h-502l20 152q173 96 320.5 224t249.5 273zM993 621l47 260q-129 -144 -295 -260h248z" />
    <glyph glyph-name="uni2464" unicode="&#x2464;" horiz-adv-x="1794" 
d="M1042 1464q201 0 358 -85.5t243 -237t86 -344.5q0 -178 -74 -344t-198 -287.5t-294 -194.5t-354 -73q-203 0 -359 86.5t-240.5 239t-84.5 345.5q0 177 73.5 342t197 286.5t293 194t353.5 72.5zM817 59q153 0 291 59.5t236.5 159.5t156.5 234t58 279q0 233 -142.5 372.5
t-384.5 139.5q-154 0 -292 -60t-235 -159.5t-153.5 -233.5t-56.5 -277q0 -231 141 -372.5t381 -141.5zM733 647l-168 86q99 165 144 389h618l-27 -147h-473q-25 -94 -51 -160q77 49 191 49q141 0 224 -75t83 -201q0 -154 -116.5 -251t-291.5 -97q-180 0 -276 95.5t-43 231.5
h184q-29 -77 11.5 -126.5t136.5 -49.5q100 0 158.5 53t58.5 129q0 65 -46 105.5t-128 40.5q-117 0 -189 -72z" />
    <glyph glyph-name="uni2465" unicode="&#x2465;" horiz-adv-x="1794" 
d="M1042 1464q201 0 358 -85.5t243 -237t86 -344.5q0 -178 -74 -344t-198 -287.5t-294 -194.5t-354 -73q-203 0 -359 86.5t-240.5 239t-84.5 345.5q0 177 73.5 342t197 286.5t293 194t353.5 72.5zM817 59q153 0 291 59.5t236.5 159.5t156.5 234t58 279q0 233 -142.5 372.5
t-384.5 139.5q-154 0 -292 -60t-235 -159.5t-153.5 -233.5t-56.5 -277q0 -231 141 -372.5t381 -141.5zM1010 1143q166 0 241 -89t21 -202h-178q27 70 0.5 104.5t-95.5 34.5q-104 0 -181 -74t-111 -202q91 98 254 98q134 0 212 -66t78 -180q0 -140 -114.5 -233.5
t-276.5 -93.5q-159 0 -254.5 98t-95.5 272q0 143 63 264.5t178.5 195t258.5 73.5zM911 680q-84 0 -142 -46.5t-58 -115.5q0 -55 41.5 -91t115.5 -36q86 0 145.5 46t59.5 114q0 56 -44 92.5t-118 36.5z" />
    <glyph glyph-name="uni2466" unicode="&#x2466;" horiz-adv-x="1794" 
d="M1042 1464q201 0 358 -85.5t243 -237t86 -344.5q0 -178 -74 -344t-198 -287.5t-294 -194.5t-354 -73q-203 0 -359 86.5t-240.5 239t-84.5 345.5q0 177 73.5 342t197 286.5t293 194t353.5 72.5zM817 59q153 0 291 59.5t236.5 159.5t156.5 234t58 279q0 233 -142.5 372.5
t-384.5 139.5q-154 0 -292 -60t-235 -159.5t-153.5 -233.5t-56.5 -277q0 -231 141 -372.5t381 -141.5zM1122 975h-487l27 149h677l-20 -147q-175 -169 -296 -353t-167 -364h-178q45 180 161.5 366t282.5 349z" />
    <glyph glyph-name="uni2467" unicode="&#x2467;" horiz-adv-x="1794" 
d="M1042 1464q201 0 358 -85.5t243 -237t86 -344.5q0 -178 -74 -344t-198 -287.5t-294 -194.5t-354 -73q-203 0 -359 86.5t-240.5 239t-84.5 345.5q0 177 73.5 342t197 286.5t293 194t353.5 72.5zM817 59q153 0 291 59.5t236.5 159.5t156.5 234t58 279q0 233 -142.5 372.5
t-384.5 139.5q-154 0 -292 -60t-235 -159.5t-153.5 -233.5t-56.5 -277q0 -231 141 -372.5t381 -141.5zM1286 915q0 -128 -131 -190q117 -70 117 -193q0 -126 -118.5 -209t-276.5 -83q-147 0 -237.5 72.5t-90.5 189.5q0 87 51 149t137 94q-67 57 -67 142q0 110 96.5 181
t234.5 71q124 0 204.5 -62t80.5 -162zM991 991q-65 0 -105 -31.5t-40 -74.5q0 -39 33 -61.5t86 -22.5q64 0 103.5 29t39.5 75q0 40 -32.5 63t-84.5 23zM887 387q91 0 151 44.5t60 111.5q0 56 -43.5 86t-118.5 30q-92 0 -152.5 -43t-60.5 -110q0 -57 45.5 -88t118.5 -31z" />
    </font>
</defs>
</svg>
